<svg xmlns="http://www.w3.org/2000/svg" viewBox="0 0 240 160"><title>Lage von Entre Ríos in Argentinien</title><rect width="240" height="160" rx="16" fill="#f4eddf"/><path d="M137.9 54.9L138.0 57.4L137.1 57.6L137.1 61.3L136.6 61.6L132.7 59.8L130.1 57.4L129.4 55.4L129.6 52.7L132.9 48.1L133.0 46.0L136.6 45.2L137.8 45.6L139.2 47.7L137.9 54.9ZM107.9 18.6L110.5 20.3L111.3 16.8L112.2 17.4L112.1 19.1L113.5 21.0L115.7 21.8L116.0 21.2L116.0 21.2L116.7 21.9L116.7 21.9L118.2 20.3L118.1 17.3L115.9 17.2L115.3 16.2L114.3 13.4L114.8 11.3L116.8 11.8L117.7 14.6L119.0 10.9L122.7 10.9L124.2 12.9L124.2 17.4L124.2 19.8L124.2 21.0L121.7 24.8L120.7 26.3L118.1 26.0L117.1 28.7L115.6 28.9L113.2 28.0L113.1 29.0L111.5 28.4L110.8 29.4L109.5 26.9L110.5 26.1L110.3 24.7L103.9 24.2L103.9 21.8L107.8 19.0ZM108.0 18.2L108.8 15.1L108.2 14.4L109.7 11.8L111.1 11.2L111.4 10.0L112.9 11.3L114.8 11.3L114.7 14.8L115.4 15.2L115.9 17.2L117.3 17.7L118.1 17.3L118.2 20.1L116.7 21.9L116.0 21.2L115.7 21.8L113.5 21.0L111.6 16.9L110.9 16.7L110.5 20.3L108.0 18.2ZM124.2 12.9L125.5 15.3L128.6 18.5L131.8 19.3L135.9 22.6L139.3 24.3L139.9 25.9L138.0 28.5L137.4 31.5L133.0 28.3L127.9 22.1L124.2 19.8L124.2 17.4ZM149.7 26.3L151.3 25.6L152.0 26.2L152.8 28.7L152.6 31.7L152.3 32.6L149.1 34.2L148.3 35.5L146.4 36.8L145.1 33.6L145.9 33.8L147.0 31.9L149.1 30.4L149.6 26.3ZM137.4 31.5L135.6 34.0L135.7 36.1L126.3 36.2L126.1 26.3L120.7 26.3L121.7 24.8L124.2 21.0L124.2 19.8L127.9 22.1L133.0 28.3L135.4 29.4L137.4 31.5ZM137.7 33.0L143.8 34.4L145.2 33.3L146.4 36.8L146.1 37.8L145.4 37.7L139.7 45.4L139.2 47.7L137.8 45.6L136.6 45.2L133.0 46.0L133.3 41.9L134.6 40.4L135.6 34.0L136.8 33.1ZM104.4 32.1L103.6 29.7L104.2 28.3L103.5 25.5L103.9 24.2L110.3 24.7L110.5 26.1L109.5 27.1L110.8 29.3L111.4 28.5L112.0 28.8L111.6 30.0L112.6 30.8L111.5 33.3L113.6 36.4L114.9 35.8L114.8 38.9L115.8 42.7L115.0 44.8L114.8 44.9L114.1 45.2L112.8 41.4L110.9 39.7L110.2 37.8L109.6 37.5L108.9 37.3L106.1 37.8L105.8 36.7L104.1 36.1L104.1 35.1L101.8 35.2L102.9 32.4L104.3 32.1ZM100.9 37.0L101.8 35.2L103.9 35.0L104.1 36.1L105.8 36.7L106.1 37.8L108.9 37.3L110.4 38.1L110.9 39.7L112.8 41.4L114.1 45.2L112.9 49.2L112.9 49.9L112.9 51.4L112.9 52.5L109.7 52.5L108.7 51.0L108.6 48.3L106.8 45.6L104.4 43.2L102.2 43.0L102.6 40.4L101.6 38.6L100.1 37.8L100.8 37.0ZM99.1 45.0L98.8 41.6L99.6 40.8L100.1 37.8L100.7 37.9L102.6 40.4L102.2 43.0L104.4 43.2L106.8 45.6L108.6 48.3L108.7 51.0L109.7 52.5L107.6 52.4L107.5 54.1L105.4 53.3L102.6 54.4L102.6 54.4L102.6 54.4L102.5 53.3L101.7 52.8L100.1 54.1L97.9 54.2L98.1 52.7L97.4 52.2L97.1 50.1L98.1 48.9L98.4 46.1L99.2 46.0L99.2 44.9ZM98.9 58.5L98.1 54.3L100.1 54.1L101.7 52.8L102.5 53.3L102.6 54.4L102.6 54.4L102.6 54.4L105.4 53.3L107.5 54.1L108.3 59.0L109.7 61.7L110.4 67.7L110.1 69.8L104.6 69.9L104.7 76.4L99.9 74.5L97.7 71.2L97.0 66.7L98.8 62.6L99.5 62.4L99.7 58.8L99.0 58.4ZM97.3 70.5L99.9 74.5L104.7 76.4L104.7 76.4L104.7 77.1L104.7 81.0L105.5 82.3L104.5 82.3L102.4 84.5L99.1 86.4L98.2 88.9L95.7 89.3L95.5 90.6L94.5 91.2L92.8 90.9L92.5 89.7L93.4 88.1L93.0 87.0L93.6 86.3L93.3 84.9L94.0 85.0L94.3 82.2L96.2 80.7L95.0 77.0L95.0 73.4L95.5 71.9L96.6 71.6L97.2 70.4ZM92.6 95.8L93.1 95.1L115.0 95.1L117.2 96.1L116.8 96.8L117.3 96.9L118.4 96.9L118.5 96.2L117.6 96.1L119.5 95.4L120.1 97.6L119.8 98.4L118.4 98.8L117.5 97.2L115.6 97.8L115.4 98.4L117.7 99.2L115.6 100.3L114.3 102.1L114.7 105.0L113.0 106.9L113.7 107.4L109.1 108.8L106.9 111.9L93.5 111.9L93.1 110.1L94.6 108.8L92.1 106.8L94.7 106.8L95.3 105.7L92.8 105.1L93.5 103.2L92.5 101.1L93.2 100.1L91.9 99.3L91.9 96.3L92.5 95.8ZM93.1 95.1L92.8 90.9L95.2 91.1L95.7 89.3L98.6 88.5L99.1 86.4L102.4 84.5L104.5 82.3L105.5 82.3L104.7 81.0L104.7 77.1L104.7 76.4L104.7 76.4L106.4 76.8L106.0 78.3L106.9 79.3L108.3 79.2L110.3 81.2L117.2 81.8L120.8 83.8L120.8 89.6L122.7 91.0L119.5 91.5L115.5 89.7L114.9 90.7L115.3 95.1L93.2 95.1ZM92.6 117.1L92.5 115.3L93.4 114.7L92.6 112.5L93.5 111.9L106.9 111.9L107.4 114.3L109.5 116.1L113.0 117.0L112.7 119.2L110.9 119.7L112.5 119.4L112.9 120.1L107.0 124.6L106.1 126.1L106.8 125.6L106.1 128.5L104.4 129.2L103.1 127.6L103.6 128.4L102.2 128.8L103.6 128.6L104.4 129.4L102.7 130.1L100.9 133.3L101.7 132.9L102.4 135.3L100.2 135.6L102.3 135.6L104.2 138.8L99.1 137.2L92.6 137.1L90.9 135.3L91.5 134.0L91.4 131.5L88.5 131.9L87.2 128.5L88.9 126.9L88.5 125.3L91.4 121.8L90.6 120.0L91.2 118.0L92.5 117.1ZM103.4 148.9L103.5 139.8L104.8 141.8L104.4 141.4L103.7 142.4L105.2 142.8L107.0 145.2L110.6 147.5L115.0 148.3L114.3 149.5L110.7 150.0L103.5 148.9ZM119.1 148.6L116.2 149.1L119.1 148.6ZM142.9 72.9L140.0 78.7L138.0 80.0L128.2 82.4L124.1 81.6L124.3 83.5L125.3 84.0L124.4 83.8L125.1 84.3L125.0 85.9L124.3 85.9L123.7 87.9L124.2 89.5L124.7 89.3L122.9 91.0L120.8 89.6L120.9 63.0L126.3 63.0L128.9 59.6L130.4 59.8L131.0 58.3L133.1 60.0L137.2 61.5L136.7 64.4L138.9 64.9L141.0 66.7L141.4 67.5L140.6 69.8L142.0 71.4L142.7 71.1L142.9 72.3ZM125.6 83.0L125.8 83.5L125.0 82.8L125.6 83.1ZM124.8 88.2L125.0 89.0L124.8 88.2ZM124.9 87.2L125.3 88.1L124.9 87.4ZM137.0 63.6L137.5 64.2L137.1 64.7L136.7 64.4L136.7 64.2L136.7 63.8ZM133.3 36.2L135.7 36.1L134.9 36.9L134.6 40.4L133.3 41.9L133.0 47.7L129.6 52.7L129.4 55.4L131.0 58.5L130.3 59.9L128.9 59.6L126.3 63.0L126.1 63.0L124.4 63.0L122.5 63.0L126.1 57.2L124.5 51.9L125.8 47.6L124.9 46.3L126.3 36.2L129.5 36.2L131.8 36.1ZM113.3 28.0L115.6 28.9L117.1 28.7L117.1 30.6L115.2 33.9L115.4 35.2L113.6 36.4L111.5 33.3L112.6 30.9L111.6 30.0L111.8 29.1L113.1 29.0L113.2 28.0ZM120.7 26.3L126.1 26.3L126.2 26.7L126.3 36.2L125.0 45.2L124.5 43.7L124.4 43.6L120.8 43.6L117.9 42.1L115.8 42.7L115.3 41.6L115.2 33.9L117.1 30.6L118.0 26.1L119.0 26.3ZM115.2 65.6L115.2 69.2L115.2 69.8L110.1 69.8L110.5 66.1L109.5 63.0L109.7 61.7L108.3 59.0L107.7 52.3L113.2 52.5L114.8 54.4L115.7 54.2L115.0 58.1L115.2 61.2L115.2 65.6ZM115.1 69.8L115.2 65.6L117.1 65.6L118.9 65.6L120.8 65.6L120.8 83.8L117.2 81.8L110.3 81.2L108.3 79.2L106.9 79.3L106.0 78.3L106.4 76.8L104.7 76.4L104.7 69.8L115.0 69.8ZM125.0 45.2L124.9 46.3L124.9 46.4L124.9 46.5L125.6 47.4L125.8 47.6L124.6 53.6L126.2 56.3L126.1 57.3L122.5 63.0L120.9 63.0L120.8 63.1L120.8 63.8L120.8 65.6L118.9 65.6L117.1 65.6L115.2 65.6L115.2 65.6L115.2 61.2L115.0 58.1L115.7 54.3L114.8 54.4L114.4 53.2L112.9 52.5L112.9 51.4L112.9 49.9L112.9 49.2L114.1 45.2L115.6 44.1L115.6 42.8L117.8 42.1L120.8 43.6L124.5 43.7Z" fill="#cfc6b5" fill-rule="evenodd" stroke="#fffaf0" stroke-linejoin="round" stroke-width=".8"/><path d="M137.9 54.9L138.0 57.4L137.1 57.6L137.1 61.3L136.6 61.6L132.7 59.8L130.1 57.4L129.4 55.4L129.6 52.7L132.9 48.1L133.0 46.0L136.6 45.2L137.8 45.6L139.2 47.7L137.9 54.9Z" fill="#ed7659" fill-rule="evenodd" stroke="#173748" stroke-linejoin="round" stroke-width="1.3"/></svg>