<svg xmlns="http://www.w3.org/2000/svg" viewBox="0 0 240 160"><title>Lage von Limón in Costa Rica</title><rect width="240" height="160" rx="16" fill="#f4eddf"/><path d="M151.9 52.1L151.4 50.0L152.7 48.7L153.2 48.4L153.7 47.9L156.1 43.8L155.7 41.2L156.6 40.2L149.4 40.2L141.2 36.3L143.4 40.2L139.7 41.3L139.6 42.3L138.9 42.4L140.0 43.1L137.8 45.5L140.1 45.1L141.3 47.2L143.4 47.9L143.6 49.1L145.6 49.5L146.0 50.6L147.6 50.8L148.7 50.1L151.2 51.8ZM111.6 38.7L111.1 38.3L111.9 38.7ZM109.4 13.5L101.0 10.0L98.9 13.4L99.5 14.4L98.5 14.7L98.1 14.2L97.4 14.8L99.0 15.9L98.3 16.5L98.5 17.2L96.7 16.9L96.5 17.6L95.9 16.7L94.3 16.6L94.8 17.2L92.7 18.1L96.4 18.9L96.3 19.6L97.2 20.2L99.3 20.2L99.9 23.3L98.8 24.9L99.8 24.1L100.6 24.5L98.8 26.3L96.1 27.2L97.0 28.9L94.5 31.1L95.4 32.0L95.1 33.7L96.6 37.5L99.5 40.6L99.5 42.2L107.7 44.2L107.3 43.8L109.6 45.0L109.1 45.7L110.1 46.4L111.4 43.4L109.0 41.9L109.1 41.0L111.1 40.5L111.8 39.4L110.9 39.2L111.4 39.0L111.0 37.8L109.6 37.3L109.7 33.8L108.2 32.0L107.0 31.9L108.9 32.6L110.5 35.4L112.3 35.9L113.8 35.5L117.2 36.9L117.5 36.3L117.4 35.9L117.9 35.4L118.4 35.2L118.9 32.4L119.3 31.8L119.7 31.6L120.2 31.8L120.6 32.1L121.4 29.4L121.2 28.6L121.2 27.7L116.3 25.0L115.2 22.6L108.7 21.1L106.6 19.4L105.3 16.3L107.0 14.4L107.6 14.4L107.9 14.2L108.1 14.2L108.5 14.7L108.9 15.0L109.2 15.0L109.3 14.6L109.3 14.0ZM141.6 35.3L141.2 36.3L149.4 40.2L156.6 40.2L155.7 41.2L156.1 43.8L153.7 47.9L153.2 48.4L152.7 48.7L151.4 50.0L151.9 52.1L154.6 56.0L156.3 54.8L162.5 58.1L162.8 60.0L163.3 60.2L164.1 60.3L164.4 60.5L164.7 61.9L164.9 62.4L165.3 62.6L165.7 62.4L165.7 52.7L168.0 52.0L166.9 50.5L167.6 49.2L170.3 49.9L172.1 52.2L173.7 52.0L173.8 50.6L175.0 51.0L173.3 48.8L169.4 48.0L168.8 46.1L167.7 46.1L165.5 43.5L163.6 39.8L161.6 39.7L155.1 31.7L151.5 25.4L149.1 18.4L147.7 16.9L147.6 16.9L147.6 16.9L147.2 16.8L148.0 18.1L148.0 20.3L145.6 21.0L146.9 22.9L145.7 22.7L145.1 23.7L143.8 24.0L144.0 28.5L142.8 30.0L143.6 33.0L141.6 35.2ZM135.5 40.5L132.0 41.9L128.7 41.7L126.7 42.9L125.7 44.6L126.8 45.4L126.4 45.8L125.8 45.8L125.6 45.9L125.6 46.6L126.5 49.6L129.5 50.6L130.3 48.6L136.3 48.9L136.9 50.7L138.1 50.6L137.8 51.8L141.0 54.7L142.2 54.3L143.7 56.0L143.5 56.6L143.6 57.8L144.2 58.3L145.0 58.8L145.7 58.9L146.2 58.2L148.0 60.7L150.9 62.4L151.5 62.3L151.8 62.1L152.8 60.4L152.5 59.5L151.5 59.2L153.9 55.3L152.3 52.5L148.7 50.1L147.6 50.8L146.0 50.6L145.6 49.5L143.6 49.1L143.4 47.9L141.3 47.2L140.1 45.1L137.8 45.5L140.0 43.1L138.9 42.4L139.6 42.3L139.7 41.3L143.4 40.2L141.4 36.7L141.6 35.3L140.6 35.8L140.4 37.4L139.3 37.9L139.3 40.1L137.2 40.8L135.5 40.6ZM136.2 20.6L135.0 20.7L134.2 19.9L134.5 18.5L132.1 17.4L131.2 15.5L129.0 16.3L128.2 15.4L126.3 14.6L126.0 14.1L125.3 14.4L123.8 13.6L123.5 13.3L121.9 14.2L121.8 14.4L117.9 16.8L110.1 13.8L109.4 13.5L109.3 14.0L109.3 14.6L109.2 15.0L108.9 15.0L108.5 14.7L108.1 14.2L107.9 14.2L107.6 14.4L107.0 14.4L105.3 16.3L106.3 19.0L108.7 21.1L115.2 22.6L116.3 25.0L121.2 27.7L121.3 31.0L121.1 31.1L121.0 31.6L120.6 32.1L121.1 32.7L121.9 33.3L122.4 33.1L122.7 32.9L123.1 32.8L123.4 32.9L123.9 33.5L123.7 36.8L124.8 38.7L125.6 38.8L126.1 38.8L126.5 39.2L126.5 39.6L126.4 40.1L124.4 41.1L123.4 42.7L126.2 44.1L127.9 42.0L133.8 41.6L135.5 40.5L136.1 37.5L136.0 25.5ZM136.2 20.6L136.1 37.5L135.1 40.6L137.2 40.8L139.3 40.1L139.3 37.9L140.4 37.4L140.6 35.8L143.4 33.7L143.6 31.6L142.8 30.0L144.0 28.5L143.8 24.0L145.1 23.7L145.7 22.7L146.9 22.9L145.7 21.0L141.6 22.5L139.4 20.5L138.2 21.3L136.5 20.6ZM65.0 149.5L65.5 150.0L66.5 148.7L65.0 149.5ZM143.0 71.3L142.8 71.4L142.7 71.4L142.5 71.5L143.1 71.3ZM159.9 73.9L160.7 75.2L160.1 73.7ZM113.9 35.9L113.9 36.5L115.1 36.6L118.5 39.6L121.5 40.2L119.4 40.5L121.8 40.5L122.9 41.6L122.2 42.5L124.7 45.7L123.5 48.4L125.0 50.1L127.0 51.6L128.5 51.3L134.3 52.9L134.0 52.2L135.9 53.6L135.7 54.7L141.8 57.0L148.3 62.7L149.1 66.3L150.4 67.1L149.4 67.4L150.3 68.0L148.4 69.4L149.3 69.3L148.5 70.0L148.3 71.7L146.8 72.3L146.4 74.1L150.4 78.0L152.6 77.9L157.4 79.3L157.3 75.5L157.1 76.0L153.8 73.7L152.4 71.7L152.9 71.0L153.7 71.3L155.1 70.5L156.3 71.1L156.2 72.1L157.0 72.8L159.7 73.6L159.9 73.0L161.2 74.1L160.4 74.8L162.2 75.5L161.3 75.3L161.3 76.5L160.5 75.4L161.9 77.8L160.6 79.8L164.8 82.9L166.5 86.1L166.6 87.8L166.9 86.1L165.6 82.1L164.4 82.2L162.9 80.6L168.0 77.0L168.3 73.2L166.1 70.1L166.9 69.9L167.5 67.9L171.1 66.2L170.4 64.7L169.0 64.2L166.9 62.2L165.3 62.6L164.9 62.4L164.7 61.9L164.4 60.5L164.1 60.3L163.3 60.2L162.8 60.0L162.5 58.1L156.3 54.8L154.6 56.0L154.5 55.7L154.3 55.5L153.9 55.3L151.9 57.9L151.5 59.2L152.5 59.5L152.8 60.4L152.1 61.9L151.8 62.1L151.5 62.3L150.9 62.4L150.6 62.1L149.5 61.6L146.2 58.2L145.7 58.9L145.0 58.8L144.2 58.3L143.6 57.8L143.5 56.6L143.7 56.0L142.2 54.3L141.0 54.7L137.8 51.8L138.1 50.6L136.9 50.7L136.3 48.9L132.5 48.3L130.3 48.6L129.5 50.6L129.2 50.4L129.1 50.0L128.3 50.2L127.5 50.2L126.9 50.0L125.6 46.6L125.6 45.9L125.8 45.8L126.4 45.8L126.8 45.4L125.7 44.6L125.7 44.3L126.1 44.0L125.4 43.2L123.4 42.7L124.4 41.1L126.5 39.6L126.5 39.2L126.1 38.8L125.6 38.8L124.8 38.7L123.7 36.8L123.7 35.7L123.7 35.4L123.5 35.2L123.6 34.8L123.8 34.5L124.0 34.0L123.9 33.5L123.4 32.9L121.9 33.3L119.7 31.6L117.2 36.9L114.3 35.8ZM110.2 46.3L113.0 50.6L114.1 48.3L115.8 47.1L115.5 46.2L116.2 45.7L116.8 46.5L118.1 44.8L117.8 44.4L119.0 44.0L117.1 44.0L118.0 43.4L117.2 42.8L117.6 41.7L112.9 40.5L111.8 39.4L111.1 40.5L109.2 40.8L108.9 41.8L111.4 43.4L110.3 46.1ZM117.9 41.0L118.3 41.4L117.9 41.0ZM114.8 39.8L115.1 40.0L115.2 40.0L115.3 39.9L114.5 39.7ZM113.8 40.2L114.7 40.3L113.8 40.2ZM115.7 40.0L116.7 40.3L115.8 40.0ZM113.4 37.5L110.9 37.1L111.9 38.0L113.5 37.6ZM113.4 36.0L113.8 36.3L114.0 36.3L113.7 35.9Z" fill="#cfc6b5" fill-rule="evenodd" stroke="#fffaf0" stroke-linejoin="round" stroke-width=".8"/><path d="M141.6 35.3L141.2 36.3L149.4 40.2L156.6 40.2L155.7 41.2L156.1 43.8L153.7 47.9L153.2 48.4L152.7 48.7L151.4 50.0L151.9 52.1L154.6 56.0L156.3 54.8L162.5 58.1L162.8 60.0L163.3 60.2L164.1 60.3L164.4 60.5L164.7 61.9L164.9 62.4L165.3 62.6L165.7 62.4L165.7 52.7L168.0 52.0L166.9 50.5L167.6 49.2L170.3 49.9L172.1 52.2L173.7 52.0L173.8 50.6L175.0 51.0L173.3 48.8L169.4 48.0L168.8 46.1L167.7 46.1L165.5 43.5L163.6 39.8L161.6 39.7L155.1 31.7L151.5 25.4L149.1 18.4L147.7 16.9L147.6 16.9L147.6 16.9L147.2 16.8L148.0 18.1L148.0 20.3L145.6 21.0L146.9 22.9L145.7 22.7L145.1 23.7L143.8 24.0L144.0 28.5L142.8 30.0L143.6 33.0L141.6 35.2Z" fill="#ed7659" fill-rule="evenodd" stroke="#173748" stroke-linejoin="round" stroke-width="1.3"/></svg>