<svg xmlns="http://www.w3.org/2000/svg" viewBox="0 0 240 160"><title>Lage von Niedersachsen in Deutschland</title><rect width="240" height="160" rx="16" fill="#f4eddf"/><path d="M105.0 142.8L105.0 142.7L105.0 142.8ZM100.2 142.0L99.8 142.5L100.3 142.1ZM100.0 107.8L100.0 107.8L100.0 107.8L100.0 107.8ZM110.4 144.4L112.0 144.0L113.1 142.7L114.4 143.1L115.2 142.5L115.8 143.4L116.3 142.7L115.6 140.7L116.4 140.3L115.7 139.3L116.5 135.1L114.5 130.2L115.3 128.7L116.8 128.7L118.4 127.5L117.9 124.2L119.0 125.1L119.5 124.3L119.5 125.0L120.5 124.5L119.6 123.4L120.0 120.0L118.8 118.4L117.7 118.2L117.2 117.1L117.7 116.2L116.3 115.3L116.2 109.7L115.6 109.1L115.1 110.2L114.1 110.2L113.9 108.4L112.7 108.9L113.4 107.9L112.6 105.8L111.0 106.6L110.9 104.7L109.9 104.9L110.0 105.5L108.4 104.7L106.9 105.6L107.6 106.2L108.1 105.8L108.2 107.3L107.0 107.1L106.4 108.4L104.4 108.6L105.0 109.6L103.1 109.8L101.9 111.8L101.4 111.7L101.6 110.6L102.5 109.9L100.5 109.6L100.1 107.7L99.0 107.9L98.9 109.6L97.1 108.4L97.3 110.8L98.1 111.1L97.4 113.1L97.8 113.6L96.7 114.7L95.6 118.9L90.1 126.2L89.5 131.0L87.6 134.7L88.1 137.4L86.8 142.3L87.9 144.5L88.9 144.1L88.2 144.8L88.7 145.3L90.3 144.3L91.7 145.1L93.3 144.8L94.6 143.7L97.2 144.7L98.2 143.5L98.9 144.1L99.4 143.2L99.1 142.8L97.7 143.4L96.9 142.7L98.7 140.3L99.4 141.2L99.7 140.5L100.5 141.2L100.5 142.4L101.3 142.7L101.4 141.6L102.4 143.1L103.6 142.5L102.9 141.8L103.8 141.9L103.5 141.5L104.8 142.4L104.2 142.5L106.1 142.9L104.1 140.2L106.9 142.6L109.2 143.2L110.3 144.3ZM154.1 52.8L152.7 53.8L151.9 53.1L151.1 54.4L150.2 54.4L150.0 55.7L150.3 55.6L150.3 55.7L150.6 55.8L149.7 57.4L150.2 58.0L151.5 57.4L153.4 58.2L153.5 58.0L153.4 57.6L153.9 57.4L155.9 58.2L156.0 58.9L157.0 57.8L157.3 57.0L155.6 56.5L156.1 55.5L154.4 54.3L154.1 52.9ZM110.4 144.4L111.8 145.3L112.4 144.2L113.5 145.4L114.6 145.0L114.8 146.1L115.9 146.6L116.0 148.5L117.5 148.0L116.8 150.0L118.6 149.4L119.8 148.0L120.0 144.9L122.7 144.8L123.6 145.6L124.9 145.2L124.7 146.2L125.4 146.2L125.8 147.7L128.5 147.1L129.2 147.7L130.0 146.8L130.9 146.9L130.5 146.4L131.1 145.6L132.6 145.6L133.3 144.2L139.7 144.0L139.3 142.3L140.3 141.5L140.3 142.6L142.4 142.4L143.1 143.6L144.3 142.7L146.2 142.7L146.5 145.0L148.7 146.5L149.2 146.0L149.6 142.5L147.6 141.8L148.7 139.6L146.0 134.6L148.9 132.2L152.4 131.1L153.4 130.0L153.6 126.9L154.4 126.3L156.9 127.7L158.0 125.8L158.2 123.0L155.8 119.8L154.7 119.4L154.3 120.0L153.2 119.1L153.2 118.0L150.8 116.5L149.0 113.4L146.3 112.7L144.8 111.1L143.3 106.6L141.9 105.4L143.6 102.4L142.8 102.0L142.9 101.3L140.4 99.9L139.7 97.4L138.4 96.4L138.8 95.4L137.2 94.6L136.7 93.3L132.0 94.2L130.9 93.0L131.0 91.7L130.1 91.6L128.9 92.3L129.0 96.1L127.8 95.8L127.5 94.3L126.0 94.7L125.4 93.9L124.2 93.9L122.9 94.4L122.9 95.1L124.5 96.4L123.1 96.4L123.0 97.2L121.8 96.9L121.6 94.9L119.3 93.9L118.6 92.0L116.1 90.8L114.4 93.3L113.3 93.8L112.2 93.3L112.0 95.3L111.0 96.1L111.1 96.7L109.3 96.6L109.4 99.2L108.3 99.4L107.8 98.6L106.1 98.2L105.3 99.3L104.9 98.7L103.6 99.3L104.0 103.8L104.6 103.7L105.3 105.6L104.4 108.1L105.8 108.6L107.0 107.1L108.2 107.3L108.1 105.8L107.6 106.2L106.9 105.6L108.4 104.7L110.0 105.5L109.9 104.9L110.9 104.7L111.0 106.6L112.6 105.8L113.4 107.9L112.8 108.9L113.9 108.4L114.3 110.3L115.6 109.1L116.2 109.7L116.3 115.3L117.7 116.2L117.2 117.1L117.7 118.2L118.8 118.4L120.0 120.3L119.6 123.4L120.5 124.5L119.5 125.0L119.5 124.3L119.0 125.1L117.9 124.2L118.4 127.5L116.8 128.7L115.3 128.7L114.5 130.2L116.5 135.1L115.7 139.3L116.4 140.3L115.6 140.7L116.3 142.7L115.8 143.4L115.2 142.5L114.4 143.1L113.1 142.7L112.0 144.0L110.4 144.3ZM120.0 144.9L119.8 144.4L120.1 144.7ZM149.3 71.3L151.0 73.5L150.7 75.3L151.1 75.9L153.2 74.8L154.8 76.3L157.3 76.5L159.5 75.8L160.0 76.3L160.3 74.4L161.5 73.2L163.7 73.9L166.4 72.5L167.6 73.1L168.6 72.0L166.6 68.2L167.8 66.7L168.5 63.8L167.7 62.9L168.0 60.7L166.5 59.8L166.0 57.9L167.1 56.1L167.2 54.7L161.4 49.9L161.6 47.7L163.9 46.1L165.0 42.1L164.6 41.1L163.0 42.3L161.1 42.3L162.6 39.3L159.0 39.4L157.7 37.0L157.9 38.3L156.8 38.3L154.9 39.8L154.6 41.2L153.3 42.6L152.1 42.0L151.3 43.1L150.4 42.5L148.5 44.1L148.3 43.4L146.0 43.6L144.9 42.4L142.4 42.5L140.0 40.6L138.1 40.3L137.6 41.6L135.1 42.4L135.5 42.9L133.2 42.6L132.4 43.3L132.2 44.7L129.1 44.8L130.0 46.0L131.2 45.6L133.4 46.3L134.0 47.4L135.7 47.9L135.6 48.6L140.1 49.5L140.1 53.7L139.4 53.7L139.0 55.5L141.2 56.4L140.2 60.5L140.8 60.9L139.9 61.9L142.3 64.6L144.2 65.3L145.0 64.7L147.0 66.1L148.3 66.1L149.1 67.3L150.3 67.1L150.4 70.6ZM154.1 52.8L154.4 54.3L156.1 55.5L155.6 56.5L157.3 57.0L157.0 57.8L156.0 58.9L155.9 58.2L153.9 57.4L153.4 57.6L153.5 58.0L153.4 58.2L151.5 57.4L150.2 58.0L149.7 57.4L150.6 55.8L150.3 55.7L150.3 55.6L150.0 55.7L150.2 54.4L151.1 54.4L151.9 53.1L152.7 53.8L154.1 52.9ZM140.7 60.9L140.6 60.9L140.5 60.9ZM99.3 43.5L99.2 43.4L99.2 43.5L99.3 43.5ZM98.0 42.9L100.6 46.4L102.7 46.8L103.4 46.2L103.0 44.3L102.1 44.6L98.1 42.9ZM98.6 37.6L97.9 38.5L99.7 37.8L99.7 36.2L97.8 36.2L98.6 37.5ZM104.8 108.5L104.3 107.8L105.3 105.6L104.6 103.7L104.0 103.8L103.6 99.3L104.9 98.7L105.3 99.3L106.1 98.2L107.8 98.6L108.3 99.4L109.4 99.2L109.3 96.6L111.1 96.7L111.0 96.1L112.0 95.3L112.2 93.3L113.6 93.8L115.1 92.5L115.7 89.1L114.9 88.8L114.4 89.6L113.5 89.4L114.3 86.2L115.6 85.0L114.3 84.0L115.6 84.0L115.3 82.7L116.9 83.0L117.3 82.5L116.5 81.9L116.8 80.9L116.2 80.4L116.8 80.2L117.1 80.9L117.5 79.6L114.2 77.4L113.8 75.4L113.2 75.5L113.4 76.3L112.7 75.6L111.5 76.4L111.9 77.2L112.3 76.9L111.9 77.6L109.9 76.7L110.9 75.4L110.2 73.6L110.7 72.5L111.4 72.6L110.7 71.5L109.3 71.7L109.2 71.1L107.4 71.9L107.8 72.3L106.0 74.7L104.7 75.0L104.6 74.1L103.8 73.6L102.4 74.3L102.9 76.0L100.2 76.2L99.2 77.1L98.6 78.0L99.0 78.5L100.5 78.0L101.0 79.2L100.4 81.0L98.3 81.2L98.4 82.6L97.5 84.5L96.4 85.5L95.4 85.1L93.7 86.8L93.9 91.0L92.7 91.0L91.9 93.5L93.0 94.2L93.7 95.9L91.0 97.7L91.5 99.1L90.7 98.6L89.8 99.7L91.1 101.4L94.4 100.3L95.4 100.7L97.0 105.0L97.7 105.2L96.4 106.5L96.6 107.6L98.6 109.6L99.3 109.1L99.0 107.9L100.1 107.7L100.5 109.6L102.5 109.9L101.7 110.5L101.5 111.8L103.0 110.7L103.1 109.8L105.0 109.7L104.7 108.8ZM100.0 107.8L100.0 107.8L100.0 107.8L100.0 107.8ZM118.4 39.2L116.6 37.3L117.4 35.6L116.5 34.8L117.1 33.9L113.8 35.3L112.9 36.5L112.2 35.7L111.8 37.0L113.3 39.3L113.7 38.8L113.8 39.5L114.7 39.5L115.5 38.7L116.9 39.9L118.1 39.4ZM131.0 30.1L131.0 30.0L130.9 30.1L131.0 30.1ZM131.5 29.7L131.5 29.7L131.5 29.7ZM131.4 29.7L131.5 29.6L131.4 29.6L131.4 29.7ZM159.5 30.1L159.5 30.1L159.5 30.0ZM131.5 28.6L130.4 29.1L130.5 29.6L131.2 29.1L131.3 29.8L131.7 28.6ZM160.3 30.0L160.3 30.0L160.3 30.0ZM160.3 30.0L160.3 29.9L160.2 29.9ZM132.0 28.3L132.0 28.2L132.0 28.0L132.0 27.8L131.9 28.1L131.9 28.3ZM157.5 28.1L157.5 28.0L157.5 28.0ZM157.7 25.9L157.1 26.2L157.9 27.1L157.4 28.7L158.4 28.2L158.4 29.0L159.0 27.9L159.7 27.9L160.5 29.1L160.4 30.1L159.8 29.7L159.5 30.2L159.6 29.2L158.9 29.2L159.3 30.7L158.0 31.7L162.4 31.4L162.5 30.3L157.8 25.9ZM157.9 26.0L157.9 25.9L157.8 25.9L157.8 26.0ZM157.8 25.8L157.8 25.8L157.8 25.8L157.8 25.9ZM143.4 22.6L143.4 22.5L143.3 22.6ZM143.4 22.5L143.4 22.4L143.3 22.5ZM143.4 22.4L143.3 22.4L143.4 22.4ZM144.0 22.3L144.0 22.2L144.0 22.2ZM145.0 21.5L145.0 21.5L145.0 21.5ZM145.6 21.3L145.6 21.3L145.6 21.3ZM147.9 21.3L147.9 21.3L147.8 21.2ZM148.4 21.2L148.4 21.1L148.3 21.1ZM148.5 21.1L148.4 21.1L148.5 21.2L148.5 21.1ZM148.6 21.0L148.6 21.0L148.6 21.0ZM149.3 20.8L148.4 21.2L149.3 20.8ZM151.1 20.7L151.1 20.7L151.1 20.7ZM151.0 20.7L151.0 20.6L151.0 20.6ZM149.6 20.5L149.6 20.5L149.6 20.5ZM150.8 20.1L150.1 21.1L151.2 20.6L150.9 20.2ZM152.1 19.3L152.1 19.3L152.1 19.4ZM150.2 18.2L149.4 20.8L150.4 18.2ZM164.6 41.1L163.4 37.1L163.0 32.8L158.0 31.8L159.0 30.4L157.1 28.5L157.8 27.2L156.7 25.9L154.2 26.8L154.2 27.5L153.4 25.9L152.3 26.1L152.9 25.8L152.0 24.8L150.3 24.5L150.3 23.3L150.8 23.6L150.3 24.0L150.9 23.7L151.7 24.5L152.5 24.0L152.0 24.5L153.1 25.1L153.4 24.4L152.7 24.2L155.2 22.7L156.4 22.7L155.6 23.3L156.6 23.2L156.0 23.7L156.9 24.1L157.3 22.9L155.1 20.8L156.4 18.9L153.4 18.6L152.9 17.6L153.5 16.7L151.5 17.2L150.5 19.0L151.9 17.4L151.5 19.0L152.8 18.0L153.7 19.1L154.5 18.8L154.7 21.5L154.1 21.4L154.3 20.4L153.3 20.1L152.9 19.0L152.6 19.7L152.7 18.6L152.1 19.8L151.4 19.0L150.3 19.2L151.7 20.4L150.4 21.3L151.6 22.2L150.2 22.3L150.2 23.3L148.9 21.1L146.6 22.8L146.3 21.9L145.2 22.4L145.5 21.8L145.0 21.7L142.3 23.7L142.2 22.3L142.3 22.3L142.3 22.2L144.1 22.1L145.2 21.3L147.9 21.3L143.7 20.9L143.3 20.3L141.3 23.6L138.6 26.0L133.9 26.3L132.4 27.4L132.1 28.1L133.0 27.2L133.1 27.2L133.2 27.4L133.2 27.6L132.0 28.5L131.3 30.9L129.9 29.8L129.0 30.2L129.1 29.3L128.2 28.8L125.1 29.8L125.8 30.7L124.8 30.4L123.3 32.0L123.4 33.6L125.5 34.7L125.3 36.5L124.2 36.7L124.2 37.8L122.0 38.8L121.6 40.4L122.8 40.3L124.3 41.5L125.2 40.7L126.0 41.0L127.1 43.0L128.3 43.7L128.2 44.5L130.6 45.0L130.7 44.9L130.6 44.7L130.6 44.5L132.3 44.6L132.4 43.3L133.2 42.6L134.4 43.1L136.9 42.1L137.9 40.3L140.0 40.6L142.4 42.5L144.9 42.4L146.0 43.6L148.3 43.4L148.0 43.9L148.8 44.0L150.4 42.5L151.3 43.1L152.1 42.0L153.3 42.6L154.6 41.2L154.9 39.8L156.8 38.3L157.9 38.3L157.6 37.0L159.0 39.4L162.6 39.3L161.1 42.3L163.0 42.3L164.4 41.1ZM108.6 71.3L107.8 71.3L107.8 69.6L108.8 67.4L107.3 67.6L106.7 65.5L105.6 65.3L105.3 62.7L103.8 62.6L103.4 61.5L104.1 61.7L104.5 60.8L103.2 60.0L104.7 58.3L105.1 56.3L104.2 56.0L102.0 58.0L100.3 57.9L99.7 55.4L98.1 55.7L97.0 57.0L95.8 56.7L95.9 57.7L97.3 58.5L97.3 61.1L98.2 61.7L96.9 63.0L95.3 62.6L94.5 63.7L92.1 64.3L91.0 63.5L92.4 62.9L92.5 61.9L91.2 61.3L91.6 59.6L91.8 59.5L92.2 59.5L92.2 59.4L91.6 58.4L89.1 57.8L87.9 56.4L87.6 58.2L84.4 60.2L80.9 60.9L79.4 62.8L79.0 62.9L78.4 62.8L77.5 64.3L79.2 65.5L78.0 66.8L77.5 66.5L75.1 67.6L74.2 67.2L74.3 68.1L71.1 66.7L71.7 67.8L70.5 67.4L69.2 68.1L69.7 68.9L69.3 69.7L71.1 71.2L70.8 72.1L72.2 73.7L72.3 75.8L70.6 79.0L70.6 79.7L70.7 79.9L71.6 79.5L71.8 79.6L71.4 79.8L71.8 80.1L69.3 82.3L68.3 82.0L68.6 83.4L70.1 83.3L70.0 84.1L70.8 84.4L70.6 85.7L69.5 86.6L70.2 88.0L71.1 87.9L71.9 89.4L72.8 89.4L72.0 91.4L72.3 92.0L73.7 92.2L73.6 94.1L74.4 95.1L74.4 93.9L74.9 94.9L76.6 94.0L77.7 94.9L78.8 94.4L78.2 92.4L78.8 92.1L79.5 92.8L80.3 90.9L82.7 90.1L83.4 89.3L83.5 89.7L84.8 89.5L85.3 88.0L88.4 87.1L88.5 86.2L89.7 85.7L89.4 84.4L90.0 84.0L90.7 84.3L90.4 85.1L92.1 85.9L92.8 88.4L93.8 88.6L94.2 87.7L93.7 86.8L95.4 85.1L96.4 85.5L97.5 84.5L98.4 82.6L98.1 81.4L100.4 81.0L101.0 79.2L100.5 78.0L99.2 78.5L98.6 78.0L99.3 76.9L100.2 76.2L102.9 76.0L102.4 74.3L103.8 73.6L104.6 74.1L104.7 75.0L106.0 74.7L107.8 72.3L107.4 71.9L108.5 71.3ZM72.5 90.5L71.8 91.2L72.4 90.7ZM72.6 89.7L71.7 89.4L72.4 89.7ZM78.7 36.0L77.0 36.3L78.2 37.0L77.9 36.5L78.9 36.1ZM81.9 34.7L79.4 35.1L82.2 34.7ZM85.0 34.0L82.6 34.3L85.0 34.1ZM85.9 34.0L85.1 33.9L85.9 34.0ZM87.5 33.4L86.3 34.0L88.1 33.4ZM89.3 32.9L88.6 33.4L90.2 33.0ZM91.0 32.7L90.8 32.7L90.6 32.8L92.1 33.0L91.3 32.7ZM129.1 44.8L128.2 44.5L128.3 43.7L125.3 40.7L124.3 41.5L122.8 40.3L121.4 40.5L119.0 39.3L116.9 39.9L115.5 38.7L114.7 39.5L113.8 39.5L113.7 38.8L113.3 39.3L112.3 37.0L109.8 35.9L106.9 31.5L101.6 32.1L99.9 31.0L98.7 31.8L97.8 34.5L97.8 35.2L97.9 35.4L98.2 36.1L99.7 36.2L99.7 37.8L97.9 38.5L98.5 37.3L95.6 36.0L94.9 37.7L95.8 37.6L95.9 37.8L95.9 38.5L95.9 38.8L95.2 39.8L93.2 38.7L93.0 38.3L93.0 38.1L93.0 37.9L94.3 37.3L92.4 34.2L84.4 34.8L82.1 36.6L82.5 37.4L81.4 37.2L81.2 40.8L84.1 41.1L83.2 41.3L83.5 46.9L82.0 49.7L82.1 49.9L81.9 50.4L81.7 53.4L78.2 53.4L78.4 54.9L77.5 55.0L77.7 55.6L77.7 56.2L80.4 57.1L81.0 56.6L81.9 58.3L81.4 59.8L81.8 60.6L84.4 60.2L87.6 58.2L87.9 56.4L88.8 56.8L89.1 57.8L91.1 58.1L92.2 59.4L92.2 59.5L91.8 59.5L91.6 59.6L91.2 61.3L92.5 61.9L92.4 62.9L91.0 63.5L92.1 64.3L94.5 63.7L95.3 62.6L96.9 63.0L98.2 61.7L97.3 61.1L97.3 58.5L95.9 57.7L95.7 56.8L97.0 57.0L98.1 55.7L99.7 55.4L100.3 57.9L102.0 58.0L104.7 56.0L105.0 57.8L103.2 60.0L104.5 60.8L104.1 61.7L103.4 61.5L103.7 62.5L105.3 62.7L105.6 65.3L106.7 65.5L107.3 67.6L108.8 67.4L107.8 71.3L110.7 71.5L111.3 72.4L110.2 73.6L110.9 75.4L109.8 76.5L111.9 77.6L112.3 76.9L111.9 77.2L111.5 76.4L112.6 75.6L113.4 76.3L113.2 75.5L113.8 75.4L114.1 76.2L115.4 75.1L116.6 75.2L117.2 74.2L118.7 73.6L119.1 72.4L122.3 72.9L122.1 71.8L122.8 71.4L121.4 68.4L122.2 65.7L121.2 64.9L122.6 64.1L125.8 64.0L125.5 63.1L126.6 62.6L126.3 61.4L127.1 60.9L126.0 58.8L127.0 58.2L125.4 56.7L126.3 56.0L125.4 54.8L125.9 53.8L125.3 54.0L123.9 52.1L123.5 49.9L125.5 49.6L126.2 48.6L129.5 49.2L131.8 48.1L131.7 47.7L131.9 47.0L131.9 46.9L132.9 46.4L131.2 45.6L130.0 46.0L129.2 44.9ZM99.3 43.5L99.3 43.5L99.2 43.5L99.2 43.4ZM98.0 42.9L102.1 44.6L103.0 44.3L103.4 46.2L102.7 46.8L100.6 46.4L99.3 44.0L97.8 42.9ZM138.6 95.2L139.5 95.1L141.2 97.8L141.2 96.6L143.2 93.8L145.4 93.8L146.7 92.7L148.1 93.7L149.1 91.8L150.9 91.9L151.5 90.3L152.3 90.5L152.9 89.2L153.9 90.1L154.6 88.3L158.3 87.9L158.9 86.7L164.3 84.8L164.4 84.1L162.9 83.2L163.4 82.0L164.6 82.6L165.7 82.2L166.7 83.2L166.3 84.4L167.3 84.2L166.9 85.5L169.0 86.2L171.7 78.6L170.7 74.5L168.3 73.5L167.8 72.2L167.6 73.1L166.4 72.5L163.7 73.9L161.5 73.2L160.3 74.4L160.0 76.3L159.5 75.8L157.3 76.5L154.8 76.3L153.2 74.8L151.1 75.9L150.5 72.3L148.7 70.9L148.0 71.5L146.9 70.6L144.3 72.0L140.2 72.8L139.1 74.6L139.6 80.4L140.3 81.2L143.0 81.8L144.8 84.4L140.2 86.2L140.7 86.8L140.0 87.7L141.0 89.0L139.1 89.6L138.7 90.3L139.2 90.6L137.8 91.1L137.5 89.5L136.0 91.2L137.0 92.2L136.2 93.0L137.2 94.6L138.5 95.1ZM97.1 108.4L96.4 106.5L97.7 105.2L97.0 105.0L95.4 100.7L94.4 100.3L91.1 101.4L89.8 99.9L90.7 98.6L91.5 99.1L91.3 97.3L92.2 96.6L92.7 97.1L92.7 96.1L93.7 95.9L93.0 94.2L91.9 93.5L92.3 91.5L92.8 90.9L93.7 91.3L94.0 90.3L93.8 88.6L92.8 88.4L92.0 87.0L92.0 85.8L90.4 85.1L90.6 84.2L89.4 84.4L89.7 85.7L88.5 86.2L88.7 86.9L87.7 87.6L85.3 88.0L84.8 89.5L83.5 89.7L83.4 89.3L82.7 90.1L80.3 90.9L79.5 92.8L78.8 92.1L78.2 92.4L78.8 94.5L77.0 94.7L76.6 94.0L74.9 94.9L74.1 94.0L74.6 95.1L73.2 95.2L71.8 96.7L71.3 101.0L73.4 103.8L75.8 104.4L74.1 109.0L76.6 109.6L81.4 107.4L83.5 108.7L84.1 108.4L84.5 110.4L83.9 111.1L85.6 112.7L84.4 115.2L85.1 116.1L86.6 115.9L87.0 117.2L88.2 117.9L91.6 117.9L93.9 119.3L95.5 119.1L96.7 114.7L97.8 113.6L97.4 113.1L98.1 111.1L97.3 110.8L97.1 108.5ZM127.1 21.1L127.2 21.2L127.2 21.1ZM100.6 20.6L100.4 20.6L100.5 20.7ZM98.1 19.5L98.2 19.5L98.1 19.5L98.1 19.5ZM127.1 19.5L126.3 21.1L129.7 21.8L128.8 19.9L127.2 19.5ZM100.3 19.0L99.0 19.9L100.3 20.0L100.3 19.0ZM98.6 18.7L98.1 18.7L98.7 18.7ZM101.0 17.6L101.0 17.6L100.9 17.6ZM99.7 17.5L98.3 17.7L99.6 17.5ZM96.2 16.6L95.6 17.0L96.6 18.1L96.2 16.7ZM98.7 15.5L97.2 15.6L96.8 16.4L98.7 16.8L98.9 15.7ZM96.4 13.4L96.4 13.4L96.4 13.4L96.5 13.4ZM118.4 39.2L121.5 40.5L122.0 38.8L124.2 37.8L124.2 36.7L125.3 36.5L125.5 34.7L123.4 33.6L123.3 31.7L124.8 30.4L125.8 30.6L123.4 28.1L127.2 25.5L127.0 22.9L127.6 22.0L125.4 22.2L122.8 23.5L118.5 21.2L117.4 21.6L116.8 22.8L117.1 20.8L117.0 20.8L116.7 20.5L116.4 20.3L113.2 20.8L115.2 19.1L115.3 16.6L113.9 14.6L113.1 15.4L110.3 13.1L107.5 14.6L103.0 12.8L97.2 13.3L96.3 11.6L97.3 10.8L96.8 10.2L97.6 10.2L96.8 10.1L95.7 12.7L95.6 13.3L95.5 15.5L96.2 13.2L97.0 13.8L99.1 13.1L100.1 15.9L102.4 18.3L101.4 20.6L102.4 20.7L103.4 19.6L103.8 20.3L102.2 21.7L99.9 21.8L100.1 22.6L99.1 22.9L99.9 24.0L101.8 24.0L101.5 25.9L103.4 27.9L101.4 28.6L102.6 30.4L107.2 31.7L109.8 35.9L111.5 36.9L112.2 35.7L112.9 36.5L113.8 35.3L117.1 33.9L116.5 34.8L117.4 35.6L116.6 37.3L118.3 39.2ZM132.9 46.4L131.9 46.9L131.9 47.0L131.7 47.7L131.8 48.1L129.7 49.2L126.2 48.6L125.5 49.6L123.5 49.9L123.9 52.1L125.3 54.0L125.9 53.8L125.4 54.8L126.3 56.0L125.4 56.7L127.0 58.2L126.0 58.8L127.1 60.9L126.3 61.4L126.6 62.6L125.5 63.1L125.8 64.0L122.6 64.1L121.2 64.9L122.2 65.7L121.4 68.9L122.7 71.4L125.3 71.8L124.8 72.5L126.1 75.4L130.6 76.1L131.5 77.6L130.3 79.0L131.4 79.5L131.4 80.9L133.7 81.0L134.7 82.2L136.2 81.9L137.6 83.5L139.5 83.4L139.8 84.1L140.7 82.4L139.4 79.7L139.1 74.7L139.6 73.4L146.9 70.6L149.0 71.5L150.8 70.1L150.4 67.3L149.1 67.3L148.3 66.1L147.0 66.1L145.0 64.7L143.5 65.2L140.5 63.1L139.9 61.9L140.8 60.9L140.2 60.5L141.1 56.0L139.0 55.5L139.4 53.7L140.1 53.7L140.1 49.5L135.6 48.6L135.7 47.9L134.0 47.4L133.2 46.3ZM140.7 60.9L140.5 60.9L140.6 60.9ZM136.5 93.3L136.2 93.0L137.0 92.2L136.0 91.2L137.2 89.8L137.7 89.7L138.0 91.0L139.2 90.6L138.7 90.3L139.2 89.6L141.0 89.0L140.0 87.7L140.7 86.8L140.2 86.2L144.8 84.4L142.6 81.4L140.6 81.3L139.8 84.1L139.5 83.4L137.6 83.5L136.2 81.9L134.7 82.2L133.7 81.0L131.6 81.1L131.4 79.5L130.3 79.0L131.5 77.6L130.6 76.1L126.1 75.4L124.8 72.5L125.4 72.1L123.5 71.3L122.1 71.8L122.3 72.9L119.1 72.4L118.3 74.1L114.1 76.2L114.6 77.8L117.5 79.6L117.1 80.9L116.8 80.2L116.2 80.4L117.2 82.8L115.3 82.7L115.6 84.0L114.3 84.0L115.6 85.0L114.3 86.2L113.5 89.5L115.5 88.9L115.3 91.6L116.2 90.8L118.6 92.0L119.3 93.9L121.6 94.9L121.8 96.9L123.0 97.2L123.1 96.4L124.4 96.6L122.9 94.6L124.7 93.8L126.0 94.7L127.5 94.3L127.8 95.8L129.0 96.1L128.9 92.3L130.1 91.6L131.0 91.7L130.9 93.0L132.0 94.2L136.4 93.4ZM74.1 109.0L73.9 110.5L76.0 111.3L78.1 116.0L79.2 116.2L79.2 115.1L80.2 114.9L81.5 115.5L81.7 116.9L82.2 116.1L83.3 116.8L85.1 116.3L84.3 114.6L85.4 113.6L85.6 112.3L83.9 111.1L84.5 110.4L84.1 108.4L83.5 108.7L81.4 107.4L76.6 109.6L74.2 109.1Z" fill="#cfc6b5" fill-rule="evenodd" stroke="#fffaf0" stroke-linejoin="round" stroke-width=".8"/><path d="M78.7 36.0L77.0 36.3L78.2 37.0L77.9 36.5L78.9 36.1ZM81.9 34.7L79.4 35.1L82.2 34.7ZM85.0 34.0L82.6 34.3L85.0 34.1ZM85.9 34.0L85.1 33.9L85.9 34.0ZM87.5 33.4L86.3 34.0L88.1 33.4ZM89.3 32.9L88.6 33.4L90.2 33.0ZM91.0 32.7L90.8 32.7L90.6 32.8L92.1 33.0L91.3 32.7ZM129.1 44.8L128.2 44.5L128.3 43.7L125.3 40.7L124.3 41.5L122.8 40.3L121.4 40.5L119.0 39.3L116.9 39.9L115.5 38.7L114.7 39.5L113.8 39.5L113.7 38.8L113.3 39.3L112.3 37.0L109.8 35.9L106.9 31.5L101.6 32.1L99.9 31.0L98.7 31.8L97.8 34.5L97.8 35.2L97.9 35.4L98.2 36.1L99.7 36.2L99.7 37.8L97.9 38.5L98.5 37.3L95.6 36.0L94.9 37.7L95.8 37.6L95.9 37.8L95.9 38.5L95.9 38.8L95.2 39.8L93.2 38.7L93.0 38.3L93.0 38.1L93.0 37.9L94.3 37.3L92.4 34.2L84.4 34.8L82.1 36.6L82.5 37.4L81.4 37.2L81.2 40.8L84.1 41.1L83.2 41.3L83.5 46.9L82.0 49.7L82.1 49.9L81.9 50.4L81.7 53.4L78.2 53.4L78.4 54.9L77.5 55.0L77.7 55.6L77.7 56.2L80.4 57.1L81.0 56.6L81.9 58.3L81.4 59.8L81.8 60.6L84.4 60.2L87.6 58.2L87.9 56.4L88.8 56.8L89.1 57.8L91.1 58.1L92.2 59.4L92.2 59.5L91.8 59.5L91.6 59.6L91.2 61.3L92.5 61.9L92.4 62.9L91.0 63.5L92.1 64.3L94.5 63.7L95.3 62.6L96.9 63.0L98.2 61.7L97.3 61.1L97.3 58.5L95.9 57.7L95.7 56.8L97.0 57.0L98.1 55.7L99.7 55.4L100.3 57.9L102.0 58.0L104.7 56.0L105.0 57.8L103.2 60.0L104.5 60.8L104.1 61.7L103.4 61.5L103.7 62.5L105.3 62.7L105.6 65.3L106.7 65.5L107.3 67.6L108.8 67.4L107.8 71.3L110.7 71.5L111.3 72.4L110.2 73.6L110.9 75.4L109.8 76.5L111.9 77.6L112.3 76.9L111.9 77.2L111.5 76.4L112.6 75.6L113.4 76.3L113.2 75.5L113.8 75.4L114.1 76.2L115.4 75.1L116.6 75.2L117.2 74.2L118.7 73.6L119.1 72.4L122.3 72.9L122.1 71.8L122.8 71.4L121.4 68.4L122.2 65.7L121.2 64.9L122.6 64.1L125.8 64.0L125.5 63.1L126.6 62.6L126.3 61.4L127.1 60.9L126.0 58.8L127.0 58.2L125.4 56.7L126.3 56.0L125.4 54.8L125.9 53.8L125.3 54.0L123.9 52.1L123.5 49.9L125.5 49.6L126.2 48.6L129.5 49.2L131.8 48.1L131.7 47.7L131.9 47.0L131.9 46.9L132.9 46.4L131.2 45.6L130.0 46.0L129.2 44.9ZM99.3 43.5L99.3 43.5L99.2 43.5L99.2 43.4ZM98.0 42.9L102.1 44.6L103.0 44.3L103.4 46.2L102.7 46.8L100.6 46.4L99.3 44.0L97.8 42.9Z" fill="#ed7659" fill-rule="evenodd" stroke="#173748" stroke-linejoin="round" stroke-width="1.3"/></svg>