<svg xmlns="http://www.w3.org/2000/svg" viewBox="0 0 240 160"><title>Lage von Rīga in Lettland</title><rect width="240" height="160" rx="16" fill="#f4eddf"/><path d="M140.4 13.1L140.9 13.2L141.4 13.7L141.7 14.0L142.0 15.1L142.2 15.4L145.1 16.8L144.7 17.8L144.6 18.9L143.6 19.0L142.8 19.2L142.7 18.1L142.3 17.8L141.5 18.9L140.8 19.9L140.3 20.7L140.6 22.1L143.9 23.8L144.7 25.8L145.0 27.5L146.1 27.5L146.2 29.0L143.8 29.1L141.9 29.4L140.6 29.6L140.5 28.7L139.8 28.4L140.0 27.3L139.9 25.5L139.0 24.4L138.8 23.5L138.3 22.6L137.4 22.0L136.4 21.2L136.1 20.0L136.5 19.7L136.4 18.6L135.5 18.3L135.2 17.1L135.5 15.9L135.7 14.8L135.2 13.6L136.6 13.5L137.4 14.0L137.8 15.2L138.1 16.6L138.5 17.8L138.9 18.1L139.4 18.1L140.4 17.6L141.0 16.9L140.8 16.0L139.9 14.5L140.0 13.5ZM133.4 14.6L133.8 14.2L134.5 13.8L135.2 13.6L135.5 18.3L136.4 18.6L136.5 19.7L136.1 20.0L136.4 21.2L137.4 22.0L138.3 22.6L138.8 23.5L139.0 24.4L139.9 25.5L140.0 27.3L139.8 28.4L139.1 28.1L137.1 26.6L136.7 26.0L135.8 26.3L136.1 26.9L136.4 28.0L136.2 28.5L133.4 27.6L132.9 28.6L132.6 28.3L131.3 28.0L130.9 28.4L130.7 27.4L129.4 27.0L128.9 23.5L127.6 22.8L127.1 18.4L127.1 18.3L131.6 16.4ZM126.8 18.6L127.1 18.3L127.1 18.4L127.6 22.8L128.9 23.5L129.4 27.0L130.7 27.4L130.9 28.4L131.3 28.0L132.6 28.3L132.9 28.6L134.7 30.2L134.9 31.0L135.4 32.0L134.7 33.2L135.2 36.6L134.4 36.5L134.2 36.6L134.9 37.9L134.4 38.1L134.2 38.2L132.9 37.4L130.4 38.9L128.8 38.1L129.1 36.6L127.2 35.8L127.0 34.0L127.2 32.9L126.3 32.1L124.7 32.2L123.5 31.2L123.0 30.6L121.7 30.0L120.1 24.5L119.4 23.9L119.9 23.2L119.9 21.7L119.7 20.3L120.9 20.4L122.8 20.2L123.3 19.9L123.8 18.3L124.3 17.7L125.2 18.0L126.0 18.5ZM149.1 20.1L150.6 22.2L151.3 22.3L152.1 22.2L153.7 21.7L152.6 22.1L152.4 23.3L152.3 24.0L152.2 24.9L151.0 24.7L150.0 23.8L148.2 24.6L147.6 24.6L146.6 24.3L146.5 25.1L149.4 28.0L149.2 28.4L149.1 28.8L147.4 29.0L146.2 29.0L146.1 27.5L145.0 27.5L144.7 25.8L143.9 23.8L140.6 22.1L140.3 20.7L140.8 19.9L141.5 18.9L142.3 17.8L142.7 18.1L142.8 19.2L143.6 19.0L144.6 18.9L144.7 17.8L145.1 16.8L149.1 19.8ZM118.8 20.2L119.7 20.3L119.9 21.7L119.9 23.2L119.4 23.9L120.1 24.5L121.7 30.0L120.2 31.0L120.5 33.1L119.1 33.0L119.0 34.6L119.1 35.4L118.4 35.8L117.7 35.1L114.7 35.6L115.2 41.3L116.0 41.5L116.5 41.3L117.1 42.0L116.9 42.6L118.8 42.8L118.1 43.9L118.7 45.6L119.2 46.5L119.6 47.0L119.0 47.7L117.5 48.0L117.2 49.1L116.8 49.7L115.6 50.2L114.0 50.6L112.9 42.3L113.0 40.8L113.4 38.8L113.0 35.5L112.9 34.8L111.5 32.6L111.1 31.5L110.8 25.9L111.0 25.2L111.3 24.6L112.6 25.2L113.5 25.1L114.2 24.7L114.5 24.2L115.0 22.8L115.4 22.4L116.6 21.8L118.2 20.4ZM175.8 41.6L177.9 44.2L178.3 44.1L178.8 43.7L179.2 43.5L179.5 43.6L180.0 44.0L180.3 44.1L182.9 41.5L184.0 41.1L186.3 41.3L186.9 41.1L187.2 42.1L187.2 44.0L187.2 44.9L185.7 44.9L184.6 45.6L184.4 47.0L184.1 49.3L183.6 49.7L182.3 49.7L181.4 49.5L180.7 51.1L177.1 50.3L177.3 51.3L177.3 51.6L177.1 52.0L174.7 53.4L175.8 53.6L175.8 54.0L175.6 54.4L173.6 54.9L171.1 54.5L172.4 49.3L171.6 48.3L172.6 46.9L172.1 46.8L172.2 45.1L173.7 44.4L173.7 44.2L173.1 43.0L173.4 40.6ZM154.1 21.6L156.4 25.3L162.8 25.9L163.1 26.0L163.5 29.8L166.8 32.6L167.8 33.7L170.7 38.4L171.7 39.6L173.0 40.5L173.4 40.6L173.1 43.0L173.7 44.4L172.2 45.1L171.9 43.5L171.3 43.7L170.2 43.8L170.0 42.7L168.3 42.4L167.4 42.4L166.4 41.2L159.6 43.4L159.3 42.3L159.8 41.2L159.7 40.1L159.0 39.3L160.7 39.1L161.5 38.4L162.1 36.8L162.4 35.5L158.4 34.9L158.4 33.8L157.5 33.6L158.1 31.1L154.7 32.3L153.3 31.9L152.4 31.2L151.1 30.7L150.5 29.9L149.5 29.4L149.1 28.8L149.2 28.4L149.4 28.0L149.2 27.5L146.5 25.1L146.6 24.3L147.6 24.6L148.2 24.6L150.0 23.8L151.0 24.7L152.2 24.9L152.3 24.0L152.4 23.3L152.6 22.1L153.7 21.7ZM189.2 38.0L192.5 39.0L195.6 42.3L198.1 42.5L202.8 44.2L203.8 43.5L209.1 43.5L208.6 48.9L209.3 49.8L212.5 51.2L214.1 53.0L214.0 54.4L213.7 54.7L211.3 56.3L210.9 57.1L210.4 57.5L209.9 58.5L207.8 57.6L207.0 57.6L205.4 58.2L203.8 57.0L202.9 57.4L201.4 59.1L197.8 60.3L194.8 59.0L194.4 58.9L195.1 57.9L194.9 57.7L193.7 56.9L192.7 55.9L190.2 56.0L189.0 56.2L188.5 55.3L185.8 55.0L185.4 55.1L184.4 55.8L181.9 53.4L181.5 52.7L180.7 51.1L181.4 49.5L182.3 49.7L183.6 49.7L184.1 49.3L184.4 47.0L184.6 45.6L185.7 44.9L187.2 44.9L187.2 44.0L187.2 42.1L186.9 41.1L188.6 38.3ZM214.1 53.0L214.5 53.5L217.6 55.4L218.2 55.9L218.6 56.7L218.7 58.0L218.6 61.1L218.4 62.8L218.1 64.0L217.2 64.9L214.3 66.2L213.8 67.1L214.2 68.1L215.0 68.5L215.7 69.1L215.8 70.5L215.7 71.1L214.0 71.6L212.4 71.8L212.2 70.7L211.0 70.4L209.8 70.7L209.5 68.5L208.7 68.4L206.9 66.5L205.3 64.0L206.0 61.1L206.6 59.3L207.8 57.6L209.9 58.5L210.4 57.5L210.9 57.1L211.3 56.3L214.0 54.4ZM215.7 71.1L212.4 81.9L210.1 80.0L206.6 81.0L206.3 79.3L205.7 78.3L206.5 77.5L208.1 77.6L209.4 76.5L208.8 75.4L211.6 73.7L213.2 73.5L212.4 71.8L214.0 71.6ZM212.6 81.6L213.1 81.8L215.6 80.3L216.9 80.0L218.3 80.4L218.9 80.9L220.1 82.3L220.8 82.8L220.9 83.6L220.4 84.9L219.6 86.2L219.3 87.1L218.7 87.1L218.0 88.0L218.0 90.1L217.4 91.4L216.2 90.0L212.6 90.3L211.0 92.0L210.7 94.0L209.8 93.0L209.5 92.6L209.0 92.2L207.5 91.8L207.8 89.9L207.4 87.2L206.9 85.5L205.3 84.8L203.4 84.9L203.6 83.1L206.0 81.1L210.1 80.0L212.4 81.9ZM219.3 87.1L219.8 88.1L222.8 90.2L223.7 95.7L224.3 96.3L226.7 97.5L227.2 98.0L226.2 100.5L225.0 99.6L223.1 99.3L221.7 100.5L220.9 101.6L219.9 100.7L219.3 99.0L217.7 97.7L216.6 98.3L216.0 99.5L215.1 98.7L214.0 96.9L213.0 96.9L211.4 96.4L210.1 96.4L210.1 95.1L210.7 94.0L211.0 92.0L212.6 90.3L216.2 90.0L217.4 91.4L218.0 90.1L218.0 88.0L218.7 87.1ZM226.2 100.5L228.5 104.7L222.8 104.3L223.1 105.9L223.8 107.1L223.1 107.5L222.0 107.4L220.8 108.7L219.7 110.0L218.6 110.5L219.3 112.5L220.9 112.5L221.3 111.2L223.5 110.0L224.7 111.0L226.3 111.8L227.1 113.1L226.1 115.1L225.5 116.8L225.4 117.1L224.6 116.4L220.8 118.2L220.3 118.2L220.0 118.0L218.9 118.3L215.0 116.9L214.4 116.2L213.9 115.9L213.3 115.0L213.8 114.6L214.1 114.5L214.3 114.2L213.9 113.0L214.8 111.8L214.0 108.3L213.4 107.7L212.5 107.3L211.9 106.6L212.0 106.1L211.9 105.8L211.9 105.0L211.0 104.9L209.7 101.8L208.5 102.8L207.8 99.8L210.3 98.3L210.5 97.4L210.1 96.4L211.4 96.4L213.0 96.9L214.0 96.9L215.1 98.7L216.0 99.5L216.6 98.3L217.7 97.7L219.3 99.0L219.9 100.7L220.9 101.6L221.7 100.5L223.1 99.3L225.0 99.6ZM228.5 104.7L228.4 106.6L228.5 107.8L229.9 114.2L227.9 120.5L226.8 119.7L225.5 120.2L225.0 120.6L225.0 120.5L224.8 120.0L224.7 119.6L227.1 113.1L226.3 111.8L224.7 111.0L223.5 110.0L221.3 111.2L220.9 112.5L219.3 112.5L218.6 110.5L219.7 110.0L220.8 108.7L222.0 107.4L223.1 107.5L223.8 107.1L223.1 105.9L222.8 104.3L224.1 104.1L225.5 104.9L227.0 104.9ZM142.9 119.5L135.7 118.2L134.6 117.4L131.5 111.7L131.2 110.6L130.4 107.3L129.6 104.9L129.1 104.0L128.4 103.8L129.9 101.3L132.8 100.8L133.2 102.8L133.9 102.6L134.6 106.0L136.4 105.4L141.3 105.7L141.3 109.7L143.6 110.2L141.8 112.4L144.6 115.5L144.4 117.1L144.7 118.2L144.8 118.5L143.0 119.5ZM146.2 120.1L142.9 119.5L144.8 118.5L144.7 118.2L144.4 117.1L144.6 115.5L141.8 112.4L143.6 110.2L141.3 109.7L141.3 105.0L142.4 105.0L144.3 105.6L146.2 105.4L150.4 102.4L152.9 108.0L154.4 107.9L154.6 108.9L154.7 110.1L154.6 111.7L153.0 112.1L153.4 115.7L153.4 116.8L152.8 118.2L152.1 120.4L150.3 120.5L149.7 120.4L148.2 119.7ZM128.4 103.8L127.7 105.9L127.4 105.9L126.8 105.7L126.5 105.7L123.7 106.9L122.6 107.4L121.4 108.4L119.4 111.2L118.1 110.5L116.6 111.2L116.2 110.0L116.9 109.3L117.4 108.3L115.7 108.0L115.6 107.2L117.6 106.3L118.1 105.6L117.6 103.1L116.4 101.5L115.3 102.0L115.0 100.9L114.2 100.1L113.6 99.0L113.8 97.7L112.6 97.0L111.8 97.1L111.4 94.4L113.2 94.0L112.8 91.6L117.8 88.7L118.9 89.1L120.2 89.1L121.2 90.8L119.9 91.7L120.0 92.7L120.2 93.9L123.2 96.2L121.9 98.2L124.2 98.1L130.8 96.2L131.0 97.8L132.2 97.8L132.8 100.8L129.9 101.3L129.7 102.1L129.3 102.8L128.6 103.1ZM47.8 106.7L44.2 105.2L40.8 106.8L40.8 106.8L40.7 106.7L39.7 105.2L41.2 104.0L39.9 101.3L40.0 101.0L40.3 100.2L43.0 100.1L41.6 97.5L45.1 96.0L44.4 91.0L47.0 87.5L46.2 84.2L47.5 84.2L48.3 83.4L48.9 82.7L51.7 81.3L51.7 80.4L51.3 79.8L51.0 79.5L49.3 78.7L50.5 77.3L53.2 79.2L55.1 77.4L56.2 77.3L56.8 77.4L57.3 77.7L54.7 85.5L55.3 87.5L56.1 88.2L56.4 90.4L56.5 92.9L57.6 93.9L58.0 96.2L58.7 96.8L59.7 95.1L61.2 94.8L62.4 95.7L62.9 97.0L62.6 101.0L63.8 102.0L63.9 102.4L64.0 103.1L63.9 103.4L63.7 103.7L63.4 104.8L67.4 106.3L66.3 107.1L62.0 108.9L61.5 109.0L61.0 108.8L59.7 107.3L58.9 106.9L58.8 106.8L56.8 106.4ZM25.7 113.6L23.7 115.2L23.2 115.4L21.8 115.4L20.9 115.9L19.8 116.9L18.7 118.1L16.7 123.7L15.5 124.0L13.7 124.0L12.6 124.3L10.1 114.0L12.0 113.6L12.6 119.0L13.5 119.1L13.5 117.7L13.6 115.7L14.3 116.2L15.9 113.7L16.4 112.4L16.5 110.4L16.4 108.6L17.8 108.8L18.9 110.3L22.5 110.1L24.7 111.6ZM33.3 110.4L31.7 111.2L29.0 111.3L27.9 111.9L25.7 113.6L24.7 111.6L22.5 110.1L23.6 108.7L24.2 105.8L22.7 102.6L22.6 101.1L21.7 100.4L23.3 99.5L23.1 97.4L24.1 98.1L25.3 99.5L25.6 100.0L27.0 99.8L26.1 97.7L27.0 96.6L28.3 97.2L28.7 97.8L31.0 97.2L32.6 97.8L32.4 100.3L33.2 100.7L33.2 102.1L31.6 102.6L31.7 104.3L31.2 105.2L32.3 106.4L32.9 107.2L33.7 107.2L33.7 107.9L33.0 108.6ZM40.3 107.1L33.3 110.4L33.0 108.6L33.7 107.9L33.7 107.2L32.9 107.2L32.3 106.4L31.2 105.2L31.7 104.3L31.6 102.6L33.2 102.1L33.2 100.7L32.4 100.3L32.6 97.8L33.8 97.1L35.1 96.5L35.0 97.6L35.5 98.5L35.8 98.9L36.2 99.3L38.4 99.4L38.9 100.2L40.0 99.8L39.9 102.2L41.0 103.6L41.2 104.0L39.7 105.2L40.7 106.7L40.8 106.8L40.8 106.8ZM73.5 111.5L72.2 110.4L71.1 107.6L70.3 106.0L69.4 105.5L68.3 105.7L67.4 106.3L63.4 104.8L63.7 103.7L63.9 103.4L64.0 103.1L63.9 102.4L63.8 102.0L62.6 101.0L62.9 97.0L65.5 96.8L66.3 97.2L66.6 98.4L67.1 98.5L67.5 97.7L68.5 96.9L69.5 96.8L69.4 95.7L70.5 95.0L71.1 96.3L72.3 95.6L72.9 96.3L73.7 97.8L74.3 98.1L74.3 99.3L74.4 101.7L75.4 102.2L75.6 103.6L76.2 104.3L75.2 105.6L76.3 106.7L76.9 108.5L76.3 108.9L76.6 109.4L75.1 111.1ZM119.4 111.2L115.6 113.9L114.6 113.6L112.7 112.2L111.7 111.8L110.7 112.0L107.1 113.9L104.3 113.3L101.4 111.0L102.3 110.5L103.1 110.0L103.2 108.9L104.2 108.2L104.1 107.1L104.8 107.1L105.9 107.9L106.7 106.9L105.5 106.1L104.0 105.3L103.1 104.7L103.1 103.5L102.9 101.8L102.5 100.5L103.0 100.5L103.3 100.4L104.5 99.1L104.4 98.6L109.1 100.5L109.6 99.6L111.1 98.7L112.5 98.6L113.6 99.0L114.2 100.1L115.0 100.9L115.3 102.0L116.4 101.5L117.6 103.1L118.1 105.6L117.6 106.3L115.6 107.2L115.7 108.0L117.4 108.3L116.9 109.3L116.2 110.0L116.6 111.2L118.1 110.5ZM83.1 108.7L81.1 107.8L80.4 107.7L76.9 108.5L76.3 106.7L75.2 105.6L76.2 104.3L76.9 103.3L78.2 103.1L80.0 103.1L81.1 102.8L80.4 102.3L80.0 101.1L81.2 99.9L82.5 98.1L83.3 98.1L83.6 99.6L84.3 101.0L84.7 101.9L84.2 102.9L85.7 105.8L85.7 106.3L85.5 106.6L85.3 106.9L83.1 108.7ZM87.4 110.1L86.3 110.0L83.1 108.7L85.7 106.3L84.2 102.9L84.7 101.9L84.3 101.0L84.9 100.6L85.2 100.3L85.6 98.9L84.8 96.7L86.2 95.1L84.0 94.7L86.4 91.7L86.2 90.3L85.7 89.9L85.1 89.7L84.3 89.1L87.6 86.0L87.0 83.5L86.4 83.1L85.7 79.3L87.0 78.7L89.5 78.9L89.9 79.0L90.7 79.0L92.0 79.8L95.0 83.9L94.7 85.5L94.8 85.7L94.6 87.0L92.9 87.4L92.9 88.3L92.0 88.6L92.4 89.6L93.2 89.1L93.8 90.0L92.4 90.9L91.2 90.7L90.4 91.2L90.8 92.3L92.2 93.4L92.0 95.0L93.1 95.5L94.1 94.6L95.3 94.1L95.0 93.0L95.7 92.4L96.8 93.5L97.9 94.2L99.3 94.6L101.8 100.5L98.2 102.7L97.8 103.5L97.4 104.0L97.2 104.3L97.0 106.8L98.2 106.7L98.3 107.0L98.1 109.9L93.7 110.1L93.1 108.7L92.3 108.8L90.2 108.7L89.2 109.0ZM101.4 111.0L98.1 109.9L98.3 107.0L98.2 106.7L97.0 106.8L97.2 104.3L97.4 104.0L97.8 103.5L98.2 102.7L101.8 100.5L102.5 100.5L102.9 101.8L103.1 103.5L103.1 104.7L104.0 105.3L105.5 106.1L106.7 106.9L105.9 107.9L104.8 107.1L104.1 107.1L104.2 108.2L103.2 108.9L103.1 110.0L102.3 110.5ZM156.5 126.1L155.6 125.1L153.9 123.9L153.5 123.5L152.1 120.4L152.8 118.2L153.4 116.8L153.4 115.7L155.3 115.6L156.7 115.3L157.8 115.8L159.0 116.1L159.6 117.2L159.8 118.9L161.1 119.6L162.0 120.1L162.0 121.2L162.3 122.2L163.1 122.4L163.5 124.0L162.9 123.5L160.9 124.9L160.5 124.4L160.2 123.9L157.6 121.6L158.4 123.8L156.5 126.1ZM161.5 130.7L158.8 128.8L156.5 126.1L158.4 123.8L157.6 121.6L160.2 123.9L160.5 124.4L160.9 124.9L162.9 123.5L163.5 124.0L163.8 124.6L164.1 124.7L167.3 122.3L167.4 121.8L167.3 121.7L166.9 121.1L169.0 119.3L172.2 120.0L174.6 129.6L174.0 130.9L173.0 130.3L172.4 131.1L171.6 131.7L171.4 132.6L171.9 133.0L172.4 133.5L171.1 135.0L172.9 137.3L173.3 138.9L171.6 139.1L170.5 139.2L169.6 139.7L168.9 138.0L168.1 136.7L165.1 134.0L163.2 131.9ZM180.7 146.9L179.0 146.7L177.3 146.2L173.1 144.1L171.2 142.6L169.6 139.7L170.5 139.2L171.6 139.1L173.3 138.9L172.9 137.3L171.1 135.0L172.4 133.5L171.9 133.0L171.4 132.6L171.6 131.7L172.4 131.1L173.0 130.3L174.0 130.9L174.6 129.6L172.9 120.1L172.7 119.3L171.8 118.2L172.9 117.8L174.3 117.4L175.3 118.2L176.5 118.4L177.4 119.1L178.1 121.0L179.1 120.9L179.2 120.5L179.6 119.7L181.7 121.6L182.4 120.9L183.6 121.4L184.0 121.8L184.5 122.2L189.7 121.2L189.7 122.5L191.0 125.1L192.1 125.0L191.6 126.1L192.1 127.9L191.0 128.2L191.3 130.2L191.5 130.6L191.7 131.1L191.1 135.4L192.4 135.9L192.4 138.0L187.7 144.7L185.3 146.0L184.6 146.0L182.9 145.4L182.1 145.3L181.4 145.7ZM178.4 138.0L178.9 137.7L179.6 137.4L180.4 137.2L181.9 134.1L181.3 133.7L181.4 132.6L181.3 131.4L181.2 130.7L180.8 130.5L179.1 132.4L177.0 132.1L176.0 133.1L176.3 133.6L177.4 134.3L177.5 135.7L177.6 136.5L178.0 137.2ZM225.0 120.6L221.2 122.3L219.8 124.8L217.7 126.5L216.8 127.5L216.6 128.8L216.1 129.7L215.1 128.6L213.7 127.9L212.9 127.2L212.5 127.5L212.6 129.1L211.8 128.9L210.4 128.5L207.0 126.3L205.6 126.3L204.8 127.2L204.2 127.1L204.4 125.2L204.3 123.9L202.6 123.9L201.1 124.3L200.4 122.2L202.4 121.5L203.3 120.6L203.1 119.4L202.2 118.3L202.0 117.1L206.6 116.7L206.4 116.0L206.6 115.6L207.2 115.4L207.9 115.3L208.5 115.0L208.9 114.6L209.1 114.1L209.3 113.9L209.7 114.6L209.8 114.7L210.3 114.9L212.8 114.5L215.0 116.9L218.5 118.2L220.8 118.2L224.9 116.5L225.8 117.4L225.0 120.5ZM216.1 129.7L215.6 130.6L212.6 132.7L211.0 139.8L210.2 139.9L206.4 139.5L205.4 139.2L204.4 138.7L203.7 137.7L203.0 138.5L201.6 139.9L201.0 140.2L200.2 139.7L198.3 138.1L197.7 137.7L196.4 137.5L192.5 138.0L192.4 138.0L192.4 135.9L191.1 135.4L191.7 131.1L191.5 130.6L191.3 130.2L191.0 128.2L192.1 127.9L193.1 128.9L194.3 129.4L196.2 129.1L197.5 129.2L198.9 127.8L198.8 125.3L201.1 124.3L202.6 123.9L204.3 123.9L204.4 125.2L204.2 127.1L204.8 127.2L205.6 126.3L207.0 126.3L210.4 128.5L211.8 128.9L212.6 129.1L212.5 127.5L212.9 127.2L213.7 127.9L215.1 128.6ZM10.1 114.0L10.1 106.8L11.1 103.6L12.0 102.1L11.9 105.7L12.6 106.7L12.8 106.9L13.1 106.8L12.9 100.9L14.8 100.7L15.4 104.5L17.4 104.3L17.8 108.8L16.4 108.6L16.5 110.4L16.4 112.4L15.9 113.7L14.3 116.2L13.6 115.7L13.5 117.7L13.5 119.1L12.6 119.0L12.0 113.6ZM11.1 103.6L11.1 99.5L11.7 100.0L11.9 100.6L12.0 102.1L11.7 102.2L11.6 103.0L11.5 103.5ZM12.6 100.0L10.7 97.9L11.6 94.2L13.0 94.7L13.3 97.1L13.8 96.8L14.1 98.8L13.2 99.3ZM12.9 100.9L12.7 100.4L12.6 100.0L13.2 99.3L14.1 98.8L13.8 96.8L13.3 97.1L13.0 94.7L11.6 94.2L12.4 91.9L12.7 92.6L14.7 93.1L15.6 90.5L17.4 92.5L18.8 91.9L19.5 94.4L18.7 95.7L18.7 98.9L21.5 98.2L21.7 100.4L22.6 101.1L22.7 102.6L24.2 105.8L23.6 108.7L22.5 110.1L18.9 110.3L17.8 108.8L17.4 104.3L15.4 104.5L14.8 100.7ZM12.4 91.9L12.9 81.4L15.4 79.7L15.7 79.2L17.7 78.0L20.9 74.3L21.0 74.3L22.0 74.7L23.3 77.1L24.5 77.7L25.9 78.2L25.3 79.1L25.2 79.6L24.2 80.2L24.3 81.7L23.4 82.2L21.4 82.8L20.7 83.5L20.8 86.2L20.5 87.3L19.8 86.3L18.9 87.3L19.2 89.1L19.7 90.5L18.8 91.9L17.4 92.5L15.6 90.5L14.7 93.1L12.7 92.6ZM20.9 74.3L21.9 73.4L22.6 72.3L23.1 70.8L23.5 68.8L23.5 66.5L23.5 65.9L23.1 64.4L23.7 56.8L26.5 51.8L27.0 52.9L27.4 53.9L28.1 53.8L28.9 52.8L30.0 53.1L29.8 51.2L31.4 50.6L30.4 47.5L30.2 46.9L29.8 46.6L32.2 42.0L33.1 41.0L34.4 40.3L40.0 39.9L41.3 39.5L47.2 36.3L48.8 39.5L49.6 44.7L47.5 46.0L47.1 46.4L46.6 46.6L45.5 48.5L43.7 49.3L45.9 50.4L47.0 50.5L48.7 50.2L49.2 50.7L49.7 51.3L49.9 51.7L50.7 56.8L47.2 61.0L47.1 65.9L46.5 66.4L44.2 67.2L43.6 67.2L41.8 66.5L41.2 66.9L39.8 67.4L39.4 67.4L37.1 67.3L36.7 67.4L36.4 67.7L35.9 68.1L34.7 68.1L34.9 67.5L34.9 67.3L34.9 67.1L34.2 66.9L32.5 66.4L30.4 66.5L27.3 68.9L26.3 68.6L24.5 75.6L23.0 76.0L22.6 75.3L22.0 74.7L21.0 74.3ZM26.5 51.8L26.7 51.3L28.8 48.5L29.8 46.6L30.2 46.9L30.4 47.5L31.4 50.6L29.8 51.2L30.0 53.1L28.9 52.8L28.1 53.8L27.4 53.9L27.0 52.9ZM47.2 36.3L56.0 31.6L59.8 30.9L59.1 35.9L58.5 35.4L58.6 38.6L59.8 40.7L59.9 42.8L60.3 44.9L57.9 45.2L56.6 47.2L55.8 49.9L54.2 49.5L52.9 50.0L51.9 50.0L51.2 48.7L49.9 49.1L49.2 50.7L43.7 49.3L45.5 48.5L46.6 46.6L47.1 46.4L47.5 46.0L49.6 44.7L48.8 39.5L47.6 38.0ZM59.1 35.9L59.2 37.0L59.5 37.8L61.2 40.3L68.0 46.1L70.1 48.8L71.5 50.0L70.1 50.5L69.6 51.9L68.5 52.0L67.0 51.3L66.3 50.1L63.8 47.3L62.7 48.6L61.9 47.5L62.4 46.1L60.3 44.9L59.9 42.8L59.8 40.7L58.6 38.6L58.5 35.4ZM71.5 50.0L72.6 50.9L71.9 52.4L70.7 53.3L69.2 54.3L70.3 56.3L72.2 56.7L73.3 57.1L73.5 58.5L74.1 59.6L72.9 61.2L71.0 62.5L70.7 62.6L69.0 65.2L66.5 65.1L65.8 65.3L65.6 65.5L65.4 65.8L64.4 66.6L61.6 67.4L60.8 67.6L61.0 70.5L60.6 72.0L59.3 71.6L58.3 72.4L52.9 71.7L51.9 66.7L51.2 66.2L50.3 65.7L49.3 64.8L47.0 61.8L50.7 56.8L49.2 50.7L49.9 49.1L51.2 48.7L51.9 50.0L52.9 50.0L54.2 49.5L55.8 49.9L56.6 47.2L57.9 45.2L60.3 44.9L62.4 46.1L61.9 47.5L62.7 48.6L63.8 47.3L66.3 50.1L67.0 51.3L68.5 52.0L69.6 51.9L70.1 50.5ZM72.6 50.9L74.2 51.8L75.2 52.1L75.6 52.2L76.5 55.1L75.5 55.5L75.3 55.9L75.1 56.5L75.1 58.1L74.1 59.6L73.5 58.5L73.3 57.1L72.2 56.7L70.3 56.3L69.2 54.3L70.7 53.3L71.9 52.4ZM76.5 55.1L79.6 67.3L80.0 67.7L80.5 67.9L82.0 69.6L84.5 70.6L87.1 71.1L87.5 71.4L88.9 73.6L89.2 73.8L89.1 73.9L86.8 75.0L86.1 76.4L85.1 76.9L83.0 77.8L80.1 77.5L77.7 76.7L76.2 77.2L76.0 76.4L77.0 75.3L77.6 74.6L76.8 73.6L77.0 72.2L78.1 70.7L78.7 69.2L77.9 67.0L76.2 66.0L75.1 65.2L74.7 64.2L75.3 63.3L75.7 61.2L75.6 59.3L75.1 58.1L75.1 56.5L75.3 55.9L75.5 55.5ZM89.2 73.8L89.4 74.0L90.8 74.5L92.8 74.7L97.9 73.4L99.8 72.5L99.8 72.5L100.0 73.0L100.6 73.3L100.1 74.3L99.1 74.9L97.9 75.3L96.0 75.6L95.3 75.2L94.9 76.0L93.1 76.6L89.6 77.1L88.3 77.0L86.6 76.5L86.1 76.4L86.8 75.0L89.1 73.9ZM99.8 72.5L100.6 72.1L101.7 71.1L102.3 70.3L102.7 69.6L103.1 69.0L104.3 68.7L105.4 67.9L106.6 69.8L110.7 72.8L111.2 73.3L111.7 74.6L109.1 76.7L109.2 78.2L109.9 79.9L108.0 79.4L106.7 78.3L104.2 79.9L102.8 77.3L102.1 77.1L101.1 76.5L100.3 76.2L102.0 74.0L99.8 72.5ZM105.4 67.9L108.4 66.0L112.0 61.7L112.6 62.6L112.4 63.8L112.3 65.7L111.7 66.6L110.1 67.3L109.8 68.7L109.5 69.5L109.0 68.8L106.9 69.9L106.6 69.8ZM112.0 61.7L113.5 60.1L114.2 58.5L114.4 56.3L114.3 53.7L114.3 53.5L115.0 54.6L115.0 56.7L115.7 56.4L116.0 56.5L116.5 57.8L116.8 59.6L115.5 59.8L113.3 62.7L112.6 62.6ZM114.3 53.5L114.0 50.6L115.6 50.2L116.8 49.7L117.2 49.1L117.5 48.0L119.0 47.7L119.6 47.0L119.2 46.5L118.7 45.6L118.1 43.9L118.8 42.8L116.9 42.6L117.1 42.0L116.5 41.3L116.0 41.5L115.2 41.3L114.7 35.6L117.7 35.1L118.4 35.8L119.1 35.4L119.0 34.6L119.1 33.0L120.5 33.1L120.2 31.0L121.7 30.0L123.0 30.6L123.5 31.2L124.7 32.2L126.3 32.1L127.2 32.9L127.0 34.0L127.2 35.8L129.1 36.6L128.8 38.1L128.7 40.5L129.2 41.3L129.8 42.0L130.3 41.9L131.9 41.5L132.5 41.6L133.0 42.0L133.8 43.1L133.8 44.3L135.0 44.9L128.6 49.9L127.7 49.9L126.7 49.6L126.3 49.7L126.3 50.0L127.2 50.9L124.8 50.8L124.7 50.0L122.9 51.2L123.3 53.4L122.8 54.6L121.3 55.1L121.7 56.1L122.8 56.9L123.4 59.4L123.6 60.2L122.7 60.5L121.5 59.7L118.7 55.3L115.0 56.7L115.0 54.6L114.9 54.3L114.5 53.7L114.3 53.5ZM172.2 45.1L172.1 46.8L172.6 46.9L171.6 48.3L172.4 49.3L171.9 52.0L171.4 52.5L171.1 52.6L170.7 57.2L166.7 57.5L165.8 57.4L165.0 57.6L164.5 58.1L162.5 56.7L155.0 57.6L155.2 54.1L152.3 47.0L152.9 46.6L153.0 46.2L154.2 45.3L155.9 45.1L157.7 45.4L159.6 45.8L160.7 46.4L161.5 45.3L161.5 44.2L161.0 43.4L162.0 42.3L164.2 41.8L165.6 41.8L166.4 41.2L167.4 42.4L168.3 42.4L170.0 42.7L170.2 43.8L171.3 43.7L171.9 43.5ZM203.8 57.0L205.4 58.2L207.0 57.6L207.8 57.6L206.6 59.3L206.0 61.1L205.3 64.0L206.9 66.5L208.7 68.4L209.5 68.5L209.8 70.7L211.0 70.4L212.2 70.7L212.4 71.8L213.2 73.5L211.6 73.7L208.8 75.4L209.4 76.5L208.1 77.6L206.5 77.5L205.7 78.3L206.3 79.3L206.6 81.0L204.7 82.8L203.8 82.7L203.6 84.8L203.4 84.9L200.4 84.5L198.7 84.3L197.9 83.3L194.8 83.9L192.0 83.4L190.9 82.2L192.6 79.6L194.2 79.3L195.6 79.8L198.1 80.5L199.1 80.5L199.9 78.6L201.1 77.5L201.9 76.9L203.1 76.4L202.6 74.0L201.8 74.3L201.0 74.3L200.8 73.2L201.8 72.8L202.6 71.4L202.9 69.4L196.6 68.1L196.0 67.8L196.0 66.5L194.6 66.6L193.3 66.5L197.8 60.3L201.4 59.1L202.9 57.4ZM154.5 41.2L153.4 38.7L152.5 38.5L151.5 38.4L150.3 38.7L149.7 38.4L148.5 37.9L147.8 37.0L148.4 36.2L150.6 35.7L150.6 34.1L150.9 33.5L151.2 32.9L152.7 32.8L153.3 31.9L154.7 32.3L158.1 31.1L157.5 33.6L158.4 33.8L158.4 34.9L162.4 35.5L162.1 36.8L161.5 38.4L160.7 39.1L159.0 39.3L159.7 40.1L159.8 41.2L159.3 42.3L159.6 43.4L161.0 43.4L161.5 44.2L161.5 45.3L160.7 46.4L159.6 45.8L157.7 45.4L155.9 45.1L157.3 43.7L156.9 43.0L156.0 43.4L154.9 43.2L154.6 42.5L155.8 42.4L156.1 42.1L155.2 41.2ZM151.5 38.4L152.5 38.5L153.4 38.7L153.8 39.4L154.3 40.1L153.9 40.8L154.5 41.2L155.2 41.2L156.1 42.1L155.8 42.4L154.6 42.5L154.9 43.2L156.0 43.4L156.9 43.0L157.3 43.7L155.9 45.1L154.2 45.3L153.0 46.2L152.9 46.6L152.3 47.0L150.6 46.8L149.4 47.8L149.0 48.3L147.5 47.8L146.8 48.3L145.1 48.0L144.5 48.3L144.3 47.0L143.8 46.0L143.8 44.6L144.4 44.6L145.5 44.7L146.1 44.2L146.2 43.0L150.3 38.7ZM149.1 28.8L153.3 31.9L152.7 32.8L151.2 32.9L150.9 33.5L150.6 34.1L150.6 35.7L148.4 36.2L147.8 37.0L148.5 37.9L149.7 38.4L150.3 38.7L146.2 43.0L145.7 42.0L144.8 42.0L143.8 42.3L143.0 41.4L141.9 40.3L140.8 39.9L138.1 35.4L137.1 36.0L136.1 36.6L135.2 36.6L134.7 33.2L135.4 32.0L134.9 31.0L134.7 30.2L132.9 28.6L133.4 27.6L136.2 28.5L136.4 28.0L136.1 26.9L135.8 26.3L136.7 26.0L140.5 28.7L140.6 29.6L147.4 29.0ZM129.8 42.0L129.2 41.3L128.7 40.5L128.8 38.1L130.4 38.9L132.9 37.4L134.2 38.2L134.4 38.1L134.9 37.9L134.4 36.5L135.2 36.6L136.1 36.6L137.1 36.0L138.1 35.4L140.8 39.9L141.9 40.3L143.0 41.4L143.8 42.3L144.6 48.7L144.3 51.1L144.1 51.4L143.2 51.5L142.2 50.3L138.8 49.7L136.6 47.2L136.6 46.5L136.1 45.4L135.3 45.7L134.8 44.5L134.4 44.4L134.0 44.4L133.8 44.3L133.0 42.0L132.5 41.6L131.9 41.5L130.3 41.9ZM190.9 82.2L192.0 83.4L192.6 83.6L197.9 83.3L198.7 84.3L200.4 84.5L203.4 84.9L205.3 84.8L206.9 85.5L207.4 87.2L207.8 89.9L207.6 90.6L207.3 90.9L207.4 91.5L210.7 94.0L210.1 95.1L210.1 96.4L210.5 97.4L210.3 98.3L207.8 99.8L208.1 101.8L208.5 102.8L209.7 101.8L211.0 104.9L211.9 105.0L211.9 105.8L212.0 106.1L211.9 106.6L212.5 107.3L213.4 107.7L214.0 108.3L214.8 111.8L213.9 113.0L214.1 114.5L210.3 114.9L209.8 114.7L209.7 114.6L209.3 113.9L209.1 114.1L208.9 114.6L208.5 115.0L207.9 115.3L207.2 115.4L206.6 115.6L206.4 116.0L206.6 116.7L198.0 116.7L197.6 116.8L196.9 117.5L196.2 117.9L196.1 118.9L194.2 118.4L193.9 116.4L191.4 111.5L191.4 111.0L191.6 110.6L192.3 110.6L192.8 110.0L192.0 108.4L191.6 107.7L189.9 105.5L190.8 103.5L192.8 103.3L194.1 103.5L194.3 102.5L193.3 99.3L193.2 97.2L192.5 95.4L190.5 95.0L189.5 93.0L188.6 91.8L187.2 91.4L186.2 90.6L186.5 89.1L190.2 82.9ZM203.3 102.0L204.1 97.5L203.4 97.2L202.5 97.6L201.4 99.7L201.7 101.2ZM155.0 57.6L155.2 57.4L155.7 57.4L155.4 58.7L155.2 59.3L155.0 61.0L155.8 61.8L155.5 63.4L155.9 64.3L156.8 65.3L157.8 66.1L158.5 66.1L159.1 67.4L160.4 67.4L159.5 71.4L160.3 73.8L160.2 74.2L159.3 74.8L154.4 72.9L153.8 73.2L153.5 73.6L151.5 74.9L151.7 73.1L151.6 73.1L150.6 73.7L150.0 73.8L149.5 73.8L148.1 73.1L147.7 73.1L147.8 72.4L147.3 71.3L147.7 70.8L148.4 71.7L149.0 71.7L150.2 70.0L151.1 69.2L151.1 68.4L150.4 66.7L149.5 66.6L148.8 66.0L149.5 64.7L149.7 63.3L149.8 61.5L149.4 60.5L149.8 59.7L150.5 59.1L150.6 58.1L151.7 58.1L152.7 57.6L153.9 58.0ZM152.3 47.0L155.2 54.1L155.0 57.6L150.6 58.1L147.9 52.8L148.9 51.9L149.8 51.7L150.6 51.9L150.7 50.8L151.4 50.3L152.1 48.4ZM162.5 56.7L163.1 56.9L163.6 57.2L164.0 57.3L164.5 58.1L164.5 58.9L164.2 59.0L163.1 59.0L163.0 59.1L162.8 59.3L163.1 60.6L162.4 61.3L161.0 62.2L159.5 62.6L158.7 62.6L158.1 62.0L157.2 61.3L156.6 61.3L155.8 61.8L155.0 61.0L155.2 59.3L155.4 58.7L155.7 57.4L160.0 56.9ZM150.6 46.8L152.3 47.0L150.6 51.9L149.8 51.7L148.9 51.9L147.9 52.8L149.2 55.9L149.9 56.4L150.5 57.0L150.6 58.1L150.5 59.1L148.2 61.3L146.5 57.4L145.3 56.7L144.3 56.0L143.4 56.4L142.4 56.7L141.8 56.4L142.2 55.7L139.4 54.5L139.8 53.5L141.0 52.8L142.0 53.1L143.2 53.0L143.8 52.3L144.5 48.3L145.1 48.0L146.8 48.3L147.5 47.8L147.8 48.0L148.1 48.3L148.3 48.5L149.0 48.3L149.4 47.8ZM134.8 45.1L135.3 45.7L136.1 45.4L136.6 46.5L136.6 47.2L138.8 49.7L144.1 51.4L143.8 52.3L143.2 53.0L142.0 53.1L141.0 52.8L139.8 53.5L139.4 54.5L139.4 56.4L139.4 57.0L138.6 58.1L137.4 58.2L136.3 58.0L135.1 59.1L133.8 59.4L131.8 59.6L130.3 59.2L130.5 58.5L130.6 58.0L130.4 57.4L129.8 56.8L129.3 56.0L129.0 55.7L129.4 54.6L126.3 49.7L126.7 49.6L127.7 49.9L128.6 49.9L134.2 45.2ZM127.2 50.9L129.4 54.6L129.0 55.7L129.3 56.0L129.8 56.8L130.4 57.4L130.6 58.0L130.5 58.5L130.3 59.2L130.0 59.7L129.3 60.7L128.8 61.8L128.2 62.3L127.0 62.7L126.4 63.6L126.2 64.9L125.7 65.3L125.5 64.6L124.4 64.6L123.3 65.2L122.2 65.9L122.5 64.6L122.5 63.4L122.0 62.9L120.8 63.0L120.7 61.5L122.0 61.2L122.7 60.5L123.6 60.2L123.4 59.4L122.8 56.9L121.7 56.1L121.3 55.1L122.8 54.6L123.3 53.4L122.9 51.2L124.7 50.0L124.8 50.8ZM166.7 57.5L170.7 57.2L171.1 54.5L173.6 54.9L175.6 54.4L175.8 54.0L175.8 53.6L175.6 53.6L175.2 53.8L175.0 53.8L174.8 53.2L177.1 52.0L177.3 51.6L177.3 51.3L177.1 50.3L178.5 50.3L180.7 51.1L181.5 52.7L181.9 53.4L184.4 55.8L185.4 55.1L185.8 55.0L188.5 55.3L189.0 56.2L190.2 56.0L192.7 55.9L193.7 56.9L194.9 57.7L195.1 57.9L194.4 58.9L194.8 59.0L197.8 60.3L191.6 69.2L190.9 70.1L190.1 70.7L188.8 71.8L189.1 72.5L189.1 72.7L188.8 73.8L186.9 73.4L186.4 73.3L185.7 73.2L179.9 75.7L179.7 74.0L179.2 72.3L178.9 71.4L178.3 70.4L177.8 69.7L176.7 69.4L173.9 70.4L172.7 68.8L172.5 67.4L166.2 68.5L167.8 64.9L166.7 63.3L165.8 61.7L165.4 61.2L165.0 60.9L164.6 60.8L163.1 60.6L162.8 59.3L164.5 58.9L164.5 58.1L165.0 57.6L165.8 57.4ZM188.8 73.8L189.1 72.7L189.1 72.5L188.8 71.8L190.1 70.7L190.9 70.1L191.6 69.2L192.4 67.5L192.9 67.0L193.3 66.5L194.6 66.6L196.0 66.5L196.0 67.8L196.6 68.1L202.9 69.4L202.6 71.4L201.8 72.8L200.8 73.2L201.0 74.3L201.8 74.3L202.6 74.0L203.1 76.4L201.9 76.9L201.1 77.5L199.9 78.6L199.1 80.5L198.1 80.5L195.6 79.8L194.2 79.3L192.6 79.6L192.2 78.9L191.9 77.7L191.7 77.2L190.7 76.6L190.4 76.2L190.4 74.3L190.1 74.1L189.4 74.0L189.1 74.2ZM163.1 60.6L164.6 60.8L165.0 60.9L165.4 61.2L165.8 61.7L166.7 63.3L167.8 64.9L166.2 68.5L165.4 68.1L165.0 67.9L164.7 67.9L163.9 68.6L163.4 68.4L161.2 67.3L160.4 67.4L159.1 67.4L155.5 63.4L155.8 61.8L156.6 61.3L157.2 61.3L158.1 62.0L158.7 62.6L159.5 62.6L161.0 62.2L162.4 61.3ZM194.2 118.4L196.1 118.9L196.2 117.9L196.9 117.5L197.6 116.8L198.0 116.7L198.3 116.8L202.0 117.1L202.2 118.3L203.1 119.4L203.3 120.6L202.4 121.5L200.4 122.2L201.1 124.3L198.8 125.3L198.9 127.8L197.5 129.2L196.2 129.1L194.3 129.4L193.1 128.9L192.1 127.9L191.6 126.1L192.1 125.0L191.0 125.1L189.7 122.5L189.7 121.2L190.9 121.5L191.1 120.8L190.6 120.3L191.0 119.6L192.1 119.0L193.0 118.9ZM190.8 103.5L189.9 105.5L191.6 107.7L192.0 108.4L192.8 110.0L192.3 110.6L191.6 110.6L191.4 111.0L191.4 111.5L193.9 116.4L194.2 118.4L193.0 118.9L192.1 119.0L191.0 119.6L190.6 120.3L191.1 120.8L190.9 121.5L189.7 121.2L189.5 119.9L188.9 119.4L187.8 118.6L187.0 118.1L188.0 117.3L188.2 116.5L187.4 114.3L186.5 112.7L182.5 109.7L183.0 107.9L184.3 107.1L185.0 106.4L183.5 104.5L181.6 103.4L180.6 103.6L180.2 104.3L179.7 104.0L179.0 103.6L179.0 102.5L179.1 101.2L179.7 101.4L180.8 101.2L181.8 98.2L184.1 98.0L184.6 98.2L185.3 97.3L186.1 97.5L187.5 98.4L187.8 99.3L186.2 99.9L187.0 100.2L187.2 100.7L191.6 101.9L191.8 102.8L191.5 102.9L191.0 103.1ZM188.0 100.9L186.2 99.9L187.8 99.3L187.5 98.4L186.1 97.5L185.3 97.3L184.8 96.3L186.8 94.5L186.2 90.6L187.2 91.4L188.6 91.8L189.5 93.0L190.5 95.0L192.5 95.4L194.1 103.5L192.8 103.3L190.8 103.5L191.0 103.1L191.5 102.9L191.8 102.8L191.6 101.9L188.4 100.9ZM100.6 73.3L101.0 73.5L101.8 73.7L102.0 74.0L101.8 74.3L101.7 74.8L96.6 79.3L97.3 81.3L97.6 82.5L96.7 83.8L95.4 82.8L95.0 83.9L93.9 82.7L93.5 81.9L93.1 81.1L92.0 79.8L90.7 79.0L89.9 79.0L89.5 78.9L87.0 78.7L86.6 76.5L88.3 77.0L89.6 77.1L90.3 76.6L91.0 76.8L92.1 76.8L93.1 76.6L94.9 76.0L95.3 75.2L96.0 75.6L97.9 75.3L99.1 74.9L100.1 74.3ZM111.7 74.6L111.2 73.3L110.7 72.8L106.9 69.9L109.0 68.8L109.5 69.5L109.9 70.5L110.8 71.1L111.7 71.3L113.0 69.7L114.4 69.4L115.9 68.8L117.2 67.6L117.4 67.0L117.6 68.4L118.7 68.2L119.2 69.5L118.6 69.5L117.8 69.9L118.1 72.7L115.7 72.7L114.2 73.1L114.0 74.6L113.3 75.9L112.7 75.2ZM106.7 78.3L108.0 79.4L107.4 80.2L107.8 81.1L108.6 82.4L109.9 82.6L111.4 82.6L112.4 81.1L116.4 82.2L117.3 82.9L117.6 83.0L117.9 84.2L118.3 85.2L118.3 85.6L118.2 86.2L118.0 86.6L111.0 84.6L109.7 84.8L110.0 86.1L110.2 86.9L109.7 87.3L108.9 86.6L107.9 87.2L107.7 88.5L106.4 87.9L103.1 88.3L102.3 88.9L102.2 86.1L103.1 85.8L104.6 86.1L104.7 85.1L105.5 83.9L105.7 82.8L105.1 82.0L104.8 81.4L104.7 79.7L106.0 78.5ZM100.3 76.2L101.1 76.5L102.1 77.1L102.8 77.3L103.2 77.8L103.9 78.5L104.0 79.2L103.1 80.2L102.4 81.1L101.0 81.2L98.5 81.6L97.6 82.5L97.3 81.3L96.6 79.3L97.7 78.5L99.0 77.6L99.5 76.8ZM104.0 79.2L105.7 82.8L105.5 83.9L104.7 85.1L104.6 86.1L103.1 85.8L102.2 86.1L102.1 87.4L101.9 87.8L100.2 87.9L99.0 87.0L96.0 87.9L95.4 87.7L94.9 87.4L94.6 87.0L95.4 82.8L96.7 83.8L97.6 82.5L98.5 81.6L101.0 81.2L102.4 81.1L103.1 80.2ZM109.0 89.5L108.4 89.9L107.9 90.0L107.6 89.9L106.5 91.3L102.0 89.7L102.3 88.9L103.1 88.3L106.4 87.9L107.7 88.5L108.2 88.7ZM109.9 79.9L109.2 78.2L109.1 76.7L111.0 77.2L111.9 77.5L112.2 78.6L112.7 77.8L114.3 76.9L115.0 77.0L115.9 79.1L115.4 79.1L115.2 79.3L115.5 81.9L114.8 81.7L113.7 81.6L112.4 81.1L111.4 82.6L109.9 82.6L108.6 82.4L107.8 81.1L107.4 80.2L108.0 79.4ZM109.1 76.7L111.7 74.6L112.7 75.2L113.3 75.9L114.3 76.9L112.7 77.8L112.2 78.6L111.9 77.5L111.0 77.2ZM118.7 55.3L122.7 60.5L122.0 61.2L120.7 61.5L120.8 63.0L122.0 62.9L122.5 63.4L122.5 64.6L122.2 65.9L120.8 65.5L119.3 65.2L118.8 66.0L117.4 67.0L116.2 62.7L114.9 62.8L114.0 62.9L113.3 62.7L115.5 59.8L116.8 59.6L116.5 57.8L116.0 56.5L116.3 56.5ZM131.9 68.4L132.0 69.5L136.8 73.4L136.5 73.9L136.7 75.6L127.5 76.9L126.5 76.5L126.8 74.7L126.8 73.4L127.7 73.7L129.0 72.2L128.7 70.7L129.0 69.7L128.3 67.7L128.7 67.0L129.3 68.0L130.4 68.3ZM136.8 73.4L132.0 69.5L131.9 68.4L130.4 68.3L129.3 68.0L128.7 67.0L129.0 72.2L127.7 73.7L126.8 73.4L125.5 72.9L124.1 73.4L122.3 72.1L121.1 69.5L121.7 68.7L122.6 69.5L123.5 69.4L125.0 68.5L124.7 67.3L126.4 63.6L129.3 60.7L130.4 61.3L131.4 62.6L132.0 65.9L133.2 66.2L134.4 66.5L135.8 66.7L136.5 67.9L137.5 69.1L136.4 70.0L136.9 71.0L137.5 72.0L137.4 72.9ZM191.6 81.4L186.5 89.1L186.2 90.6L185.3 89.7L184.3 89.1L184.2 88.2L183.4 88.3L182.4 88.6L181.7 89.3L181.1 90.0L180.2 90.0L179.0 90.7L174.5 90.7L174.1 93.1L173.4 94.5L173.1 94.8L171.5 95.8L171.3 94.7L171.2 94.4L170.7 94.1L169.5 94.5L168.7 93.5L168.9 93.1L168.5 92.7L167.9 92.6L167.5 92.3L166.7 92.1L165.5 92.6L164.5 93.4L163.9 93.6L163.4 93.4L162.8 92.8L162.2 91.4L160.6 93.0L160.1 91.5L160.8 90.5L159.9 89.7L157.7 88.8L157.9 84.5L155.6 82.4L155.3 81.1L155.1 80.2L155.7 79.5L155.9 78.9L161.1 78.0L161.3 77.0L161.0 76.6L160.3 76.0L159.3 74.8L160.2 74.2L160.3 73.8L160.4 73.2L159.5 71.4L159.9 69.0L160.4 67.4L161.2 67.3L163.4 68.4L163.9 68.6L164.7 67.9L168.3 68.3L167.9 75.4L168.2 75.4L168.8 75.5L169.5 76.8L170.1 76.7L170.8 76.7L171.4 76.1L172.6 76.7L173.6 76.7L173.4 75.7L174.1 75.3L174.6 74.5L175.0 73.4L174.4 72.6L174.1 71.1L173.9 70.4L176.7 69.4L177.8 69.7L178.3 70.4L178.9 71.4L179.2 72.3L179.7 74.0L179.9 75.7L177.1 80.9L179.0 83.9L179.7 83.4L180.2 83.7L181.2 82.9L184.3 78.2L184.8 78.9L187.0 78.7L188.1 78.4L188.8 78.4L189.5 79.2L189.6 79.9L190.3 79.9L191.0 80.3ZM192.6 79.6L192.6 80.0L192.5 80.3L191.6 81.4L191.0 80.3L190.3 79.9L189.6 79.9L189.5 79.2L188.8 78.4L188.1 78.4L187.0 78.7L184.8 78.9L184.3 78.2L181.2 82.9L180.2 83.7L179.7 83.4L179.0 83.9L177.1 80.9L179.9 75.7L185.7 73.2L190.4 74.3L190.4 76.2L190.7 76.6L191.7 77.2L191.9 77.7L192.2 78.9ZM186.2 90.6L186.8 94.5L186.6 94.7L185.5 95.3L185.1 95.8L184.8 96.3L185.3 97.3L184.6 98.2L180.8 98.0L180.5 97.8L180.4 97.1L180.7 95.3L178.6 95.1L177.4 94.7L174.9 93.2L174.1 93.1L174.5 90.7L179.0 90.7L180.2 90.0L181.1 90.0L181.7 89.3L182.4 88.6L183.4 88.3L184.2 88.2L184.3 89.1L185.3 89.7ZM147.6 73.1L145.9 73.3L145.9 73.8L146.0 74.1L146.1 74.5L145.3 75.7L144.4 76.3L143.7 76.1L142.8 74.1L142.3 74.1L141.0 74.8L140.0 76.5L139.5 76.5L136.7 75.6L136.5 73.9L136.8 73.4L137.4 72.9L137.5 72.0L136.9 71.0L136.4 70.0L137.5 69.1L136.5 67.9L135.8 66.7L136.5 66.7L137.6 66.3L138.3 65.4L138.8 64.7L137.2 60.2L136.6 59.9L135.5 59.9L135.1 59.1L136.3 58.0L137.4 58.2L138.6 58.1L139.4 57.0L139.4 56.4L141.1 57.3L142.0 58.5L142.0 60.0L143.3 60.0L143.6 60.7L143.4 61.4L143.9 62.4L144.8 62.5L145.8 63.3L146.3 64.1L149.5 64.7L148.8 66.0L149.5 66.6L150.4 66.7L151.1 68.4L151.1 69.2L150.2 70.0L149.0 71.7L148.4 71.7L147.7 70.8L147.3 71.3L147.8 72.4L147.7 73.1ZM147.2 73.1L150.0 73.8L150.6 73.7L151.6 73.1L151.7 73.1L151.5 74.9L153.5 73.6L153.8 73.2L154.4 72.9L155.3 73.2L155.7 73.8L156.0 73.9L156.3 73.9L156.5 73.7L157.1 73.6L161.0 76.6L161.3 77.0L161.1 78.0L155.9 78.9L155.7 79.5L155.1 80.2L155.3 81.1L155.6 82.4L155.0 82.5L154.8 82.9L154.5 84.9L153.4 85.6L152.7 84.6L147.7 83.2L147.0 80.2L149.2 79.8L148.0 78.5L148.5 76.6L147.3 73.9ZM172.5 67.4L175.0 73.4L174.6 74.5L174.1 75.3L173.4 75.7L173.6 76.7L172.6 76.7L171.4 76.1L170.8 76.7L170.1 76.7L169.5 76.8L168.8 75.5L168.2 75.4L167.9 75.4L168.3 68.3L169.2 67.9L170.9 68.0ZM146.6 73.5L146.7 73.4L147.2 73.1L147.3 73.9L147.8 74.4L148.5 76.6L148.0 78.5L149.2 79.8L147.0 80.2L147.7 83.2L145.6 85.3L140.5 87.0L140.2 87.5L141.3 88.2L141.4 88.4L141.4 88.6L141.3 88.8L140.8 89.7L137.0 89.0L133.6 84.5L132.5 84.3L131.4 84.0L130.6 83.4L130.0 83.9L128.9 83.2L127.6 82.4L126.8 82.1L126.5 83.5L125.6 83.9L125.8 85.0L125.1 86.3L124.0 87.5L119.8 83.3L120.7 82.6L122.2 81.0L123.3 81.8L124.4 80.3L123.3 79.8L123.0 78.6L126.5 76.5L127.5 76.9L128.6 77.2L129.0 77.1L129.9 76.5L130.5 76.2L133.5 76.5L136.7 75.6L139.5 76.5L140.0 76.5L141.0 74.8L142.3 74.1L142.8 74.1L143.7 76.1L144.4 76.3L145.3 75.7L146.1 74.5L146.0 74.1L145.9 73.8L145.9 73.3ZM126.5 76.5L125.1 77.6L124.4 77.9L123.7 78.6L123.0 78.6L119.4 79.1L117.8 78.4L117.2 80.0L115.9 79.1L115.0 77.0L114.3 76.9L113.3 75.9L114.0 74.6L114.2 73.1L115.7 72.7L118.1 72.7L117.8 69.9L118.6 69.5L119.2 69.5L119.6 69.6L121.1 69.5L122.3 72.1L124.1 73.4L125.5 72.9L126.8 73.4L126.8 74.7ZM117.6 83.0L115.5 81.9L115.4 79.1L117.2 80.0L117.8 78.4L119.4 79.1L123.0 78.6L123.3 79.8L124.4 80.3L123.3 81.8L122.2 81.0L120.7 82.6L119.8 83.3L119.2 83.0L118.0 83.2ZM118.0 86.6L117.8 88.7L113.4 91.7L107.7 88.5L107.9 87.2L108.9 86.6L109.7 87.3L110.2 86.9L110.0 86.1L109.7 84.8L111.0 84.6L112.5 84.7L114.6 85.3L116.2 86.0ZM117.8 88.7L118.3 85.2L117.9 84.2L117.6 83.0L118.0 83.2L119.2 83.0L119.8 83.3L124.0 87.5L125.1 86.3L125.8 85.0L125.6 83.9L126.5 83.5L126.8 82.1L127.6 82.4L128.9 83.2L130.0 83.9L126.3 88.7L128.4 89.8L128.7 90.5L129.5 92.4L129.9 92.8L132.1 93.9L133.1 93.7L133.2 93.9L132.9 94.6L133.9 94.4L134.1 95.0L133.6 95.6L131.4 96.1L130.8 96.2L124.2 98.1L121.9 98.2L123.2 96.2L120.2 93.9L120.0 92.7L119.9 91.7L121.2 90.8L120.2 89.1L118.9 89.1ZM109.5 89.3L112.8 91.6L113.2 94.0L111.4 94.4L111.8 97.1L112.6 97.0L113.8 97.7L113.6 99.0L112.5 98.6L111.1 98.7L109.6 99.6L109.1 100.5L104.4 98.6L104.7 97.8L105.2 97.1L105.3 96.4L102.8 94.9L103.7 94.0L102.2 91.5L103.3 91.7L103.0 90.2L106.5 91.3L107.6 89.9L107.9 90.0L108.4 89.9L109.0 89.5ZM155.6 82.4L157.9 84.5L157.7 88.8L159.9 89.7L160.8 90.5L160.1 91.5L160.6 93.0L159.2 93.7L157.6 94.3L156.3 94.5L155.3 94.4L154.9 94.1L150.6 96.2L149.9 96.4L149.6 96.3L147.8 96.2L147.3 95.7L147.5 94.9L147.4 94.4L148.1 94.3L148.5 92.7L150.0 90.8L149.6 88.9L151.0 88.6L151.0 87.4L150.4 86.6L150.6 85.9L151.4 86.0L152.3 86.5L153.4 85.6L154.5 84.9L155.0 82.5ZM147.7 83.2L152.7 84.6L153.4 85.6L152.3 86.5L151.4 86.0L150.6 85.9L150.4 86.6L151.0 87.4L151.0 88.6L149.6 88.9L150.0 90.8L148.5 92.7L148.1 94.3L147.4 94.4L147.1 94.3L146.5 94.3L145.2 93.5L144.4 93.3L143.5 94.3L142.4 95.2L141.3 95.5L141.3 93.3L141.3 90.8L140.8 89.7L141.3 88.8L141.4 88.6L141.4 88.4L141.3 88.2L140.2 87.5L140.5 87.0L141.3 86.5L142.2 86.3L143.2 86.5L143.1 86.2L143.1 86.0L145.6 85.3ZM139.0 89.0L140.8 89.7L141.3 90.8L141.3 93.3L141.3 95.5L139.5 95.9L138.9 95.7L138.1 95.0L137.3 94.3L136.6 94.0L137.8 92.8L137.9 91.7L137.5 90.6L137.7 89.3L138.4 89.6L138.9 89.2ZM135.3 87.4L136.9 88.7L137.0 89.0L137.7 89.3L137.5 90.6L137.9 91.7L137.8 92.8L136.6 94.0L132.9 94.6L132.9 90.5L134.0 89.4L133.2 88.0ZM135.3 87.4L133.2 88.0L134.0 89.4L132.9 90.5L133.1 93.7L132.1 93.9L129.9 92.8L129.5 92.4L128.7 90.5L128.4 89.8L126.3 88.7L126.9 87.9L127.7 87.4L127.9 86.0L130.6 83.4L131.4 84.0L132.5 84.3L133.6 84.5L134.2 85.6L134.6 86.5ZM130.8 96.2L131.4 96.1L133.6 95.6L134.1 95.0L133.9 94.4L134.8 93.9L135.9 93.7L139.5 95.9L141.3 95.5L142.4 95.2L143.5 94.3L144.4 93.3L145.2 93.5L146.5 94.3L147.1 94.3L147.4 94.4L147.5 94.9L147.3 95.7L147.8 96.2L150.8 96.8L149.3 100.0L149.5 100.7L150.0 101.3L150.4 102.4L146.2 105.4L144.3 105.6L142.4 105.0L141.3 105.0L141.3 105.7L136.4 105.4L134.6 106.0L133.9 102.6L133.2 102.8L132.8 100.8L132.2 97.8L131.0 97.8ZM185.4 122.2L181.5 120.0L181.0 119.1L182.3 119.2L183.1 118.6L183.1 116.3L182.7 114.0L182.1 113.0L181.0 112.7L180.6 110.6L180.0 110.5L178.3 109.8L176.7 108.4L177.2 106.6L179.1 107.5L180.2 104.3L180.6 103.6L181.6 103.4L183.5 104.5L185.0 106.4L184.3 107.1L183.0 107.9L182.5 109.7L186.5 112.7L187.4 114.3L188.2 116.5L188.0 117.3L187.0 118.1L187.8 118.6L188.9 119.4L189.5 119.9L189.7 121.2L187.7 121.2L187.2 121.3L186.2 122.0ZM172.9 117.8L171.8 118.2L170.7 116.7L168.6 115.8L168.7 112.6L167.5 107.3L167.1 106.8L166.0 105.8L165.4 105.8L167.4 104.5L170.5 99.9L171.5 99.6L172.1 99.7L172.3 99.9L173.7 103.3L177.1 100.9L177.8 100.8L178.8 101.0L179.1 101.2L179.0 102.5L179.0 103.6L179.7 104.0L180.2 104.3L179.1 107.5L177.2 106.6L176.7 108.4L178.3 109.8L180.0 110.5L180.6 110.6L181.0 112.7L179.8 113.5L178.2 113.5L176.1 113.6L174.9 112.7L174.2 111.0L173.5 111.1L173.4 113.2L171.6 112.6L172.2 115.8ZM178.1 121.0L177.4 119.1L176.5 118.4L175.3 118.2L174.3 117.4L172.9 117.8L172.2 115.8L171.6 112.6L173.4 113.2L173.5 111.1L174.2 111.0L174.9 112.7L176.1 113.6L178.2 113.5L179.8 113.5L181.0 112.7L182.1 113.0L182.7 114.0L183.1 116.3L183.1 118.6L182.3 119.2L181.0 119.1L181.5 120.0L182.4 120.9L181.7 121.6L179.6 119.7L179.2 120.5L179.1 120.9ZM165.4 105.8L166.0 105.8L167.1 106.8L167.5 107.3L168.7 112.6L168.6 115.8L170.7 116.7L171.8 118.2L172.7 119.3L173.2 123.2L172.2 120.0L169.4 119.2L169.0 119.3L166.9 121.1L167.3 121.7L167.4 121.8L167.3 122.3L164.1 124.7L163.8 124.6L163.5 124.0L163.1 122.4L162.3 122.2L162.0 121.2L162.0 120.1L161.1 119.6L159.8 118.9L159.6 117.2L159.0 116.1L157.8 115.8L156.7 115.3L155.3 115.6L153.4 115.7L153.0 112.1L154.6 111.7L154.7 110.1L154.6 108.9L156.5 108.4L157.9 105.4L156.9 103.7L157.3 101.3L158.0 101.8L159.2 102.0L159.0 100.9L160.4 101.5L164.0 103.0L164.4 103.3L164.6 104.1L165.1 105.2ZM173.7 103.3L172.3 99.9L172.1 99.7L171.5 99.6L170.5 99.9L169.8 100.7L168.8 102.1L168.5 102.9L167.4 104.5L165.4 105.8L165.1 105.2L164.6 104.1L164.4 103.3L164.0 103.0L160.4 101.5L159.0 100.9L160.4 99.9L160.2 99.0L156.2 98.9L155.7 97.6L155.1 96.9L155.3 95.5L155.3 94.4L156.3 94.5L157.6 94.3L159.2 93.7L160.6 93.0L162.2 91.4L162.8 92.8L163.4 93.4L163.9 93.6L164.5 93.4L165.5 92.6L166.7 92.1L167.5 92.3L167.9 92.6L168.5 92.7L168.9 93.1L168.7 93.5L169.5 94.5L170.7 94.1L171.2 94.4L171.3 94.7L171.5 95.8L173.1 94.8L173.4 94.5L174.1 93.1L174.9 93.2L177.4 94.7L178.6 95.1L180.7 95.3L180.4 97.1L180.5 97.8L180.8 98.0L181.2 98.1L181.8 98.2L180.8 101.2L177.1 100.9L175.2 102.5ZM154.9 94.1L155.3 94.4L155.3 95.5L155.1 96.9L155.7 97.6L156.2 98.9L156.6 99.1L157.4 99.1L157.3 101.3L156.9 103.7L157.9 105.4L156.5 108.4L154.6 108.9L154.4 107.9L152.9 108.0L149.3 100.0L150.8 96.8L150.5 96.7L150.0 96.8L149.4 96.5L153.9 94.7ZM24.2 80.2L25.9 80.4L26.6 81.5L26.9 81.6L28.2 81.6L29.0 81.4L30.5 84.4L30.7 84.5L31.4 84.5L31.6 84.4L33.4 85.9L34.2 89.2L34.5 89.6L35.3 90.0L35.9 90.2L35.9 92.9L35.7 93.4L35.3 93.8L34.5 94.3L35.1 96.5L33.8 97.1L32.6 97.8L31.0 97.2L28.7 97.8L28.3 97.2L29.7 95.7L29.7 94.3L29.4 92.6L28.3 91.8L26.7 92.1L25.8 92.1L24.7 92.5L24.0 91.0L23.2 91.1L23.1 89.9L21.2 88.5L20.5 87.3L20.8 86.2L20.7 83.5L21.4 82.8L23.4 82.2L24.3 81.7ZM26.9 81.6L26.6 81.5L25.9 80.4L24.2 80.2L25.2 79.6L25.3 79.1L25.9 78.2L26.7 77.8L28.1 77.8L28.7 76.7L30.4 76.5L31.1 75.6L32.4 75.3L32.0 73.0L30.9 72.3L30.2 70.9L30.4 70.2L29.3 69.4L28.4 68.1L29.0 68.0L30.0 67.1L30.4 66.5L34.9 67.1L34.9 67.3L34.9 67.5L34.7 68.1L41.8 66.5L43.6 67.2L44.2 67.2L46.5 66.4L47.1 65.9L47.6 63.0L51.9 66.7L52.9 71.7L53.8 72.0L55.9 71.9L56.7 72.1L55.6 73.8L55.1 76.1L54.8 76.3L55.1 77.4L54.8 78.2L54.4 78.5L54.0 79.0L53.2 79.2L51.9 78.6L50.5 77.3L50.1 77.8L50.0 78.1L49.4 78.5L51.3 79.8L51.7 80.4L51.7 81.3L48.9 82.7L48.3 83.4L47.5 84.2L46.2 84.2L44.7 83.5L44.1 82.6L42.2 82.6L40.8 82.8L39.3 84.0L40.1 87.7L39.2 88.5L37.9 88.3L36.5 89.2L35.9 90.2L35.3 90.0L34.5 89.6L34.2 89.2L33.4 85.9L31.6 84.4L31.4 84.5L30.7 84.5L30.5 84.4L29.0 81.4L28.2 81.6ZM25.9 78.2L22.8 76.5L25.3 74.4L26.3 68.6L27.3 68.9L28.4 68.1L29.3 69.4L30.4 70.2L30.2 70.9L30.9 72.3L32.0 73.0L32.4 75.3L31.1 75.6L30.4 76.5L28.7 76.7L28.1 77.8L26.7 77.8ZM37.2 99.5L35.5 98.5L34.5 94.3L35.3 93.8L35.7 93.4L35.9 92.9L35.9 90.2L36.5 89.2L37.9 88.3L39.2 88.5L40.1 87.7L39.3 84.0L40.8 82.8L42.2 82.6L44.1 82.6L44.7 83.5L46.2 84.2L46.6 85.8L46.9 86.8L47.0 87.2L46.4 89.0L44.4 91.0L45.1 96.0L41.6 97.5L43.0 99.3L43.0 100.1L42.4 100.4L38.6 100.2L38.1 99.3ZM55.1 77.4L54.8 76.3L55.1 76.1L55.6 73.8L56.7 72.1L58.3 72.4L59.3 71.6L60.6 72.0L61.0 70.5L60.8 67.6L61.6 67.4L64.4 66.6L65.4 65.8L65.6 65.5L65.8 65.3L66.5 65.1L69.0 65.2L69.6 64.8L70.3 65.8L69.9 66.5L69.0 67.1L68.5 67.9L66.8 68.5L67.3 69.7L67.6 70.8L68.0 71.8L67.5 72.3L66.5 72.5L66.1 74.2L66.5 75.6L67.8 77.0L69.1 77.5L69.2 79.0L69.3 79.8L69.9 80.9L68.8 81.0L67.9 80.7L66.7 81.2L67.0 82.4L66.1 83.2L65.2 83.7L63.1 83.8L61.9 83.4L60.8 83.5L60.9 83.0L60.6 82.6L59.1 81.9L57.3 81.6L56.2 81.1L57.4 77.9L57.3 77.7L56.8 77.4L56.2 77.3ZM86.6 76.5L87.0 78.7L85.7 79.3L86.4 83.1L85.4 84.0L84.1 84.4L83.7 84.4L83.5 84.3L83.0 83.9L81.4 84.9L80.7 88.6L79.9 88.9L78.2 88.9L77.5 89.2L76.9 89.9L75.4 89.6L72.8 83.6L70.9 83.9L69.6 83.4L69.3 82.1L69.9 80.9L69.3 79.8L69.2 79.0L69.1 77.5L67.8 77.0L66.5 75.6L66.1 74.2L66.5 72.5L67.5 72.3L68.0 71.8L67.6 70.8L67.3 69.7L66.8 68.5L68.5 67.9L69.0 67.1L69.9 66.5L70.1 63.5L75.1 58.1L75.6 59.3L75.7 61.2L75.3 63.3L74.7 64.2L75.1 65.2L76.2 66.0L77.9 67.0L78.7 69.2L78.1 70.7L77.0 72.2L76.8 73.6L77.6 74.6L77.0 75.3L76.0 76.4L76.2 77.2L77.7 76.7L80.1 77.5L83.0 77.8L85.1 76.9L86.1 76.4ZM83.7 84.4L84.1 84.4L85.4 84.0L86.4 83.1L87.0 83.5L87.6 86.0L84.3 89.1L85.1 89.7L85.7 89.9L86.2 90.3L86.4 91.7L84.0 94.7L86.2 95.1L84.8 96.7L84.8 97.0L85.2 97.5L85.6 98.1L85.6 98.9L85.2 100.3L84.9 100.6L84.3 101.0L83.6 99.6L83.3 98.1L82.5 98.1L81.2 99.9L80.0 101.1L80.4 102.3L81.1 102.8L80.0 103.1L78.2 103.1L76.9 103.3L76.2 104.3L75.6 103.6L75.4 102.2L74.4 101.7L74.3 99.3L74.3 98.1L73.7 97.8L72.9 96.3L72.3 95.6L71.1 96.3L70.5 95.0L69.4 95.7L69.5 96.8L66.6 98.4L64.9 95.0L66.5 94.5L66.8 94.1L67.2 93.3L67.4 92.6L65.6 89.7L66.4 89.6L67.9 89.0L68.7 88.9L76.9 89.9L77.5 89.2L78.2 88.9L79.9 88.9L80.7 88.6L81.4 84.9L83.0 83.9L83.5 84.3ZM74.2 90.0L72.5 89.8L71.2 88.9L68.7 88.9L67.9 89.0L66.4 89.6L66.2 85.5L65.2 84.1L65.2 83.7L66.1 83.2L67.0 82.4L66.7 81.2L67.9 80.7L68.8 81.0L69.9 80.9L69.3 82.1L69.6 83.4L70.9 83.9L72.8 83.6L75.4 89.6L74.7 90.0ZM65.2 83.7L66.5 88.1L65.7 90.7L66.5 91.1L66.7 91.8L67.4 92.6L67.2 93.3L66.8 94.1L66.5 94.5L64.9 95.0L65.5 96.8L62.9 97.0L62.4 95.7L61.2 94.8L59.7 95.1L58.7 96.8L58.0 96.2L57.6 93.9L56.5 92.9L56.4 90.4L56.1 88.2L55.3 87.5L54.7 85.5L55.3 83.6L56.2 81.1L57.3 81.6L59.1 81.9L60.6 82.6L60.9 83.0L60.8 83.5L61.9 83.4L63.1 83.8ZM101.9 87.8L101.9 88.3L102.3 88.9L102.0 89.7L103.0 90.2L103.3 91.7L102.2 91.5L103.7 94.0L102.8 94.9L105.3 96.4L104.5 99.1L103.3 100.4L103.0 100.5L102.5 100.5L101.8 100.5L101.1 99.6L100.9 97.6L100.2 96.2L99.3 94.6L97.9 94.2L96.8 93.5L95.7 92.4L96.2 92.0L95.7 90.5L93.8 90.0L93.2 89.1L92.4 89.6L92.0 88.6L92.9 88.3L92.9 87.4L94.6 87.0L94.9 87.4L95.4 87.7L96.0 87.9L99.4 87.0L100.2 87.9ZM92.4 90.9L93.8 90.0L95.7 90.5L96.2 92.0L95.7 92.4L95.0 93.0L95.3 94.1L94.1 94.6L93.1 95.5L92.0 95.0L92.2 93.4L90.8 92.3L90.4 91.2L91.2 90.7ZM180.8 130.5L181.3 133.7L181.9 134.1L180.4 137.2L179.6 137.4L178.9 137.7L178.4 138.0L177.4 134.3L176.3 133.6L176.0 133.1L177.0 132.1L179.1 132.4ZM203.4 97.2L204.1 97.5L204.1 98.5L204.0 99.5L203.8 100.9L203.3 102.0L201.7 101.2L201.4 99.7L202.5 97.6ZM19.8 86.3L24.7 92.5L25.8 92.1L26.7 92.1L28.3 91.8L29.4 92.6L29.7 94.3L29.7 95.7L28.3 97.2L27.0 96.6L26.1 97.7L27.0 99.8L25.6 100.0L25.3 99.5L24.1 98.1L23.1 97.4L23.3 99.5L21.7 100.4L21.5 98.2L18.7 98.9L18.7 95.7L19.5 94.4L18.8 91.9L19.7 90.5L19.2 89.1L18.9 87.3ZM121.1 69.5L119.6 69.6L119.2 69.5L118.7 68.2L117.6 68.4L117.4 67.0L118.8 66.0L119.3 65.2L120.8 65.5L122.2 65.9L123.3 65.2L124.4 64.6L125.5 64.6L125.0 68.5L123.5 69.4L122.6 69.5L121.7 68.7ZM112.6 62.6L116.2 62.7L117.4 67.0L117.2 67.6L115.9 68.8L114.4 69.4L113.0 69.7L111.7 71.3L110.8 71.1L109.9 70.5L109.5 69.5L109.8 68.7L110.1 67.3L111.7 66.6L112.3 65.7L112.4 63.8ZM146.2 43.0L146.1 44.2L145.5 44.7L144.4 44.6L143.8 44.6L143.7 43.5L143.8 42.3L144.8 42.0L145.7 42.0ZM139.4 56.4L139.4 54.5L142.2 55.7L141.8 56.4L142.4 56.7L143.4 56.4L144.3 56.0L145.3 56.7L146.5 57.4L147.2 58.2L147.6 59.0L147.6 60.8L148.2 61.3L148.9 61.0L149.4 60.5L149.8 61.5L149.7 63.3L149.5 64.7L146.3 64.1L145.8 63.3L144.8 62.5L143.9 62.4L143.4 61.4L143.6 60.7L143.3 60.0L142.0 60.0L142.0 58.5L141.1 57.3ZM131.8 59.6L133.8 59.4L135.1 59.1L135.5 59.9L136.6 59.9L137.2 60.2L138.8 64.7L138.3 65.4L137.6 66.3L136.5 66.7L135.8 66.7L134.4 66.5L133.2 66.2L132.0 65.9L131.4 62.6L130.4 61.3L129.3 60.7L130.0 59.7L130.3 59.2ZM157.3 101.3L157.4 99.1L160.2 99.0L160.4 99.9L159.0 100.9L159.2 102.0L158.0 101.8Z" fill="#cfc6b5" fill-rule="evenodd" stroke="#fffaf0" stroke-linejoin="round" stroke-width=".8"/><path d="M99.8 72.5L100.6 72.1L101.7 71.1L102.3 70.3L102.7 69.6L103.1 69.0L104.3 68.7L105.4 67.9L106.6 69.8L110.7 72.8L111.2 73.3L111.7 74.6L109.1 76.7L109.2 78.2L109.9 79.9L108.0 79.4L106.7 78.3L104.2 79.9L102.8 77.3L102.1 77.1L101.1 76.5L100.3 76.2L102.0 74.0L99.8 72.5Z" fill="#ed7659" fill-rule="evenodd" stroke="#173748" stroke-linejoin="round" stroke-width="1.3"/></svg>