<svg xmlns="http://www.w3.org/2000/svg" viewBox="0 0 240 160"><title>Lage von BUCURESTI in Rumänien</title><rect width="240" height="160" rx="16" fill="#f4eddf"/><path d="M69.3 25.7L73.3 23.5L73.5 22.1L76.7 19.6L76.9 19.1L76.7 18.5L76.9 18.2L78.6 18.8L78.9 18.8L79.8 18.1L81.4 15.3L81.9 15.4L83.4 15.9L86.1 18.5L88.7 19.1L91.8 23.2L88.1 26.3L83.7 26.3L83.6 26.7L83.6 27.0L83.7 27.2L86.0 28.1L86.1 28.4L86.2 28.8L86.1 29.1L84.2 32.3L83.8 32.5L83.4 32.5L83.1 32.4L81.2 31.0L77.9 35.1L80.8 37.2L79.5 39.1L74.4 36.7L69.7 38.9L69.5 38.3L69.3 37.6L69.2 37.2L67.6 36.2L64.9 36.3L61.8 32.0L61.1 30.0L63.2 26.7L65.8 26.3L66.0 26.1L66.4 24.9L67.0 24.8L68.6 25.6ZM44.3 60.1L44.8 59.9L45.2 59.3L45.3 58.9L45.8 59.1L46.8 59.3L53.8 58.9L57.0 60.3L58.9 60.4L59.5 60.5L60.7 61.4L61.9 63.9L65.7 65.9L66.3 67.1L72.3 67.7L73.4 68.8L70.5 72.3L67.7 72.3L67.4 72.4L66.9 72.9L65.9 79.1L64.2 81.3L62.3 82.1L60.2 81.7L56.5 79.4L56.0 79.4L55.8 79.4L55.6 79.5L55.1 80.8L53.8 80.5L53.6 81.7L51.6 80.4L50.5 81.8L48.7 79.1L46.1 77.7L44.0 79.7L43.0 79.2L41.7 79.8L40.4 78.2L38.7 79.6L37.9 78.3L34.7 77.7L30.2 73.4L31.1 73.0L31.0 71.7L31.8 71.0L32.0 70.9L32.2 70.8L37.1 71.9L39.5 70.3L40.2 67.2L42.3 66.3L42.2 65.6L41.6 64.4L41.6 63.8L42.8 60.6L43.1 60.2L43.5 60.1ZM45.3 58.9L47.0 57.6L46.3 56.4L47.0 54.5L48.7 53.2L48.8 51.4L48.9 51.3L49.9 50.5L50.1 50.3L50.5 48.8L50.6 48.8L49.8 47.9L52.5 45.4L54.6 39.6L57.5 36.7L57.6 32.9L61.0 30.6L64.9 36.3L67.6 36.2L69.3 37.6L69.5 38.3L69.7 38.9L69.5 39.7L67.9 43.1L69.9 46.8L72.6 49.2L72.0 51.0L72.1 51.1L73.2 51.6L73.5 51.8L73.6 52.1L73.5 52.7L71.5 55.1L74.5 60.1L74.4 60.9L74.4 62.0L72.8 61.9L72.5 62.2L72.3 62.8L72.0 63.5L71.9 64.2L72.0 66.1L72.3 67.7L66.3 67.1L65.7 65.9L61.9 63.9L60.7 61.4L59.5 60.5L58.9 60.4L57.0 60.3L53.8 58.9L46.8 59.3L45.8 59.1ZM28.2 74.9L30.5 73.9L35.0 77.9L37.9 78.3L39.1 79.7L40.4 78.2L41.7 79.8L43.0 79.2L44.0 79.7L45.5 77.8L45.7 77.7L46.1 77.7L46.8 77.8L47.5 78.9L49.6 80.0L50.5 81.8L51.6 80.4L53.6 81.7L53.8 80.5L55.1 80.8L56.0 79.4L62.1 82.1L64.9 80.4L67.9 85.6L68.9 86.1L67.0 89.0L66.8 89.1L64.5 89.5L63.8 90.1L63.2 91.3L63.0 91.4L61.2 90.8L58.3 91.9L58.7 93.1L58.6 93.3L58.1 93.7L57.6 93.9L57.2 93.9L57.0 93.9L56.7 93.8L55.4 92.2L53.0 93.3L50.5 92.1L49.9 92.1L49.3 92.3L48.9 92.5L48.4 94.1L46.7 95.5L46.4 97.8L48.1 100.7L47.5 103.5L46.6 104.5L46.1 103.9L45.6 103.4L45.0 103.1L42.7 102.4L41.8 102.4L41.5 102.2L39.4 99.9L38.4 100.4L36.0 99.1L31.5 94.6L32.2 93.1L32.0 92.4L31.3 91.3L31.3 90.8L31.9 86.4L31.8 86.1L31.5 85.9L30.7 86.8L30.4 86.9L30.1 86.9L29.9 86.6L27.4 82.3L22.8 79.6L20.5 75.6L21.4 74.5L24.7 74.4L25.3 73.6L28.0 74.9ZM78.7 136.4L78.3 136.2L77.3 136.0L76.6 135.7L72.0 132.5L72.0 132.5L71.9 132.0L72.0 130.6L71.8 130.2L71.4 130.0L70.5 129.8L69.7 129.5L69.0 128.8L68.5 128.1L68.1 127.2L67.7 124.3L69.0 123.9L69.7 122.3L72.2 123.0L72.6 122.9L73.1 122.7L73.5 122.3L73.6 121.8L72.5 120.5L72.2 120.3L70.5 120.1L69.8 119.7L69.1 119.1L67.7 117.5L67.3 117.3L67.0 117.2L66.4 117.2L63.9 118.9L63.8 119.4L61.4 123.8L61.1 124.1L60.6 124.2L60.1 124.2L59.7 124.0L58.3 121.9L58.2 121.6L58.2 121.4L61.0 121.0L60.9 118.5L62.3 114.8L65.8 116.7L66.0 116.7L66.3 116.6L66.6 116.5L69.4 108.4L70.1 107.3L71.0 106.3L71.8 106.7L72.7 107.9L73.1 108.1L75.1 108.3L76.8 110.0L77.2 113.9L79.1 116.1L80.7 117.7L85.7 119.5L88.8 122.7L84.6 123.7L85.0 124.1L83.1 125.7L83.0 125.9L83.0 126.2L82.9 126.8L84.3 128.1L82.2 129.0L81.5 134.2L78.7 136.4ZM76.8 144.4L76.2 144.3L75.6 143.8L75.4 143.2L75.4 142.5L75.9 140.3L76.1 139.6L76.5 139.3L79.0 138.4L79.4 137.5L79.2 136.6L78.7 136.4L81.5 134.2L82.2 129.0L84.3 127.9L82.9 127.2L83.1 125.7L84.9 123.6L88.5 123.1L88.8 122.7L90.8 121.3L92.7 120.7L93.7 120.6L93.9 120.5L93.9 117.6L94.6 117.3L98.7 123.4L97.7 125.5L105.0 133.0L105.4 136.3L104.2 136.3L103.9 138.0L105.6 138.9L105.7 139.2L105.7 139.5L105.7 139.8L104.9 140.6L105.0 142.7L102.7 146.8L95.4 144.9L94.2 144.2L91.0 144.3L88.7 143.0L85.4 142.8L79.6 144.2ZM167.5 135.8L167.0 135.5L164.8 135.0L163.3 134.0L157.5 136.1L150.4 137.5L151.3 135.1L151.4 134.5L151.3 133.8L151.1 133.1L147.5 129.7L147.8 128.9L151.3 125.5L150.4 123.8L150.8 123.6L152.5 122.7L152.8 122.6L155.0 123.4L156.5 122.4L158.1 123.5L164.7 124.6L171.9 124.0L172.5 124.1L175.4 124.6L184.2 128.7L183.6 130.2L183.1 130.9L182.3 131.4L179.3 132.1L178.5 132.8L178.1 133.1L177.2 133.2L175.5 133.2L174.7 133.5L172.1 135.3L168.8 134.8L168.0 135.7ZM136.0 147.9L129.1 150.0L125.9 148.3L125.1 148.1L122.3 147.9L119.8 147.0L115.4 147.3L114.4 147.2L113.5 146.8L115.3 145.0L112.8 139.1L113.0 138.7L113.4 138.1L117.3 135.9L117.5 127.6L120.2 127.6L124.6 125.7L127.5 126.2L128.9 123.4L131.9 124.5L131.0 127.1L131.7 128.9L134.3 129.8L135.7 131.7L135.7 134.6L134.8 135.0L134.1 138.0L136.0 147.9ZM148.6 137.7L144.1 139.4L137.0 147.5L136.2 147.9L136.0 147.9L134.1 138.0L134.8 135.0L135.7 134.6L135.7 131.7L134.3 129.8L131.7 128.9L131.0 127.1L132.0 123.3L132.2 123.1L132.6 122.8L133.2 122.7L139.7 122.3L140.2 123.4L139.3 127.3L139.4 127.8L139.7 128.2L144.4 131.4L145.6 131.5L145.9 131.3L146.4 130.9L147.5 129.7L148.5 130.9L150.4 132.0L151.4 134.5L150.4 137.5ZM170.8 138.9L168.3 136.7L168.4 136.0L168.0 135.7L168.8 134.8L172.1 135.3L174.7 133.5L175.5 133.2L177.2 133.2L178.1 133.1L178.5 132.8L179.3 132.1L182.3 131.4L186.1 126.0L185.5 124.1L183.8 123.1L184.4 120.1L181.6 118.0L181.5 116.1L184.0 116.5L184.5 116.3L184.9 115.9L186.8 115.7L187.9 116.2L188.8 117.0L189.7 117.9L190.6 117.7L191.0 116.4L192.2 116.4L193.3 117.7L194.8 118.3L196.5 118.3L197.9 117.9L199.1 118.6L200.3 118.8L200.2 119.3L200.2 119.8L200.4 119.9L201.5 119.7L202.0 119.4L202.5 118.9L202.9 118.3L202.6 117.7L204.1 118.2L204.4 118.4L204.5 119.0L204.3 119.6L204.0 120.1L203.5 120.2L203.9 119.7L204.2 119.1L204.3 118.6L203.8 118.3L203.8 118.6L203.9 118.8L203.9 118.9L203.5 119.0L203.2 118.8L203.1 118.7L200.0 121.2L200.4 120.5L200.5 120.2L200.1 120.2L199.9 120.2L200.3 121.7L199.5 121.9L199.2 122.2L200.0 122.7L199.7 125.3L203.2 120.6L203.1 121.2L202.9 121.7L201.5 124.5L197.1 129.8L197.9 134.3L197.0 134.7L197.9 139.5L195.9 147.2L192.9 147.4L188.4 146.6L184.0 144.6L183.3 144.0L182.4 140.5L181.9 139.6L181.9 139.6L180.7 139.8L179.3 140.6L177.9 141.0L177.1 139.8L176.9 139.6L176.5 138.7L176.0 138.5L174.8 138.9ZM102.9 146.9L105.7 139.8L105.7 139.5L105.7 139.2L105.6 138.9L103.9 138.0L104.2 136.3L105.4 136.3L105.0 133.0L97.6 125.1L99.5 122.9L101.3 123.8L102.7 122.3L104.7 122.0L105.4 120.6L106.1 121.9L106.3 122.0L106.4 121.9L106.6 121.8L105.6 116.8L108.3 111.7L109.2 114.5L111.4 112.4L112.9 116.5L114.9 117.2L114.1 118.1L115.2 121.5L115.7 126.8L117.5 127.6L117.3 135.9L113.4 138.1L113.0 138.7L112.8 139.1L115.2 145.2L113.5 146.8L110.1 145.5L109.4 145.4L106.6 146.7ZM46.0 113.1L46.6 113.0L47.4 112.7L47.7 112.5L47.8 111.9L47.6 111.4L43.8 109.2L45.3 108.2L47.6 103.2L48.0 99.8L46.3 97.3L46.7 95.5L48.4 94.1L48.9 92.5L49.3 92.3L49.9 92.1L50.5 92.1L53.0 93.3L55.4 92.2L56.7 93.8L57.0 93.9L57.2 93.9L57.6 93.9L58.1 93.7L58.6 93.3L58.7 93.1L58.3 91.9L61.2 90.8L63.0 91.4L63.2 91.3L63.8 90.1L64.5 89.5L66.8 89.1L68.9 91.9L71.5 93.8L72.3 99.8L69.3 104.7L70.8 105.3L71.0 105.5L71.1 105.7L71.0 106.3L70.1 107.3L69.4 108.4L66.6 116.5L62.1 115.0L60.9 118.5L60.9 121.2L58.2 121.4L58.2 121.1L57.6 119.7L57.4 119.5L56.7 119.4L54.8 118.3L50.2 118.6L48.6 115.9L44.8 115.5L43.6 114.2L44.8 113.0ZM156.1 10.0L158.9 10.7L160.8 12.7L161.0 12.6L161.2 12.3L161.4 12.1L162.6 13.3L162.0 14.0L163.6 14.5L163.6 16.0L163.9 16.6L164.4 17.0L165.0 17.3L164.7 18.2L166.2 18.8L166.1 20.7L168.0 23.5L167.3 24.0L168.7 25.8L168.6 27.6L171.7 31.0L168.9 31.9L167.6 33.7L164.6 32.9L164.6 34.8L164.5 35.0L164.3 35.2L163.9 35.4L161.8 34.2L157.1 33.7L155.5 35.7L154.6 35.6L154.4 35.4L154.1 35.1L153.6 34.4L153.5 34.1L152.7 30.0L147.6 23.6L144.2 20.8L143.8 19.0L144.3 19.0L145.3 18.5L147.0 16.1L148.0 11.9L155.7 10.0ZM171.8 31.3L172.6 33.7L174.8 34.7L174.7 37.2L176.1 39.3L178.1 40.2L179.7 44.2L182.4 47.2L184.3 47.6L185.9 50.6L186.3 53.4L182.8 54.1L180.2 53.4L180.1 51.1L179.2 52.3L175.9 49.4L175.8 51.3L176.7 51.5L176.3 52.2L174.5 52.0L172.7 53.1L167.0 52.8L165.7 50.3L167.7 48.8L166.1 46.5L165.8 46.3L165.3 46.3L165.0 46.4L163.5 47.6L163.1 47.6L162.1 47.4L161.8 47.4L161.2 48.4L160.9 48.4L160.0 48.2L159.5 48.0L158.2 47.0L157.4 46.6L155.3 46.3L155.1 45.9L155.0 45.4L154.3 43.9L153.3 42.3L151.8 40.9L153.4 40.6L153.6 40.4L153.8 40.2L152.3 38.0L155.5 37.9L155.5 35.7L156.9 33.7L161.8 34.2L163.5 35.4L164.6 34.8L164.6 32.9L167.6 33.7L169.2 31.7L171.8 31.3ZM186.3 53.4L188.9 59.6L188.3 63.6L188.9 65.7L187.5 70.2L186.0 71.8L186.8 73.3L186.0 76.0L181.7 75.1L180.3 76.4L179.6 75.4L176.0 75.0L175.7 79.0L173.9 75.3L172.8 66.8L172.0 65.0L169.8 61.2L169.5 58.5L167.4 56.4L167.0 52.8L172.7 53.1L174.5 52.0L176.3 52.2L176.7 51.5L175.8 51.3L175.9 49.4L179.2 52.3L180.1 51.1L180.2 53.4L182.8 54.1L186.3 53.4ZM186.0 76.0L185.5 78.4L187.3 90.0L185.0 91.2L186.2 91.8L186.7 92.2L188.3 95.5L187.7 96.6L186.2 96.2L184.4 97.2L180.0 96.7L177.5 94.7L177.2 94.6L176.8 94.7L176.1 94.7L174.9 94.2L174.3 93.6L173.3 90.2L170.7 87.1L168.0 78.8L169.6 76.9L172.7 75.4L173.9 75.3L175.7 79.0L176.0 75.0L179.6 75.4L180.3 76.4L181.7 75.1L186.0 76.0ZM140.9 19.4L142.3 19.0L143.8 19.0L144.2 20.8L144.3 21.2L147.6 23.6L152.7 30.0L153.6 34.4L155.8 36.1L155.5 37.9L152.3 38.0L153.8 40.2L153.6 40.4L153.4 40.6L151.8 40.9L149.6 39.6L149.1 39.7L147.1 40.7L146.3 40.9L141.3 40.8L139.7 41.5L139.4 41.6L137.1 40.2L137.9 42.3L135.3 44.9L135.0 45.4L134.7 46.2L134.7 46.8L132.6 47.1L128.8 44.4L127.2 44.9L126.3 46.6L122.0 45.5L122.2 41.7L121.2 41.1L121.8 39.0L120.7 36.9L121.6 36.5L121.4 35.4L122.5 34.0L119.7 31.0L120.9 30.5L121.1 30.3L121.3 30.1L119.4 26.9L121.0 26.7L122.3 26.1L126.1 21.4L136.4 20.3L139.9 19.3ZM90.4 18.1L94.9 18.7L95.3 18.9L96.4 19.8L96.5 20.3L97.0 20.3L99.1 19.5L99.7 19.5L104.0 21.4L108.2 19.8L111.4 20.1L113.2 21.5L113.9 23.2L114.6 23.6L116.3 24.2L116.6 24.5L116.8 24.9L117.5 26.1L118.0 26.8L118.4 27.1L119.1 27.0L119.4 26.9L121.3 30.1L117.2 31.2L116.3 32.0L116.0 32.2L115.5 32.4L111.6 32.5L107.6 31.6L107.3 31.7L105.8 32.3L105.5 32.5L105.3 32.8L104.9 33.8L104.7 34.0L104.3 34.3L102.5 34.6L102.2 34.8L99.7 38.8L96.2 38.5L94.6 39.4L92.3 37.6L91.9 37.5L88.6 37.6L83.7 36.0L81.5 36.0L80.4 36.4L78.5 36.0L78.1 35.8L77.8 35.6L77.8 35.3L77.9 35.1L81.0 31.1L83.8 32.5L85.3 30.9L86.1 28.4L83.7 27.2L83.9 26.1L88.1 26.3L88.6 26.1L91.6 23.9L91.8 23.6L91.8 23.2L91.6 22.8L89.1 20.3L88.7 19.1L89.6 18.3ZM188.7 95.5L189.4 95.8L189.8 96.4L189.7 97.0L190.3 98.6L190.7 99.4L198.7 102.3L200.6 101.7L199.7 100.8L200.4 99.4L203.3 100.7L204.2 99.3L211.6 95.7L216.8 97.2L217.7 98.1L218.0 98.2L218.5 98.7L218.8 102.2L217.9 102.8L219.5 104.2L219.0 104.8L218.8 105.6L217.6 113.7L216.6 114.6L208.1 115.7L206.0 117.2L205.3 117.8L204.8 118.6L204.3 116.9L206.8 115.9L207.3 115.6L207.7 115.1L207.8 114.4L207.7 114.0L207.4 113.6L206.8 112.9L206.9 113.4L207.0 113.6L207.0 114.0L205.8 113.8L205.7 113.2L205.7 111.4L206.9 109.7L204.4 108.8L201.9 111.5L202.1 112.9L202.3 113.1L202.8 113.3L203.8 114.4L203.5 114.7L203.4 114.8L203.2 114.8L203.6 116.2L200.7 117.4L200.7 118.7L200.3 118.8L199.1 118.6L197.9 117.9L196.5 118.3L194.8 118.3L193.3 117.7L192.2 116.4L191.0 116.4L190.6 117.7L189.7 117.9L188.8 117.0L187.9 116.2L186.8 115.7L184.9 115.9L186.4 112.3L186.5 106.4L187.5 105.1L185.8 103.6L186.3 101.6L184.6 101.3L183.5 100.3L184.7 96.7L186.2 96.2L187.6 96.6L188.3 95.5ZM99.7 38.8L98.2 41.2L98.6 43.9L102.2 46.1L102.9 50.0L104.6 51.6L103.7 55.1L101.9 57.2L102.1 59.4L100.5 60.2L100.3 62.7L99.0 64.1L99.3 65.5L93.1 65.7L92.3 66.7L92.0 66.6L91.5 66.3L91.4 66.0L91.6 64.6L89.9 64.4L87.0 62.9L83.7 64.2L81.8 63.9L80.1 65.1L78.5 62.8L78.0 62.6L75.0 62.6L74.4 62.0L74.4 60.9L74.5 60.1L74.4 59.9L71.5 55.1L73.5 52.7L73.6 52.1L73.5 51.8L73.2 51.6L72.1 51.1L72.0 51.0L72.6 49.2L72.9 49.3L75.4 49.4L75.7 49.4L77.1 51.6L78.9 52.4L82.7 52.4L83.6 50.5L84.2 51.5L85.8 51.9L85.7 49.8L88.7 48.7L88.1 46.6L89.2 44.8L91.6 44.1L93.2 42.5L93.9 42.2L95.1 42.1L95.4 42.0L95.6 39.0L96.2 38.5ZM103.7 55.1L104.5 51.2L102.9 50.0L102.2 46.1L98.8 44.2L98.2 41.5L102.1 34.9L102.2 34.8L102.5 34.6L104.3 34.3L105.5 32.5L105.8 32.3L107.3 31.7L107.6 31.6L111.6 32.5L115.5 32.4L117.9 30.9L119.7 31.0L122.5 34.0L121.4 35.4L121.6 36.5L120.7 36.9L121.8 39.0L121.2 41.1L122.2 41.7L122.0 45.5L120.4 46.1L119.0 46.4L118.5 46.6L117.8 47.0L116.7 47.9L115.0 51.8L113.0 51.2L112.7 51.2L112.3 51.4L111.8 51.8L109.7 55.6L107.3 56.3L106.8 56.3L105.4 56.0ZM95.6 39.0L95.4 42.0L95.1 42.1L93.9 42.2L93.2 42.5L91.6 44.1L89.2 44.8L88.1 46.6L88.7 48.7L85.7 49.8L86.0 51.7L84.2 51.5L83.4 50.5L82.7 52.4L78.9 52.4L77.1 51.6L75.7 49.4L75.4 49.4L72.9 49.3L72.6 49.2L69.9 46.8L67.9 43.1L69.7 38.9L70.6 38.2L73.4 36.8L73.9 36.7L74.4 36.7L76.7 37.3L79.5 39.1L80.8 37.6L80.4 36.4L81.5 36.0L83.7 36.0L88.1 37.5L88.6 37.6L91.9 37.5L92.3 37.6L95.1 39.3ZM142.3 117.1L140.6 119.2L141.4 120.4L141.2 120.7L140.2 121.9L139.7 122.3L133.2 122.7L131.4 124.1L128.9 123.4L127.9 125.8L126.5 126.2L127.3 122.3L124.6 119.6L125.2 118.5L124.4 117.4L125.1 113.4L125.1 112.9L124.7 111.3L124.7 110.7L125.6 108.7L124.1 104.6L124.7 103.3L125.6 104.0L126.3 103.3L127.6 98.9L127.1 97.4L128.4 97.0L129.2 95.7L129.7 95.4L130.0 97.3L130.2 98.7L130.3 99.1L131.5 100.5L131.7 102.4L134.9 107.4L135.6 110.4L137.2 110.8L138.0 114.1L139.9 114.7L141.3 116.5L141.6 116.8L142.0 117.0ZM139.7 122.3L140.2 121.9L141.2 120.7L141.4 120.4L140.6 119.2L142.5 116.6L143.8 116.6L145.1 116.2L145.6 116.2L148.6 116.7L149.2 118.7L149.4 119.0L150.7 119.7L150.9 119.9L149.4 122.3L150.8 123.6L150.4 123.8L150.3 124.0L150.3 124.4L151.3 125.2L148.9 127.3L146.4 130.9L144.7 131.5L139.4 127.8L140.2 123.4ZM145.8 127.2L146.1 126.3L145.2 125.5L145.7 123.9L144.0 123.5L143.8 121.5L142.4 122.0L141.4 123.8L142.5 124.3L142.5 125.3L141.1 125.4L141.1 126.4L142.5 127.9L143.7 128.2L144.7 129.5L145.3 129.0L144.6 127.4L144.8 126.9ZM127.1 97.4L127.6 98.9L126.3 103.3L125.6 104.0L124.6 103.3L124.0 105.2L125.6 108.7L124.7 110.2L125.1 113.4L124.4 117.4L125.2 118.5L125.1 118.7L124.7 119.0L124.6 119.2L124.6 119.6L125.2 120.7L125.4 121.0L127.3 122.3L126.9 125.3L126.5 126.2L123.7 125.9L119.9 127.6L116.0 127.2L114.1 118.1L114.9 117.2L112.9 116.5L111.4 112.4L109.4 114.6L109.2 114.5L109.0 114.4L108.8 113.7L110.3 111.7L109.8 110.3L110.0 109.7L110.2 107.9L110.9 105.0L109.9 99.8L110.7 92.1L114.5 91.0L115.8 90.9L117.2 92.1L122.6 91.9L124.9 93.5L125.3 93.9L126.4 96.5ZM87.8 100.0L90.8 98.5L95.3 98.9L96.1 99.9L96.2 103.8L94.9 110.7L95.2 114.2L95.1 115.8L94.8 117.5L94.0 117.3L94.0 120.4L90.8 121.3L88.8 122.7L85.7 119.5L80.7 117.7L79.1 116.1L77.2 113.9L76.8 110.0L74.8 108.1L72.7 107.9L71.8 106.7L71.0 106.3L71.1 105.7L71.0 105.5L70.8 105.3L69.3 104.7L71.6 101.9L76.0 100.2L78.8 101.3L79.1 101.3L80.4 100.7L82.2 101.0L86.0 99.4L87.6 99.9ZM90.8 98.5L87.8 100.0L86.0 99.4L82.2 101.0L80.4 100.7L79.1 101.3L78.8 101.3L76.3 100.2L76.0 100.2L71.6 101.9L72.4 99.4L71.7 97.8L72.2 96.6L71.8 94.2L67.0 89.8L67.4 87.7L68.9 85.9L67.9 85.6L64.9 80.4L65.9 79.1L66.2 78.6L66.3 78.1L66.9 72.9L67.4 72.4L67.7 72.3L70.5 72.3L73.4 68.8L74.4 69.4L74.6 69.5L76.5 69.3L76.7 69.3L77.8 72.2L79.9 73.3L80.2 73.8L80.5 74.7L80.1 75.7L82.1 78.4L82.6 78.6L83.0 78.7L83.3 78.9L85.2 82.6L86.9 90.4L90.7 94.1L91.1 97.6ZM90.8 98.5L90.8 95.6L95.2 93.8L101.0 94.1L103.1 92.9L103.4 92.8L106.3 92.1L110.7 92.1L109.9 99.8L110.9 105.0L110.2 107.9L110.0 109.7L109.8 110.3L110.3 111.7L108.8 113.7L108.8 112.3L107.9 111.9L105.6 116.8L106.3 122.0L105.4 120.6L104.7 122.0L102.7 122.3L101.3 123.8L100.0 122.7L99.7 122.8L99.5 122.9L98.7 123.4L96.9 120.0L95.1 118.8L94.9 110.7L96.2 103.8L96.1 99.9L95.3 98.9L91.5 98.7ZM146.1 116.4L142.0 117.0L141.6 116.8L141.3 116.5L139.9 114.7L138.0 114.1L137.7 111.5L135.6 110.4L134.9 107.4L131.7 102.4L129.7 95.4L134.3 94.4L137.2 94.8L138.4 95.9L139.8 93.7L140.1 93.6L140.5 93.7L141.6 94.3L142.6 94.5L143.9 96.1L144.7 96.7L145.0 97.0L147.2 102.5L148.9 102.8L149.6 103.6L150.4 103.1L151.9 108.4L153.8 109.8L153.1 111.4L153.2 111.7L154.0 112.5L154.4 113.2L152.9 114.9L152.6 115.0L151.5 114.9L151.2 114.9L150.3 115.7L148.8 115.3L148.1 115.7L147.3 116.4L146.4 116.4ZM151.9 78.2L150.5 80.4L150.2 81.4L150.0 86.4L148.6 90.4L148.4 90.7L148.0 90.9L147.6 90.9L146.6 90.2L145.9 91.7L145.6 91.7L144.6 91.8L143.8 92.0L139.4 87.4L137.5 86.7L137.1 86.5L136.8 86.0L134.7 86.4L134.7 85.4L134.0 84.7L132.5 83.7L132.3 83.3L132.5 77.7L131.3 77.6L130.0 76.1L131.1 73.9L135.1 70.0L135.5 70.2L136.0 70.7L136.3 70.9L137.4 73.5L139.5 75.4L141.5 75.5L148.7 73.4L150.3 74.7L150.0 75.7L151.5 78.0ZM149.7 84.8L149.8 83.3L150.1 81.8L150.2 81.4L150.5 80.4L151.9 78.2L154.3 78.6L155.8 76.5L162.1 77.0L163.1 76.0L165.1 76.4L167.1 74.2L167.6 73.9L169.1 73.6L171.4 74.3L172.3 73.6L173.0 73.9L173.6 73.9L173.9 75.3L169.6 76.9L168.0 79.1L170.7 87.1L173.3 90.2L174.9 94.2L173.7 94.7L173.2 94.9L172.9 95.3L172.3 96.0L171.8 96.8L171.6 97.4L170.6 97.5L170.2 97.4L169.2 97.1L168.5 96.0L167.3 95.5L165.8 96.1L165.6 95.0L163.7 95.4L162.2 93.0L161.6 92.7L161.1 92.6L160.7 92.6L160.5 93.4L159.4 93.2L155.7 90.3L153.6 90.2L150.6 85.7ZM148.0 90.9L150.0 86.4L149.7 84.8L153.6 90.2L155.7 90.3L159.4 93.2L160.5 93.4L160.7 92.6L161.1 92.6L161.6 92.7L162.2 93.0L163.7 95.4L165.6 95.0L165.8 96.1L167.3 95.5L168.5 96.0L169.2 97.1L170.2 97.4L170.6 97.5L171.6 97.4L170.8 99.8L169.2 100.5L169.1 102.0L166.2 101.9L164.5 102.5L164.2 102.8L164.0 103.0L164.5 104.4L165.9 103.6L167.1 107.3L168.3 107.7L167.9 110.7L166.4 111.9L167.0 113.0L166.4 115.2L166.9 115.9L165.3 116.4L165.1 115.2L163.8 114.5L162.4 115.1L162.1 115.0L161.5 114.6L161.0 114.4L155.9 114.2L155.5 114.1L154.8 113.5L154.4 113.2L154.0 112.5L153.2 111.7L153.1 111.4L153.8 109.8L151.9 108.4L150.4 103.1L149.6 103.6L148.9 102.8L147.2 102.5L145.3 97.4L142.6 94.5L143.8 92.0L144.6 91.8L145.6 91.7L145.9 91.7L146.6 90.2L147.6 90.9ZM129.7 95.4L128.4 97.0L127.1 97.4L126.4 96.5L125.3 93.9L124.9 93.5L122.6 91.9L117.2 92.1L116.1 91.0L115.8 90.9L114.5 91.0L113.2 85.6L115.4 84.3L114.6 81.7L117.3 80.5L117.2 79.4L117.4 79.2L118.5 78.6L119.8 77.5L121.3 74.9L127.2 73.8L129.6 75.0L131.3 77.6L132.5 77.7L132.3 83.3L132.5 83.7L134.0 84.7L134.7 85.4L134.7 86.4L136.8 86.0L137.1 86.5L137.5 86.7L139.4 87.4L143.8 92.0L142.6 94.5L141.6 94.3L140.5 93.7L140.1 93.6L138.4 95.9L137.2 94.8L134.3 94.4L133.8 94.5L130.3 95.1L130.0 95.2ZM114.5 91.0L110.7 92.1L106.3 92.1L103.4 92.8L103.1 92.9L101.0 94.1L95.2 93.8L91.7 95.5L92.3 94.6L91.4 92.3L91.4 87.6L91.9 86.1L92.0 85.7L92.1 85.6L93.4 85.1L94.6 83.0L93.5 82.5L93.4 82.3L93.3 81.3L96.1 81.1L96.9 78.3L98.3 78.0L98.6 78.0L99.9 78.7L100.4 77.2L103.6 74.0L103.7 73.8L103.7 73.5L103.6 71.5L107.5 71.8L113.7 70.8L113.7 74.4L113.9 75.2L114.1 75.8L114.4 76.3L117.9 75.8L120.2 76.9L117.2 79.4L117.3 80.5L114.6 81.7L115.4 84.3L113.2 85.6L114.4 90.4ZM99.5 65.3L99.0 64.8L98.9 64.4L99.0 64.1L100.3 62.7L100.5 60.2L102.1 59.4L101.8 57.5L103.1 55.2L103.7 55.1L105.4 56.0L106.8 56.3L109.7 55.6L111.8 51.8L112.3 51.4L112.7 51.2L113.0 51.2L115.0 51.8L116.6 48.1L116.7 47.9L117.8 47.0L118.5 46.6L119.0 46.4L120.4 46.1L122.0 45.5L124.0 45.8L124.9 46.3L126.2 49.6L126.5 58.7L121.3 63.5L120.9 65.6L120.7 65.8L119.3 66.3L119.2 66.5L119.8 67.8L117.9 69.0L118.0 69.3L119.7 71.3L120.1 71.7L120.5 71.8L121.4 71.8L121.8 71.9L122.9 72.8L124.6 74.5L123.5 74.8L121.6 74.8L121.3 74.9L121.0 75.1L120.5 75.5L120.3 75.7L120.2 76.1L120.1 76.3L120.2 76.9L117.9 75.8L114.7 76.4L114.4 76.3L114.1 75.8L113.9 75.2L113.7 70.8L107.5 71.8L103.6 71.5L102.6 69.4L100.1 67.7L100.8 66.1L100.1 65.3ZM141.5 75.5L139.5 75.4L138.9 75.1L138.6 74.8L135.1 70.0L133.3 71.3L130.2 75.7L127.2 73.8L126.8 73.8L125.7 74.3L124.6 74.5L122.9 72.8L121.8 71.9L121.4 71.8L120.5 71.8L120.1 71.7L119.7 71.3L118.0 69.3L117.9 69.0L119.8 67.8L119.2 66.5L119.3 66.3L120.7 65.8L120.9 65.6L121.3 63.5L126.5 58.7L126.2 49.6L124.9 46.3L126.6 46.5L127.9 44.5L128.4 44.3L128.8 44.4L129.2 44.5L132.6 47.1L135.8 47.2L138.6 50.9L138.8 51.2L138.9 51.7L138.9 52.0L137.8 52.5L137.8 52.9L138.0 57.9L138.1 58.2L139.8 59.8L139.9 58.3L140.1 58.2L141.8 58.6L143.1 64.1L142.2 65.1L142.0 65.9L142.2 66.4L144.7 67.2L145.2 69.6L147.8 69.2L146.9 74.3ZM138.7 52.1L138.8 51.2L136.4 47.8L134.7 46.8L134.7 46.2L135.0 45.4L135.3 44.9L137.9 42.3L136.9 40.3L139.4 41.6L139.7 41.5L141.3 40.8L146.3 40.9L150.0 39.6L153.3 42.3L155.6 46.4L157.4 46.6L160.9 48.4L161.8 47.4L162.1 47.4L163.1 47.6L163.5 47.6L165.0 46.4L165.3 46.3L165.8 46.3L166.1 46.5L167.7 48.8L165.7 50.3L167.7 55.9L167.4 56.4L166.6 56.8L162.1 56.4L160.5 54.2L159.2 57.1L156.7 56.5L153.9 58.7L148.2 59.7L147.0 57.5L144.3 58.9L140.1 58.2L139.6 59.8L138.0 57.9L137.8 52.9L137.8 52.5L138.3 52.1ZM151.9 78.2L150.0 75.7L150.3 74.7L148.8 73.5L146.9 74.3L147.8 69.2L145.2 69.6L144.7 67.2L142.2 66.4L142.0 65.9L142.2 65.1L143.1 64.1L141.8 58.6L144.7 58.9L147.0 57.5L148.0 59.6L148.2 59.7L149.9 59.7L150.2 59.6L151.2 58.7L153.9 58.7L156.7 56.5L159.2 57.1L160.5 54.2L162.1 56.4L167.4 56.4L169.5 58.5L169.8 61.2L172.0 65.0L172.8 66.8L173.2 68.7L173.5 70.1L173.6 73.9L167.6 73.9L165.1 76.4L163.1 76.0L162.1 77.0L155.8 76.5L154.3 78.6ZM74.6 69.5L74.4 69.4L73.4 68.8L72.3 67.7L72.0 66.1L71.9 64.2L72.0 63.5L73.0 61.7L78.5 62.8L80.1 65.1L81.8 63.9L83.7 64.2L87.0 62.9L89.9 64.4L91.6 64.6L91.4 66.0L91.5 66.3L92.0 66.6L92.3 66.7L92.8 65.7L94.9 65.4L100.7 65.8L100.0 67.5L102.6 69.4L103.6 71.5L103.7 73.5L103.7 73.8L100.4 77.2L99.9 78.7L98.6 78.0L98.3 78.0L96.9 78.3L96.1 81.1L93.3 81.3L93.4 82.3L93.5 82.5L94.6 83.0L93.4 85.1L92.1 85.6L92.0 85.7L91.9 86.1L91.4 87.6L91.4 92.3L92.3 94.6L91.7 95.5L90.8 95.6L90.6 93.9L87.2 90.9L85.2 82.6L83.3 78.9L83.0 78.7L82.6 78.6L82.1 78.4L80.1 75.7L80.5 74.7L80.2 73.8L79.9 73.3L78.0 72.4L76.5 69.3ZM171.6 97.4L171.8 96.8L172.3 96.0L172.9 95.3L173.2 94.9L173.7 94.7L174.9 94.2L177.5 94.7L180.0 96.7L184.4 97.2L183.5 100.3L184.6 101.3L186.3 101.6L185.8 103.6L187.5 105.1L186.5 106.4L186.4 112.4L184.5 116.3L181.9 115.9L180.2 114.8L177.1 115.6L169.0 115.4L168.7 115.3L166.9 114.6L166.4 111.9L167.9 110.7L168.3 107.7L167.1 107.3L165.9 103.6L164.5 104.4L164.0 103.0L164.2 102.8L164.5 102.5L166.2 101.9L169.1 102.0L169.3 100.2L170.6 100.0L171.5 98.0ZM150.8 123.6L149.4 122.3L150.9 119.9L150.7 119.7L149.4 119.0L149.2 118.7L148.8 116.7L148.6 116.7L147.7 116.5L147.3 116.4L148.1 115.7L148.8 115.3L150.3 115.7L151.2 114.9L151.5 114.9L152.6 115.0L152.9 114.9L154.4 113.2L154.8 113.5L155.5 114.1L155.9 114.2L161.0 114.4L161.5 114.6L162.1 115.0L162.4 115.1L163.8 114.5L165.1 115.2L165.5 116.4L166.9 115.9L166.4 115.2L166.4 115.0L166.5 114.8L166.9 114.6L168.7 115.3L169.0 115.4L177.1 115.6L180.2 114.8L181.9 115.9L181.5 116.1L181.3 116.5L181.1 116.9L181.3 117.4L181.6 118.0L184.4 120.1L183.8 123.1L185.5 124.1L186.1 126.0L184.2 128.7L181.0 127.6L179.1 126.8L177.2 125.2L176.0 125.0L175.4 124.6L172.5 124.1L164.7 124.6L158.1 123.5L156.5 122.4L154.6 123.5L152.5 122.7ZM143.8 121.5L144.0 123.5L145.7 123.9L145.2 125.5L146.1 126.3L145.8 127.2L144.8 126.9L144.6 127.4L145.3 129.0L144.7 129.5L143.7 128.2L142.5 127.9L141.1 126.4L141.1 125.4L142.5 125.3L142.5 124.3L141.4 123.8L142.4 122.0Z" fill="#cfc6b5" fill-rule="evenodd" stroke="#fffaf0" stroke-linejoin="round" stroke-width=".8"/><path d="M143.8 121.5L144.0 123.5L145.7 123.9L145.2 125.5L146.1 126.3L145.8 127.2L144.8 126.9L144.6 127.4L145.3 129.0L144.7 129.5L143.7 128.2L142.5 127.9L141.1 126.4L141.1 125.4L142.5 125.3L142.5 124.3L141.4 123.8L142.4 122.0Z" fill="#ed7659" fill-rule="evenodd" stroke="#173748" stroke-linejoin="round" stroke-width="1.3"/></svg>