<svg xmlns="http://www.w3.org/2000/svg" viewBox="0 0 240 160"><title>Lage von Pennsylvania in USA</title><rect width="240" height="160" rx="16" fill="#f4eddf"/><path d="M191.2 118.3L191.2 118.3L191.2 118.3ZM191.2 118.3L191.2 118.3L191.2 118.3L191.2 118.3ZM191.0 118.1L191.0 118.1L191.0 118.1ZM190.9 118.2L191.3 118.3L191.6 117.4L192.0 118.4L191.5 118.6L192.6 118.4L192.3 116.6L197.1 116.6L197.3 113.3L196.0 106.3L191.2 106.2L190.8 116.9ZM153.2 101.0L144.1 101.0L143.9 103.6L142.8 103.4L143.0 106.5L143.9 108.1L143.2 109.0L143.3 111.8L142.7 112.7L149.5 115.7L153.2 115.7L153.2 102.3ZM22.8 62.3L23.3 62.3L22.8 62.3ZM21.2 63.2L22.8 63.9L21.3 63.1ZM18.7 62.5L19.5 62.0L18.7 62.5ZM11.6 61.2L12.4 60.9L11.7 61.1ZM10.0 59.9L11.8 60.1L10.3 59.7ZM112.4 53.8L112.4 53.9L112.4 53.8ZM112.2 54.7L112.8 54.7L112.3 54.7ZM112.2 53.8L112.2 53.8L112.2 53.8L112.2 53.8ZM112.0 54.4L112.6 54.1L112.1 53.8L112.0 54.4ZM111.8 54.2L111.9 54.2L111.9 54.2L111.9 54.2ZM111.7 53.2L111.7 53.2L111.7 53.2L111.7 53.2ZM111.3 54.3L111.3 54.3L111.3 54.3L111.3 54.3ZM111.2 52.2L111.2 52.2L111.2 52.2L111.2 52.2ZM111.1 51.7L111.2 51.7L111.2 51.7ZM111.1 52.1L111.1 52.1L111.1 52.1L111.1 52.1ZM110.6 53.2L110.6 53.2L110.6 53.2L110.6 53.2ZM109.9 54.6L110.0 54.6L110.0 54.6L110.0 54.6ZM109.8 54.8L109.8 54.8L109.8 54.8L109.8 54.8ZM109.8 54.7L110.2 55.1L109.8 54.7ZM109.6 51.5L109.6 51.5L109.6 51.5L109.6 51.5ZM109.6 51.5L109.6 51.6L109.6 51.5L109.6 51.5ZM109.5 51.4L109.5 51.4L109.5 51.4L109.5 51.4ZM109.4 51.0L110.2 50.9L109.4 51.0ZM109.1 53.3L109.1 53.3L109.2 53.3L109.2 53.3ZM108.2 53.7L108.7 53.4L108.2 53.7ZM108.0 52.0L108.9 52.2L108.2 52.5L109.2 53.0L108.7 53.9L109.3 53.8L109.7 55.3L109.3 53.8L111.3 55.3L111.3 53.8L110.1 53.4L111.1 53.3L109.2 51.1L108.4 51.0L108.0 52.0ZM108.0 53.3L108.4 53.1L108.0 53.3ZM107.5 47.2L107.5 47.2L107.5 47.2L107.5 47.2ZM106.9 49.7L107.4 51.9L107.9 50.3L110.3 50.4L109.3 49.3L107.7 49.1L107.9 50.1L107.4 49.4L106.9 49.7ZM105.9 45.8L106.8 49.3L108.0 48.2L107.1 46.6L108.0 47.7L107.4 46.3L105.9 45.8ZM105.7 47.0L105.7 47.0L105.7 47.0L105.7 47.0ZM105.5 50.2L105.6 50.3L105.6 50.3L105.5 50.2ZM105.3 46.5L105.3 46.5L105.3 46.5L105.3 46.5ZM105.1 47.8L105.1 47.8L105.1 47.8L105.1 47.8ZM105.0 47.9L105.0 47.9L105.0 47.9L105.0 47.9ZM105.0 49.1L105.0 49.1L105.0 49.1L105.0 49.1ZM105.0 45.8L105.0 45.9L105.0 45.9L105.0 45.8ZM104.8 48.1L104.9 48.1L104.9 48.1L104.9 48.1ZM104.6 48.4L105.6 49.3L104.9 49.9L106.4 51.5L106.2 48.2L105.1 47.9L104.6 48.4ZM104.3 48.7L104.3 49.3L105.1 48.9L104.3 48.7ZM103.9 45.1L103.9 45.1L103.9 45.1L103.9 45.1ZM103.9 45.0L103.9 45.0L103.9 45.0L103.9 45.0ZM103.7 47.4L103.7 47.5L103.7 47.4L103.7 47.4ZM103.6 47.4L103.6 47.4L103.6 47.4L103.6 47.4ZM103.0 46.7L104.3 48.3L104.8 47.6L106.2 48.1L105.5 46.9L106.0 47.1L105.9 46.6L104.7 46.8L104.4 46.0L103.0 46.6ZM97.3 42.6L97.4 42.6L97.4 42.6L97.3 42.6ZM88.3 42.1L89.1 41.6L88.3 42.1ZM86.3 40.0L86.3 40.0L86.3 39.9L86.3 39.9ZM86.0 15.3L86.0 15.3L86.0 15.3L86.0 15.3ZM85.9 15.3L85.9 15.3L85.9 15.3L85.9 15.3ZM85.8 39.8L85.9 39.8L85.9 39.8L85.8 39.8ZM85.2 40.4L86.2 40.0L85.2 40.4ZM84.4 40.6L85.6 40.6L84.5 40.6ZM84.4 39.3L84.4 39.3L84.5 39.3L84.4 39.3ZM84.3 39.3L84.3 39.3L84.3 39.3ZM84.0 39.1L84.0 39.0L84.0 39.0ZM83.6 39.2L83.6 39.2L83.7 39.2L83.7 39.2ZM83.4 39.3L83.8 39.3L83.4 39.3ZM83.2 39.3L83.2 39.3L83.2 39.3L83.2 39.3ZM83.2 39.3L83.2 39.3L83.2 39.3ZM82.7 39.5L82.7 39.5L82.7 39.5L82.7 39.5ZM82.4 39.4L82.4 39.4L82.4 39.4ZM82.4 39.4L82.4 39.4L82.4 39.4L82.4 39.4ZM82.3 42.1L84.1 40.8L82.3 42.1ZM82.2 40.9L82.9 40.1L82.2 40.9ZM82.0 41.7L82.5 41.4L82.1 41.6ZM82.0 41.8L82.0 41.8L82.0 41.8L82.0 41.7ZM81.9 41.6L82.3 41.3L81.9 41.6ZM81.8 40.9L81.8 40.9L81.8 40.9L81.8 40.9ZM81.7 41.7L82.1 41.5L81.7 41.7ZM80.7 14.6L80.8 14.6L80.7 14.6ZM80.6 14.5L80.6 14.5L80.6 14.5ZM79.8 14.3L80.6 14.5L79.9 14.3ZM79.7 14.3L79.8 14.3L79.8 14.3ZM79.7 41.7L79.7 41.7L79.7 41.7ZM79.3 42.6L79.3 42.6L79.3 42.6L79.3 42.6ZM79.0 41.8L79.0 41.8L79.0 41.8L79.0 41.8ZM77.2 43.1L77.2 43.1L77.2 43.1L77.2 43.1ZM76.8 43.4L76.8 43.4L76.9 43.4L76.8 43.4ZM75.9 43.5L75.9 43.6L75.9 43.6L75.9 43.5ZM74.7 40.7L75.1 40.3L74.7 40.7ZM74.0 46.8L74.0 46.8L74.0 46.8L74.0 46.7ZM73.0 42.0L73.0 42.0L73.0 42.0L73.0 42.0ZM72.2 46.6L73.2 46.8L74.9 45.9L73.9 45.8L74.3 45.1L73.8 45.1L72.3 46.5ZM72.2 42.5L72.2 42.5L72.2 42.5L72.2 42.5ZM70.9 44.0L70.9 44.0L70.9 44.0ZM70.5 50.5L71.4 50.5L70.6 50.5ZM69.7 50.8L70.5 50.4L69.7 50.8ZM69.7 48.4L70.6 49.7L71.6 49.0L71.2 50.0L72.3 48.8L72.5 49.3L73.2 49.0L72.6 48.8L73.7 48.5L73.2 48.0L74.6 47.7L74.0 47.8L74.1 46.8L73.3 47.4L72.5 46.7L72.9 47.1L71.5 47.1L71.4 48.0L70.8 47.6L69.8 48.4ZM69.2 12.7L69.1 12.7L69.2 12.7ZM67.8 47.9L67.8 47.9L67.8 47.9ZM67.1 12.2L67.7 12.4L67.2 12.2ZM66.1 49.5L66.2 49.5L66.2 49.5L66.2 49.5ZM65.1 50.5L65.8 50.5L65.1 50.5ZM65.0 49.7L65.0 49.7L65.0 49.7L65.0 49.7ZM62.4 52.1L62.4 52.1L62.4 52.1L62.4 52.1ZM62.3 52.5L62.3 52.5L62.3 52.5L62.3 52.5ZM61.9 52.3L61.9 52.3L61.9 52.3ZM61.3 54.3L61.3 54.3L61.3 54.3L61.3 54.3ZM60.8 52.6L60.8 52.6L60.8 52.6L60.8 52.6ZM59.8 54.7L60.5 53.8L59.8 54.7ZM59.7 53.6L59.7 53.6L59.7 53.6L59.7 53.6ZM58.7 53.7L59.4 54.0L58.7 53.7ZM58.3 25.5L58.3 25.5L58.3 25.5ZM58.3 45.2L59.0 44.6L58.3 45.2ZM57.5 32.6L57.5 32.6L57.5 32.6L57.5 32.6ZM57.2 45.3L57.2 45.3L57.2 45.3L57.2 45.3ZM56.8 54.1L57.3 54.2L56.8 54.1ZM56.3 45.0L56.4 45.0L56.4 45.0ZM55.3 32.3L56.0 32.4L55.3 32.3ZM55.1 53.7L55.1 53.7L55.2 53.7ZM55.0 56.0L55.6 56.0L55.0 56.0ZM55.0 30.0L55.0 30.1L55.0 30.0L55.0 30.0ZM54.9 53.9L54.9 53.9L54.9 53.9L54.9 53.9ZM51.9 33.6L51.9 33.6L51.9 33.6L51.9 33.6ZM51.3 34.6L51.3 34.6L51.3 34.6L51.3 34.6ZM51.2 55.6L51.8 56.1L54.7 55.3L53.4 54.4L51.2 55.6ZM50.7 56.8L51.3 56.8L50.7 56.8ZM49.9 56.4L50.4 56.6L49.9 56.4ZM49.1 56.8L49.9 56.8L49.1 56.8ZM47.7 57.9L47.7 57.9L47.8 57.9L47.8 57.9ZM46.6 41.0L48.9 42.2L50.1 41.6L49.0 40.4L46.7 41.0ZM45.9 58.9L47.9 58.5L48.9 57.3L47.5 57.2L47.9 58.0L45.9 58.8ZM45.4 27.0L48.6 27.9L47.6 28.2L48.9 29.7L54.5 30.2L54.5 29.5L55.2 30.4L58.1 28.8L58.8 29.4L57.4 30.1L58.8 31.6L58.2 32.5L56.0 32.4L54.3 33.7L52.3 33.2L51.5 34.9L49.8 36.2L50.0 36.8L49.1 36.9L50.0 38.7L51.2 38.8L50.4 40.2L51.2 40.2L53.0 42.1L55.9 41.1L57.1 42.9L56.5 43.4L57.0 44.7L56.3 45.1L57.0 45.3L59.6 44.0L62.2 45.7L62.9 44.2L63.6 45.1L65.8 44.2L64.7 45.7L64.6 48.0L63.2 48.7L62.7 49.8L59.6 51.2L59.2 52.0L59.8 52.5L58.8 52.6L58.2 51.9L56.5 52.5L54.0 54.3L54.1 55.0L54.4 54.2L55.6 54.6L55.4 53.7L55.8 54.4L56.7 54.2L57.3 52.9L58.0 53.6L60.5 52.3L61.0 53.0L61.1 52.2L62.7 52.0L62.8 51.4L63.1 51.9L63.7 51.3L63.1 50.7L66.5 49.4L66.6 48.5L70.6 46.5L72.6 44.5L70.7 43.8L72.2 42.1L72.6 42.5L73.5 41.8L73.2 40.9L75.8 38.9L79.3 37.7L78.3 38.6L80.3 39.4L77.8 38.9L75.9 39.7L76.1 40.5L75.1 42.2L75.9 42.6L76.8 42.1L74.9 43.5L76.7 43.6L78.1 42.2L77.9 43.1L78.3 42.0L79.0 42.5L79.0 41.7L79.4 42.3L79.5 41.2L79.8 41.9L81.9 41.5L82.0 41.0L81.3 41.1L82.1 40.2L80.8 40.4L81.9 39.7L80.8 39.5L82.6 38.3L81.9 39.5L82.9 39.4L83.0 38.6L83.3 39.3L83.8 38.6L84.0 39.2L85.2 38.6L84.4 39.2L85.6 39.4L84.6 39.8L85.7 39.5L85.3 40.0L86.5 39.8L85.9 40.4L87.2 40.8L88.0 40.4L87.7 41.0L89.0 41.5L93.8 41.7L94.6 41.1L94.1 41.8L96.2 42.4L97.6 41.5L97.7 42.3L97.0 42.8L102.8 46.2L103.9 45.5L102.0 44.6L102.1 44.0L103.6 44.8L103.8 44.2L104.2 45.7L104.9 45.4L105.8 46.2L104.7 43.5L105.3 43.9L105.2 42.9L106.5 46.0L107.7 45.7L107.6 46.6L109.4 48.0L108.3 47.5L109.2 48.5L108.5 48.8L109.8 49.0L110.7 50.3L110.9 51.4L110.4 51.0L110.2 51.8L110.8 52.3L111.0 51.5L112.0 51.4L110.8 52.5L111.4 53.2L111.5 52.3L112.3 52.3L111.7 54.1L111.9 53.6L113.0 53.8L112.9 51.8L113.5 53.1L113.0 54.2L113.7 54.2L113.3 55.0L113.8 55.2L115.0 53.8L114.8 51.6L111.6 50.4L108.8 45.6L105.4 42.3L103.4 42.6L103.0 43.7L101.2 44.4L101.3 44.2L101.2 43.9L101.1 43.5L98.2 41.3L98.4 40.7L98.4 40.7L94.9 40.8L94.9 16.6L90.8 15.3L87.7 15.8L79.5 14.4L75.1 14.6L73.8 14.3L74.7 14.2L74.0 14.1L74.4 13.6L70.9 13.7L69.2 12.7L67.8 13.6L68.3 12.7L66.5 12.2L64.1 13.5L61.8 13.4L56.5 15.0L53.5 18.1L48.9 18.6L48.7 19.7L47.8 20.0L52.7 21.9L53.5 23.2L57.5 23.5L56.8 24.2L57.9 24.7L57.5 24.9L56.0 23.6L55.5 23.8L56.8 24.7L56.8 25.4L58.4 25.6L57.5 25.4L56.9 26.1L53.6 25.9L52.9 25.5L53.1 24.6L53.7 24.6L52.2 24.5L45.4 26.9ZM43.6 60.1L46.0 58.3L45.0 58.4L43.6 60.1ZM42.4 50.3L43.0 50.4L42.4 50.3ZM42.0 60.1L42.6 60.0L42.0 60.1ZM41.2 48.9L41.8 48.7L41.2 48.9ZM40.5 60.8L41.0 60.5L40.5 60.8ZM38.6 32.5L41.0 32.9L42.6 34.0L44.4 33.0L38.9 31.8L38.6 32.5ZM37.2 61.6L37.8 61.3L37.2 61.5ZM36.4 40.3L37.9 40.8L36.4 40.3ZM34.6 61.9L36.6 62.0L34.6 61.9ZM32.3 62.2L34.5 62.0L34.7 61.3L32.3 62.2ZM29.2 63.2L30.5 62.6L29.6 62.3L29.3 63.2ZM27.9 63.0L29.1 62.5L28.0 63.0ZM27.0 62.6L27.5 63.3L28.1 62.6L27.0 62.6ZM187.4 106.2L188.6 103.9L187.3 103.6L187.7 102.3L179.5 102.3L179.8 109.7L180.6 110.0L180.6 111.3L185.8 111.4L185.7 109.6L187.4 106.3ZM166.0 101.1L166.0 90.7L153.2 90.7L153.2 101.0L164.8 101.1ZM219.4 90.0L219.4 90.0L219.4 90.0L219.4 90.0ZM218.6 90.3L218.6 90.3L218.6 90.3ZM217.8 90.7L217.8 90.7L217.9 90.7L217.8 90.7ZM218.1 88.0L217.8 90.7L221.1 89.8L221.2 88.1L218.2 88.0ZM135.8 110.2L136.3 110.6L135.8 110.2ZM135.8 111.3L136.2 111.9L135.8 111.3ZM133.3 108.7L134.1 108.7L133.4 108.6ZM132.8 108.8L133.3 109.0L132.8 108.8ZM125.5 88.2L125.5 88.2L125.5 88.2L125.5 88.2ZM125.5 88.1L125.2 92.2L126.2 93.7L126.4 96.1L127.7 98.5L128.6 98.9L129.1 98.2L129.5 99.9L128.7 98.9L128.8 100.5L129.8 101.2L129.7 102.8L132.0 105.9L132.0 107.3L135.9 108.7L137.8 110.6L138.5 112.6L143.2 112.0L142.8 110.3L143.9 108.1L143.0 106.2L133.2 95.9L133.2 88.1L125.9 88.1ZM214.3 94.5L214.3 94.6L214.3 94.5L214.3 94.5ZM214.3 94.3L214.3 94.4L214.3 94.4L214.3 94.3ZM213.9 94.0L214.0 97.3L214.2 97.3L214.6 97.3L215.2 97.3L214.2 94.7L214.5 93.8L213.9 94.0ZM67.4 145.7L68.1 147.8L69.7 146.4L67.8 144.3L67.4 145.7ZM66.3 142.6L66.8 143.5L67.6 143.2L66.3 142.6ZM65.6 142.7L66.0 143.0L65.6 142.7ZM65.2 142.1L66.2 142.0L65.2 142.1ZM64.3 141.3L64.3 141.3L64.3 141.3L64.3 141.3ZM63.4 140.9L64.5 141.7L63.9 140.6L63.5 140.9ZM60.6 139.8L61.3 140.2L61.5 139.5L60.6 139.7ZM59.8 140.3L60.1 139.8L59.8 140.3ZM49.0 135.4L49.0 135.4L49.0 135.4L49.0 135.4ZM48.8 135.0L48.8 135.0L48.8 135.0L48.8 135.0ZM48.8 135.0L48.8 135.0L48.8 135.0L48.8 135.0ZM31.3 124.9L31.3 124.9L31.3 124.9L31.3 124.9ZM31.2 124.9L31.2 125.0L31.2 125.0L31.2 125.0ZM198.3 106.2L197.2 106.3L196.4 106.3L196.0 106.3L197.3 113.3L197.2 117.2L202.2 117.7L202.4 118.2L202.5 117.1L203.6 117.3L204.7 113.9L200.1 107.0L200.5 106.2L198.8 106.3ZM177.4 91.8L184.8 91.7L185.4 92.3L186.0 89.6L187.3 89.2L187.7 88.1L186.0 86.2L185.7 84.2L175.9 84.2L175.8 86.2L177.5 91.8ZM205.9 130.7L205.9 130.7L205.9 130.7L205.9 130.7ZM205.7 131.2L205.7 131.2L205.7 131.2L205.7 131.2ZM205.6 131.0L205.6 131.0L205.6 131.0L205.6 131.0ZM205.2 131.9L205.2 131.9L205.3 131.9ZM205.2 131.7L205.2 131.7L205.2 131.7L205.2 131.7ZM205.1 131.7L205.1 131.7L205.1 131.7L205.1 131.7ZM205.0 132.2L205.1 132.2L205.1 132.2ZM205.0 132.0L205.0 132.0L205.0 132.0L205.0 132.0ZM205.0 132.0L205.0 132.0L205.0 132.0L205.0 132.0ZM205.0 132.1L205.0 132.1L205.0 132.1L205.0 132.1ZM204.9 132.0L205.0 132.0L205.0 132.0L205.0 132.0ZM204.9 132.0L204.9 132.0L204.9 132.0L204.9 132.0ZM204.8 132.1L204.8 132.1L204.8 132.1L204.8 132.1ZM204.7 132.1L204.7 132.1L204.7 132.1L204.7 132.1ZM204.7 131.8L204.7 131.8L204.7 131.8L204.7 131.8ZM204.6 131.8L204.6 131.8L204.6 131.8L204.6 131.8ZM204.6 132.0L204.6 132.0L204.6 132.0L204.6 132.0ZM204.6 131.9L204.6 131.9L204.6 131.9L204.6 131.9ZM204.5 131.9L204.5 132.0L204.5 131.9ZM204.5 131.9L204.5 131.9L204.5 131.9L204.5 131.9ZM203.9 132.6L203.9 132.7L204.0 132.7L204.0 132.6ZM203.6 133.0L203.6 133.0L203.6 133.0L203.6 133.0ZM202.9 133.2L203.7 132.7L202.9 133.2ZM202.6 133.3L202.6 133.3L202.6 133.3L202.6 133.3ZM202.3 133.2L202.3 133.2L202.3 133.2L202.3 133.2ZM202.1 127.9L202.5 128.3L202.1 127.9ZM200.9 133.0L200.9 133.0L200.9 133.0L200.9 133.0ZM196.9 120.1L197.6 119.7L196.9 120.1ZM197.1 116.6L192.3 116.6L192.5 118.4L194.9 118.3L196.4 120.0L198.5 118.9L199.5 119.4L201.3 121.9L201.0 124.7L201.2 125.3L201.3 124.2L201.8 124.6L201.2 125.5L202.1 127.6L202.4 127.0L202.3 128.2L204.1 131.7L205.4 131.6L205.0 132.3L205.7 131.2L205.4 131.6L206.1 127.4L203.6 117.3L202.6 117.0L202.2 118.2L202.2 117.7L197.3 117.3L197.1 116.6ZM193.7 88.7L192.5 88.9L192.5 96.5L191.6 97.8L191.7 99.1L192.3 98.5L194.1 98.9L194.6 97.9L195.2 98.6L196.3 96.6L197.4 96.4L197.4 88.7L194.3 88.7ZM189.5 101.1L189.8 100.5L190.8 100.9L190.7 100.0L191.5 99.8L191.6 97.8L192.5 96.5L192.5 88.8L192.0 86.8L186.8 86.8L187.6 88.6L186.0 89.6L185.2 93.2L186.8 96.2L187.7 96.3L187.3 97.9L188.8 99.3L189.5 101.1ZM138.8 77.8L139.7 78.8L138.2 81.9L138.9 82.5L138.6 88.1L149.6 88.1L149.5 81.7L148.9 81.0L148.8 81.5L146.3 82.0L144.3 78.6L143.1 78.9L143.6 76.1L141.0 74.1L140.4 70.0L139.5 70.0L138.6 70.0L138.8 77.8ZM179.5 101.0L179.6 95.5L178.6 94.5L178.9 93.5L166.0 93.3L166.0 101.1L178.7 101.0ZM190.0 119.5L190.0 119.5L190.0 119.5L190.0 119.5ZM190.0 119.0L190.0 119.8L190.0 119.1ZM189.1 119.2L189.2 119.2L189.2 119.2L189.2 119.2ZM189.1 119.1L189.1 119.1L189.1 119.1L189.1 119.1ZM188.0 121.0L188.0 121.0L188.0 121.0L188.0 120.9ZM187.1 121.1L187.1 121.1L187.2 121.1ZM184.2 120.2L184.8 120.3L184.3 120.2ZM185.8 111.4L180.6 111.3L180.6 112.7L180.6 114.0L181.5 116.5L180.8 119.7L183.7 120.4L184.6 119.6L186.4 121.6L187.1 120.8L187.5 121.5L188.2 120.5L189.5 121.8L189.7 121.2L188.5 120.3L189.4 119.2L188.2 119.2L188.8 118.7L188.4 116.6L185.0 116.6L186.4 113.0L185.8 111.4ZM202.6 99.7L200.9 96.5L199.5 96.8L197.5 95.5L197.4 96.4L196.3 96.6L195.2 98.6L194.6 97.9L194.1 98.9L191.8 98.7L190.8 100.9L189.6 100.6L189.0 102.3L199.5 102.1L202.3 99.9ZM213.4 98.1L213.4 98.1L213.4 98.1ZM213.3 94.5L213.3 94.5L213.3 94.5L213.3 94.5ZM212.8 95.3L212.8 95.3L212.8 95.3L212.8 95.3ZM212.1 97.9L212.1 97.9L212.1 97.9L212.1 97.9ZM212.0 97.8L212.0 97.8L212.0 97.8ZM214.9 98.4L215.2 97.3L214.6 97.3L214.2 97.3L214.0 97.3L213.9 94.0L207.1 94.0L207.2 95.4L208.4 94.2L210.1 94.3L211.8 96.2L211.2 97.5L212.9 98.4L212.4 95.2L213.6 94.3L212.8 96.3L213.4 97.0L212.9 97.2L213.2 97.9L213.8 97.5L213.7 98.7L214.2 98.5ZM224.0 90.0L224.5 90.0L224.0 90.0ZM223.4 86.5L223.4 86.5L223.4 86.5L223.4 86.5ZM223.1 86.6L223.1 86.6L223.1 86.7L223.1 86.6ZM223.0 86.7L223.0 86.7L223.0 86.7ZM222.9 86.8L223.0 86.8L223.0 86.8ZM222.9 86.9L222.9 86.9L222.9 86.9L222.9 86.9ZM222.9 89.8L223.6 89.6L222.9 89.8ZM222.8 87.2L222.8 87.2L222.8 87.2ZM222.8 87.2L222.8 87.2L222.8 87.2ZM222.8 87.3L222.8 87.3L222.8 87.3ZM222.8 87.2L222.8 87.2L222.8 87.2L222.8 87.2ZM222.8 87.3L222.8 87.3L222.8 87.2L222.8 87.3ZM222.7 87.3L222.7 87.3L222.7 87.3L222.7 87.3ZM218.5 86.2L218.3 87.1L218.0 87.9L218.1 88.0L221.9 88.1L222.4 89.4L223.1 88.8L223.2 89.4L224.5 89.3L224.3 88.0L224.4 88.7L223.7 88.8L222.5 87.3L223.4 86.5L222.9 85.9L219.3 86.2ZM200.4 88.0L200.4 88.0L200.4 88.0L200.4 88.0ZM200.3 80.2L200.3 80.2L200.3 80.2L200.3 80.2ZM200.1 80.6L200.1 80.6L200.1 80.6ZM200.1 80.6L200.1 80.6L200.1 80.6ZM199.9 80.3L199.9 80.3L199.9 80.3ZM199.9 82.9L199.9 82.9L199.9 82.9L199.9 82.9ZM199.8 83.5L199.8 83.5L199.8 83.5L199.8 83.5ZM199.4 77.6L199.4 77.6L199.4 77.6L199.4 77.6ZM199.4 77.6L199.4 77.6L199.4 77.6L199.4 77.6ZM199.4 77.7L199.4 77.7L199.4 77.7L199.4 77.7ZM199.4 77.7L199.4 77.7L199.4 77.7ZM199.3 77.9L199.3 77.9L199.3 77.9L199.3 77.9ZM199.3 77.6L199.3 77.6L199.3 77.6L199.3 77.6ZM199.3 77.6L199.3 77.6L199.3 77.6ZM199.3 77.7L199.3 77.8L199.3 77.8L199.3 77.7ZM199.3 77.7L199.3 77.7L199.3 77.7L199.3 77.7ZM199.3 77.6L199.3 77.6L199.3 77.6L199.3 77.6ZM199.2 77.6L199.2 77.6L199.2 77.6L199.2 77.6ZM199.2 77.7L199.2 77.7L199.2 77.7ZM199.2 77.6L199.2 77.6L199.2 77.6ZM199.2 77.7L199.2 77.7L199.2 77.7ZM199.2 77.6L199.2 77.6L199.2 77.6L199.2 77.6ZM199.1 77.6L199.1 77.6L199.1 77.6ZM199.1 77.8L199.9 77.8L199.1 77.8ZM199.1 77.7L199.1 77.7L199.1 77.7L199.1 77.7ZM198.9 77.5L198.9 77.5L198.9 77.5L198.9 77.5ZM198.9 77.5L198.9 77.5L198.9 77.5L198.9 77.5ZM198.9 77.5L198.9 77.5L198.9 77.5ZM198.5 77.8L198.5 77.9L198.5 77.9L198.5 77.8ZM198.1 78.0L198.1 78.0L198.1 78.0L198.1 78.0ZM198.1 77.8L198.1 77.8L198.1 77.8ZM198.0 76.6L198.0 76.6L198.0 76.6ZM197.6 76.5L197.6 76.5L197.7 76.5L197.6 76.5ZM196.7 77.7L196.7 77.7L196.7 77.7ZM196.5 78.2L196.5 78.2L196.5 78.2L196.5 78.2ZM196.0 80.1L196.0 80.1L196.0 80.1ZM195.9 78.3L196.0 78.3L196.0 78.3L196.0 78.3ZM194.0 78.4L194.0 78.5L194.0 78.5L194.0 78.4ZM193.9 78.8L194.0 78.8L194.0 78.8L194.0 78.8ZM193.9 79.1L193.9 79.1L193.9 79.1ZM193.9 76.5L193.9 76.5L193.9 76.5ZM193.9 79.0L193.9 79.0L193.9 79.0L193.9 79.0ZM193.9 79.0L193.9 79.0L193.9 79.0ZM193.8 78.4L193.9 78.4L193.9 78.4L193.8 78.4ZM193.7 88.7L199.9 88.8L201.1 86.4L201.6 86.5L201.2 83.0L200.0 83.2L199.5 84.0L199.0 83.6L200.1 82.1L199.8 79.4L197.0 78.4L197.2 79.3L196.4 79.6L196.1 81.0L196.1 79.8L195.1 80.6L194.3 82.8L194.8 86.8L193.8 88.7ZM192.7 76.2L192.7 76.2L192.7 76.2ZM192.6 76.1L192.6 76.1L192.6 76.1ZM191.7 75.3L191.7 75.3L191.7 75.3ZM190.3 72.3L190.3 72.3L190.3 72.3L190.3 72.3ZM190.0 72.8L190.0 72.8L190.1 72.8L190.1 72.8ZM189.3 72.9L190.8 72.1L189.3 72.9ZM187.2 76.3L191.4 78.0L192.3 80.1L193.5 78.0L193.5 78.6L194.3 78.1L194.1 78.8L196.1 77.5L197.5 78.2L197.7 77.6L199.1 77.8L198.4 77.2L198.7 76.4L197.0 76.5L197.1 75.8L194.1 76.7L191.9 75.5L191.1 75.6L191.3 75.3L190.7 75.8L192.0 74.0L187.3 76.2ZM185.8 111.4L186.4 113.0L185.0 116.6L188.4 116.6L188.7 118.7L190.9 118.3L191.2 106.2L187.1 106.5L185.7 109.6L185.8 111.4ZM179.5 102.3L187.7 102.3L187.3 103.6L188.4 103.6L188.5 103.6L188.7 102.2L189.4 102.1L188.8 99.3L187.3 97.8L187.7 96.3L186.8 96.1L184.8 91.7L177.4 91.8L179.6 95.5L179.5 101.0ZM188.6 72.7L188.6 72.7L188.6 72.7L188.6 72.7ZM185.1 75.0L185.1 75.0L185.1 74.9ZM176.2 84.2L185.7 84.2L185.3 83.0L182.8 81.0L182.7 78.5L183.8 77.6L183.8 76.0L186.5 73.6L188.9 72.6L186.3 72.0L185.1 72.5L182.6 71.0L181.0 71.3L179.5 70.7L178.9 69.1L178.5 70.0L174.8 70.0L176.2 83.0ZM229.3 81.3L229.3 81.3L229.3 81.3L229.3 81.3ZM229.2 81.5L229.2 81.5L229.2 81.5L229.2 81.5ZM229.2 81.4L229.2 81.4L229.2 81.4L229.2 81.4ZM229.2 81.5L229.2 81.5L229.2 81.5L229.2 81.5ZM229.2 81.4L229.2 81.4L229.2 81.4L229.2 81.4ZM229.2 81.5L229.2 81.5L229.2 81.5L229.2 81.5ZM229.1 81.4L229.1 81.4L229.1 81.4ZM229.1 81.5L229.1 81.5L229.1 81.5L229.1 81.5ZM229.1 81.5L229.1 81.5L229.1 81.5L229.1 81.5ZM229.0 81.5L229.0 81.5L229.0 81.5L229.0 81.5ZM229.0 81.4L229.0 81.4L229.0 81.4L229.0 81.4ZM229.0 81.3L229.0 81.3L229.0 81.3L229.0 81.3ZM228.9 81.6L228.9 81.6L228.9 81.6ZM228.8 81.8L228.8 81.8L228.8 81.8ZM228.7 81.7L228.7 81.7L228.7 81.7ZM228.7 81.7L228.7 81.8L228.7 81.7ZM228.6 81.7L228.6 81.7L228.6 81.7L228.6 81.7ZM228.6 81.8L228.6 81.8L228.6 81.8ZM228.5 81.7L228.5 81.7L228.5 81.7L228.6 81.7ZM228.4 81.6L228.4 81.6L228.4 81.6ZM227.8 81.9L227.8 81.9L227.8 81.9L227.8 81.9ZM227.7 81.9L227.8 81.9L227.8 81.9L227.8 81.9ZM227.7 81.9L227.7 81.9L227.7 81.9L227.7 81.9ZM227.7 81.9L227.7 81.9L227.7 81.9L227.7 81.9ZM227.6 82.5L227.6 82.5L227.6 82.5L227.6 82.5ZM227.4 82.6L227.4 82.6L227.4 82.6L227.4 82.6ZM227.4 82.6L227.4 82.6L227.4 82.6L227.4 82.6ZM227.4 81.9L227.4 81.9L227.4 81.9L227.4 81.9ZM227.3 82.7L227.3 82.7L227.3 82.7L227.4 82.7ZM227.2 82.3L227.2 82.3L227.3 82.3L227.3 82.3ZM227.2 82.4L227.2 82.4L227.2 82.4L227.2 82.4ZM227.2 82.6L227.2 82.6L227.2 82.6L227.2 82.6ZM227.0 82.4L227.1 82.4L227.1 82.4L227.0 82.4ZM227.0 82.6L227.0 82.6L227.0 82.6ZM227.0 82.6L226.9 82.6L227.0 82.6L227.0 82.6ZM226.9 82.6L226.9 82.6L226.9 82.6L226.9 82.6ZM226.9 82.6L226.9 82.6L226.9 82.6L226.9 82.6ZM226.7 82.2L226.7 82.2L226.7 82.2ZM226.6 82.2L226.6 82.2L226.6 82.2L226.6 82.2ZM226.6 82.2L226.6 82.2L226.6 82.2L226.6 82.2ZM226.6 82.4L226.6 82.4L226.6 82.4L226.6 82.4ZM226.5 82.3L226.5 82.3L226.5 82.3L226.5 82.3ZM226.2 83.2L226.2 83.2L226.2 83.2L226.2 83.2ZM224.3 83.7L224.4 83.7L224.4 83.6L224.4 83.6ZM224.3 83.7L224.3 83.7L224.3 83.7L224.3 83.7ZM223.2 85.4L224.1 83.5L226.0 83.0L226.6 81.6L227.5 82.4L227.7 81.6L228.0 82.1L230.0 80.8L228.4 78.6L228.5 75.0L227.7 74.3L226.4 74.7L225.9 74.0L223.3 79.4L222.5 79.6L223.1 85.3ZM213.9 105.7L214.4 104.2L213.9 105.7ZM213.5 106.0L213.9 105.7L213.5 106.0ZM212.9 106.6L213.4 106.1L212.9 106.6ZM212.5 107.2L212.9 106.6L212.5 107.2ZM211.5 107.1L212.3 107.0L211.5 107.1ZM203.1 102.1L202.5 103.3L199.1 104.9L198.3 106.2L204.3 105.8L204.7 106.7L205.3 106.7L206.4 106.7L206.8 106.7L208.9 109.2L209.9 109.2L210.6 107.8L213.0 106.3L211.8 106.3L211.6 105.8L212.0 106.3L212.6 105.5L211.6 104.8L213.2 105.4L214.0 104.6L213.8 103.7L213.4 104.5L213.4 103.7L212.2 103.8L212.2 102.9L212.4 103.6L213.2 102.9L213.9 103.4L213.5 102.2L214.3 104.2L213.7 102.2L203.3 102.1ZM149.5 81.7L149.5 80.4L162.3 80.4L162.3 70.0L140.4 70.0L141.0 74.1L143.6 76.1L143.1 78.9L144.3 78.6L146.3 82.0L148.8 81.5L148.9 81.0L149.5 81.7ZM162.3 85.5L162.3 90.7L166.0 90.7L166.0 91.9L166.0 93.3L178.3 93.3L177.2 91.4L176.3 86.9L175.5 86.3L172.4 85.5L162.4 85.5ZM176.0 77.9L174.8 70.0L162.3 70.0L162.3 77.9L175.2 77.9ZM164.2 101.0L153.2 101.0L153.2 115.7L153.7 115.7L154.7 115.7L154.7 114.5L157.8 114.5L157.6 114.0L164.1 114.0L164.2 102.3ZM223.3 85.6L223.3 85.6L223.3 85.6ZM223.3 85.6L223.3 85.6L223.3 85.6L223.3 85.6ZM222.9 85.9L222.1 79.6L219.8 85.9L222.9 85.9ZM214.6 93.8L214.3 94.7L215.6 96.0L217.0 93.9L217.2 92.1L216.6 92.0L217.3 90.7L215.9 89.8L214.9 91.5L215.8 92.9L214.6 93.8ZM138.6 88.1L133.2 88.1L133.2 95.9L143.0 106.2L142.8 103.4L144.1 103.1L144.1 88.1L138.7 88.1ZM217.1 91.5L217.1 91.5L217.1 91.5L217.1 91.5ZM216.7 92.0L217.0 91.6L216.7 92.0ZM213.2 83.1L213.2 83.1L213.2 83.1L213.2 83.1ZM212.8 83.3L212.8 83.3L212.8 83.3L212.8 83.3ZM212.8 83.2L212.8 83.2L212.8 83.2L212.8 83.2ZM218.5 86.2L218.3 80.3L215.6 80.3L212.9 82.4L213.1 84.2L211.8 84.8L207.9 84.9L208.3 86.1L206.6 88.1L214.7 88.1L215.3 89.5L217.3 90.7L217.2 91.9L221.0 90.5L217.6 91.3L218.3 87.1ZM201.1 88.9L201.1 89.0L201.1 88.9ZM201.0 88.9L201.0 88.9L201.0 88.9L201.0 88.9ZM201.0 88.9L201.0 88.9L201.0 88.9ZM201.0 89.0L201.0 89.0L201.0 89.0L201.0 89.0ZM205.2 91.6L205.2 88.2L201.7 89.7L199.9 88.8L199.1 88.8L198.5 88.9L197.4 88.9L197.4 95.6L201.9 97.3L202.5 95.8L203.0 96.1L203.1 95.2L204.6 94.3L205.2 91.6ZM164.2 101.0L164.2 102.3L169.7 102.3L169.7 107.4L170.3 107.8L174.9 109.5L175.2 108.9L176.4 109.6L178.4 108.9L179.8 109.8L179.5 101.0L164.3 101.1ZM125.3 87.9L125.3 87.9L125.3 87.9L125.3 87.9ZM125.1 87.3L125.1 87.3L125.1 87.3L125.1 87.3ZM125.0 86.4L125.1 86.4L125.1 86.4ZM138.8 77.8L135.1 77.8L129.0 79.0L127.5 77.3L125.9 77.2L124.9 86.0L125.4 88.0L138.6 88.1L138.9 82.5L138.2 81.9L139.7 78.8L138.9 77.8ZM207.1 111.3L207.1 111.3L207.1 111.3L207.1 111.3ZM207.0 111.4L207.0 111.4L207.0 111.4L207.0 111.4ZM200.5 106.2L200.1 107.0L203.5 111.4L204.6 113.9L208.9 109.2L206.8 106.7L206.4 106.7L205.3 106.7L204.7 106.7L204.3 105.8L201.1 106.0ZM222.1 89.2L222.1 89.2L222.1 89.2L222.1 89.2ZM222.0 89.4L222.0 89.5L222.0 89.4L222.0 89.4ZM222.0 89.4L222.0 89.4L222.0 89.4L222.0 89.4ZM222.3 89.0L222.0 89.5L222.3 89.0ZM221.2 88.1L221.0 89.9L222.2 89.0L221.6 88.1ZM191.2 106.2L198.3 106.2L199.1 104.9L202.5 103.3L203.2 102.1L188.8 102.3L187.4 106.2L190.3 106.2ZM178.6 121.5L179.3 120.9L178.6 121.5ZM174.5 128.1L174.9 129.3L174.6 128.0ZM174.5 127.3L174.7 128.0L175.1 124.7L174.5 127.2ZM164.2 102.3L164.1 114.0L157.6 114.3L160.7 117.6L161.5 120.1L163.7 121.8L164.8 119.8L167.1 119.7L170.6 125.4L171.4 128.5L174.5 129.9L174.4 126.2L173.8 126.2L174.7 125.1L174.2 124.7L175.0 124.5L175.5 123.1L176.2 123.4L175.1 124.7L178.1 122.1L179.1 120.8L178.8 119.9L179.8 120.3L179.2 120.8L180.9 120.0L181.5 116.5L180.6 114.0L180.6 112.7L180.6 111.3L180.6 110.0L178.4 108.9L176.4 109.6L175.2 108.9L174.9 109.5L170.3 107.8L169.7 107.4L169.7 102.3L165.0 102.3ZM176.2 86.8L176.2 79.6L175.4 78.8L176.0 77.9L162.3 77.9L162.3 85.5L172.4 85.5L176.1 86.9ZM207.1 94.0L215.1 93.6L215.8 92.9L214.9 91.5L215.9 89.8L214.7 88.1L206.0 87.7L205.2 88.2L205.2 94.0L206.5 94.0ZM213.7 99.0L213.7 99.0L213.7 99.0L213.7 99.0ZM213.7 98.7L213.7 98.7L213.7 98.7L213.7 98.7ZM213.5 98.8L213.5 98.8L213.5 98.8L213.5 98.8ZM214.1 98.5L213.5 100.8L214.9 98.4L214.1 98.5ZM213.7 102.2L213.5 101.2L212.6 101.4L211.8 100.5L212.9 101.0L212.9 99.6L211.8 98.5L212.8 99.5L213.1 98.7L211.1 97.5L211.6 96.2L209.2 94.7L207.5 97.4L206.8 96.9L205.6 99.7L203.1 100.5L202.6 99.7L199.5 102.1L212.5 102.2ZM144.1 88.1L144.1 101.0L153.2 101.0L153.2 90.7L149.6 90.7L149.6 89.4L149.6 88.1L144.2 88.1ZM220.0 86.2L220.1 84.0L221.8 80.3L218.3 80.3L218.4 86.0L218.5 86.2L218.5 86.2L219.3 86.2ZM128.5 71.2L128.5 71.2L128.5 71.2L128.5 71.2ZM128.2 72.0L128.9 72.8L128.5 71.5L128.2 72.0ZM128.1 70.8L128.2 70.8L128.2 70.8L128.2 70.8ZM128.0 71.8L128.0 71.8L128.0 71.8L128.0 71.8ZM127.7 71.0L127.7 71.0L127.7 71.0L127.7 71.0ZM127.7 71.0L128.2 70.9L127.7 71.0ZM127.7 71.1L127.7 71.1L127.7 71.1L127.7 71.1ZM127.7 70.7L127.7 70.7L127.7 70.7L127.7 70.7ZM127.5 70.9L127.5 70.9L127.5 70.9L127.5 70.9ZM127.4 71.1L127.8 71.4L127.4 71.0ZM125.0 73.1L125.0 73.1L125.0 73.1ZM124.8 71.6L124.8 71.6L124.8 71.6ZM138.6 70.0L128.2 70.0L129.2 72.5L128.3 74.9L128.6 72.8L127.5 74.3L128.5 72.9L128.2 72.2L124.7 71.6L124.6 72.2L125.6 75.4L126.2 75.3L125.7 75.4L126.2 75.9L125.8 77.1L127.5 77.3L128.2 78.7L129.1 78.9L135.1 77.8L138.8 77.8L138.6 71.6ZM124.5 72.1L124.5 72.1L124.5 72.1L124.5 72.1ZM128.5 71.2L128.6 71.2L128.6 71.2L128.5 71.2ZM149.6 88.1L149.6 89.4L149.6 90.7L162.3 90.7L162.3 80.4L149.5 80.4L149.6 86.8ZM210.4 95.0L209.5 94.1L207.1 95.3L207.1 94.0L206.5 94.0L205.2 94.0L205.0 91.7L204.6 94.3L203.1 95.2L203.0 96.1L202.5 95.8L201.4 98.1L202.8 100.3L204.5 100.3L205.6 99.7L206.8 96.9L207.5 97.4L209.2 94.7L210.2 95.5L210.3 95.1ZM192.5 80.2L192.5 80.2L192.5 80.2ZM186.1 75.3L186.1 75.3L186.1 75.3L186.1 75.3ZM187.2 76.3L186.2 76.2L186.4 75.3L183.8 76.0L183.8 77.6L182.7 78.5L182.8 81.0L185.5 83.1L185.9 85.8L186.8 86.8L192.0 86.8L192.1 83.3L193.5 79.6L191.6 81.5L192.4 80.2L191.9 78.5L187.2 76.3Z" fill="#cfc6b5" fill-rule="evenodd" stroke="#fffaf0" stroke-linejoin="round" stroke-width=".8"/><path d="M207.1 94.0L215.1 93.6L215.8 92.9L214.9 91.5L215.9 89.8L214.7 88.1L206.0 87.7L205.2 88.2L205.2 94.0L206.5 94.0Z" fill="#ed7659" fill-rule="evenodd" stroke="#173748" stroke-linejoin="round" stroke-width="1.3"/></svg>